<?xml version="1.0" standalone="no"?>
<!DOCTYPE svg PUBLIC "-//W3C//DTD SVG 1.1//EN" "http://www.w3.org/Graphics/SVG/1.1/DTD/svg11.dtd" >
<svg>
<metadata>
Created by FontForge 20090914 at Thu Aug 14 08:00:14 2014
 By www-data
1.1  &#194;&#169;1995  By Rick W. Mueller           All rights reserved worldwide.
</metadata>
<defs>
<font id="ParchmentMF" horiz-adv-x="675" >
  <font-face 
    font-family="Parchment MF"
    font-weight="400"
    font-stretch="normal"
    units-per-em="2048"
    panose-1="0 0 4 0 0 0 0 0 0 0"
    ascent="1638"
    descent="-410"
    x-height="589.001"
    cap-height="861"
    bbox="-372 -777.01 2131 1298"
    underline-thickness="20"
    underline-position="-123"
    unicode-range="U+0020-U+F000"
  />
<missing-glyph horiz-adv-x="1024" 
d="M128 0v1264h768v-1264h-768zM256 128h512v1008h-512v-1008z" />
    <glyph glyph-name=".notdef" horiz-adv-x="1024" 
d="M128 0v1264h768v-1264h-768zM256 128h512v1008h-512v-1008z" />
    <glyph glyph-name="space" unicode=" " horiz-adv-x="475" 
 />
    <glyph glyph-name="exclam" unicode="!" horiz-adv-x="198" 
d="M118 924c0.666992 -7.33301 -0.00195312 -16.335 -2.00195 -27.002c0.666992 -66.667 -4 -161.667 -14 -285c1.33301 -5.33301 2 -11 2 -17c0 -6.66699 -1.33301 -17.167 -4 -31.5s-4 -24.833 -4 -31.5c0 -14 4.33301 -25.667 13 -35c2.66699 -5.33301 4 -11 4 -17
s-1.83301 -14.333 -5.5 -25s-5.5 -18.667 -5.5 -24c0 -8 2.33301 -15.333 7 -22c12 -34.667 10.667 -62 -4 -82c-5.33301 -8.66699 -15.666 -18.667 -30.999 -30c-33.333 0 -52.333 5 -57 15c1.33301 8.66699 6.33301 23.667 15 45c8 18 12 33 12 45
c-1.33301 8.66699 0.833984 20.334 6.50098 35.001s8.5 25 8.5 31c0 10.667 -5 19.334 -15 26.001c-1.33301 12 -0.666016 27.333 2.00098 46c4 22 6 36.667 6 44c0 14 -3 26.333 -9 37c1.33301 4.66699 2 9.66699 2 15c0 7.33301 -1.5 17.333 -4.5 30s-4.5 21.667 -4.5 27
c0 8.66699 2.33301 17 7 25c-4 10 -8.33301 35 -13 75c-3.33301 32 -11 55 -23 69c-4.66699 6 -7 11.667 -7 17c0 3.33301 8 17.333 24 42c9.33301 8.66699 22.666 14.667 39.999 18l45 8c1.33301 -6 4.33301 -13.667 9 -23zM139.998 37.998
c-7.33301 -18 -29.001 -32.001 -65.001 -42.001c-7.33301 10.667 -22.333 23.334 -45 38.001c-2 4 -8 11 -18 21c-8 8 -12 15.333 -12 22c0 4 1 8.66699 3 14c7.33301 2 17 9 29 21s23.667 18 35 18c2.66699 0 6 -0.333008 10 -1c2.66699 -4 16.334 -15 41.001 -33
c18 -13.333 27 -26 27 -38c0 -6 -1.66699 -12.667 -5 -20z" />
    <glyph glyph-name="quotedbl" unicode="&#x22;" horiz-adv-x="365" 
d="M286 1050c1.33301 -7.33301 0.666992 -16.333 -2 -27c1.33301 -5.33301 -3 -39 -13 -101c2 -5.33301 3 -10.666 3 -15.999c0 -6 -1.5 -14.5 -4.5 -25.5s-4.5 -19.167 -4.5 -24.5c0 -10 4 -19.667 12 -29c2.66699 -5.33301 4 -10.666 4 -15.999
c0 -4.66699 -1.66699 -11 -5 -19s-5 -14 -5 -18c0 -6.66699 2 -13.334 6 -20.001c1.33301 -4.66699 2 -9.33398 2 -14.001c0 -12.667 -4.5 -25 -13.5 -37s-17.833 -18 -26.5 -18c-12.667 0 -23.334 8.66699 -32.001 26c3.33301 22 5 38.333 5 49c0 6 2.66699 17.667 8 35
c2.66699 8 -0.666016 15.667 -9.99902 23c0 13.333 1.83301 24.5 5.5 33.5s5.5 14.833 5.5 17.5c0 6 -3.33301 14.667 -10 26c1.33301 5.33301 2 10 2 14c0 5.33301 -1.33301 10.833 -4 16.5s-4 9.83398 -4 12.501c0 4.66699 2 10.667 6 18c0 11.333 -4.33301 18.333 -13 21
c-12 2.66699 -19.833 6.66699 -23.5 12s-5.5 10.666 -5.5 15.999c0 4 7.66699 18 23 42c19.333 17.333 43.333 26 72 26c8 0 13.333 -2.83301 16 -8.5s4.66699 -10.5 6 -14.5zM118.001 1050c0.666992 -7.33301 -0.00195312 -16.333 -2.00195 -27
c0.666992 -5.33301 -3.66602 -39 -12.999 -101c1.33301 -5.33301 2 -10.666 2 -15.999c0 -6 -1.5 -14.5 -4.5 -25.5s-4.5 -19.167 -4.5 -24.5c0 -10 4.33301 -19.667 13 -29c2.66699 -5.33301 4 -10.666 4 -15.999c0 -4.66699 -1.83301 -11 -5.5 -19s-5.5 -14 -5.5 -18
c0 -6.66699 2.33301 -13.334 7 -20.001c1.33301 -4.66699 2 -9.33398 2 -14.001c0 -12.667 -4.5 -25 -13.5 -37s-17.833 -18 -26.5 -18c-13.333 0 -24 8.66699 -32 26c3.33301 22 5 38.333 5 49c0 6 2.66699 17.667 8 35c2.66699 8 -0.666016 15.667 -9.99902 23
c0 13.333 1.83301 24.5 5.5 33.5s5.5 14.833 5.5 17.5c0 6 -3.33301 14.667 -10 26c1.33301 5.33301 2 10 2 14c0 5.33301 -1.5 10.833 -4.5 16.5s-4.5 9.83398 -4.5 12.501c0 4.66699 2.33301 10.667 7 18c0 11.333 -4.66699 18.333 -14 21
c-12 2.66699 -19.667 6.66699 -23 12s-5 10.666 -5 15.999c0 4 7.66699 18 23 42c19.333 17.333 43.333 26 72 26c8 0 13.167 -2.83301 15.5 -8.5s4.5 -10.5 6.5 -14.5z" />
    <glyph glyph-name="numbersign" unicode="#" horiz-adv-x="775" 
d="M746 658c-0.666992 -9.33301 -5.66602 -15.6797 -14.999 -19.0127c-49.333 4.66699 -101 10 -155 16c-9.33301 -21.333 -18.333 -40.666 -27 -57.999l4 -5c-6 -5.33301 -9.66699 -10 -11 -14c-6.66699 -24 -19.667 -58.333 -39 -103c40.667 -2 57 -3 49 -3
c18 0 35 1.66699 51 5l-2 -1h5l16 -1c2.66699 2.66699 16 6.33398 40 11.001c6 0.666992 18 -9.66602 36 -30.999c1.33301 0.666992 6 -4.33301 14 -15c-0.666992 -9.33301 -5.66699 -15.666 -15 -18.999c-49.333 4 -102 9.33301 -158 16l-4 -5c-10.667 4 -26 5.66699 -46 5
c-6.66699 -14 -14.667 -36 -24 -66c-12 -12 -19.667 -28.667 -23 -50c-2.66699 -18.667 -5 -37 -7 -55c-2.66699 -10 -8.33398 -18.667 -17.001 -26c-9.33301 -24 -19.333 -61 -30 -111c-3.33301 -23.333 -13 -50.666 -29 -81.999c-34.667 -24.667 -59 -37 -73 -37
c-3.33301 0 -6.66602 0.333008 -9.99902 1c-0.666992 4.66699 -1 9.33398 -1 14.001c0 15.333 12.333 38.666 37 69.999s34.334 61.333 29.001 90c14.667 24.667 34 69.334 58 134.001c22.667 60.667 40 99.667 52 117c-19.333 -0.666992 -35 0.666016 -47 3.99902
c-5.33301 0.666992 -19.333 0 -42 -2c-8.66699 4 -17 6 -25 6c-6.66699 0 -20 -3 -40 -9c-16 -4.66699 -30 -4.66699 -42 0c-6 -14 -13.333 -35.333 -22 -64c-12 -12 -19.667 -28.667 -23 -50l-8 -55c-2.66699 -10 -8 -18.667 -16 -26c-9.33301 -24 -19.333 -61 -30 -111
c-3.33301 -23.333 -13.333 -50.666 -30 -81.999c-34.667 -24.667 -59 -37 -73 -37c-3.33301 0 -6.33301 0.333008 -9 1c-1.33301 4.66699 -2 9.33398 -2 14.001c0 15.333 12.5 38.666 37.5 69.999s34.5 61.333 28.5 90c17.333 28.667 36 69 56 121
c23.333 63.333 39.666 104.333 48.999 123l5 6c-16 -1.33301 -29.667 -3.66602 -41 -6.99902s-25.333 -6 -42 -8l-21 6c-20.667 14 -32.334 32.333 -35.001 55c10.667 6.66699 22 10 34 10s21 -2 27 -6s15.333 -6 28 -6c16 0 31.333 4.33301 46 13
c9.33301 -2 18.666 -3.66699 27.999 -5l12 36c4 10.667 9.33301 21.334 16 32.001l-3 19l32 76c-5.33301 1.33301 -10.666 3.33301 -15.999 6c-15.333 -0.666992 -39.333 -4 -72 -10c-11.333 -3.33301 -25.333 -5.66602 -42 -6.99902l-21 5
c-20.667 14 -32.334 32.333 -35.001 55c10.667 7.33301 22 11 34 11s21 -2.16699 27 -6.5s15.333 -6.5 28 -6.5c16 0 31.333 4.33301 46 13c20.667 -4 42.667 -7 66 -9c0.666992 2 15 42 43 120c0 8 8.33301 43.333 25 106c7.33301 3.33301 17 12 29 26
c8.66699 10 20 16.333 34 19l1 3h4c5.33301 0.666992 10.333 2.33398 15 5.00098c8 -4.66699 12 -11.667 12 -21l-48 -84c-18 -32.667 -27.667 -63 -29 -91l-38 -86c33.333 -0.666992 85 -5 155 -13l17 9l10 -1c2 6.66699 17.333 49.334 46 128.001
c-0.666992 8 7.33301 43.333 24 106c8 3.33301 17.667 12 29 26c8.66699 10 20.334 16.333 35.001 19l1 3h3c6 0.666992 11 2.33398 15 5.00098c8.66699 -4.66699 13 -11.667 13 -21l-48 -84c-18 -32.667 -28 -63 -30 -91l-40 -93c15.333 0 30.333 1.33301 45 4h-2l5 -1h16
c2.66699 2.66699 16 6 40 10c6 0.666992 18 -9.33301 36 -30c1.33301 0.666992 6 -4.66602 14 -15.999zM533.001 655.986c-22 -2 -53.666 -1.33301 -94.999 2c-5.33301 1.33301 -19.333 1 -42 -1c-8.66699 4 -17 6 -25 6c-7.33301 0 -16 -1.66699 -26 -5l-28 -61l3 -5
c-5.33301 -5.33301 -9 -10 -11 -14c-6 -22 -17.333 -53.667 -34 -95c41.333 -0.666992 105.666 -5.33398 192.999 -14.001c4 12 10.333 30 19 54c4 10.667 9 21.334 15 32.001l-3 19c8 18 19.333 45.333 34 82z" />
    <glyph glyph-name="dollar" unicode="$" horiz-adv-x="600" 
d="M586 315c-2.66699 -9.33301 -6.83594 -21.502 -12.5029 -36.502s-13.167 -36.5 -22.5 -64.5c-4 -1.33301 -14.667 -13.333 -32 -36c-55.333 -44.667 -83.666 -67.667 -84.999 -69c-32.667 -23.333 -65 -38.333 -97 -45c-9.33301 -12 -13.666 -30.667 -12.999 -56
c0.666992 -33.333 0 -53.333 -2 -60c-7.33301 -4.66699 -21 -7.66699 -41 -9c-6.66699 7.33301 -10 17.333 -10 30c0 5.33301 0.666992 13 2 23s2 17.333 2 22c0 16.667 -6 28.334 -18 35.001c-46 10 -91 23.333 -135 40c-4 11.333 -14.333 19 -31 23
c-24 6 -37.667 10 -41 12c-10 6.66699 -26.667 25.334 -50 56.001l12 39c5.33301 16 14 24.667 26 26c24.667 -47.333 87 -94.333 187 -141c10.667 -2 26 3 46 15c2.66699 3.33301 5.66699 10 9 20c4.66699 101.333 4.33398 194.666 -0.999023 279.999
c-12.667 30.667 -38 47.334 -76 50.001c-8.66699 6.66699 -27 13 -55 19c-25.333 5.33301 -42.666 13.666 -51.999 24.999c-16.667 8 -21.667 36.667 -15 86c0.666992 8 6.66699 16.333 18 25s17 18 17 28c22.667 45.333 45 73.666 67 84.999c17.333 0 35 6 53 18l45 32
c2.66699 4.66699 2.66699 29.334 0 74.001c4.66699 4.66699 10 9.66699 16 15s13.333 6.33301 22 3l3 -65c8.66699 -20 33 -30.333 73 -31c44 -0.666992 71.667 -6.66699 83 -18c3.33301 -6.66699 5 -13 5 -19c0 -16 -14.333 -28.667 -43 -38
c-5.33301 -1.33301 -11 0.666992 -17 6s-10.333 8.33301 -13 9c-4.66699 -0.666992 -13.5 0 -26.5 2s-22.833 3 -29.5 3c-20.667 0 -31.334 -8.33301 -32.001 -25v-100c3.33301 -41.333 19.666 -67 48.999 -77c6 1.33301 11.667 2 17 2c11.333 0 24.333 -3 39 -9
c18 -7.33301 30.333 -11.666 37 -12.999c28.667 -11.333 49.334 -21 62.001 -29c22 -13.333 37 -29.333 45 -48c-1.33301 -5.33301 -2 -10.333 -2 -15c0 -10 4.5 -22.5 13.5 -37.5s13.5 -26.5 13.5 -34.5c0 -8.66699 -3.33301 -17.667 -10 -27zM284.998 643.998
c0 4.66699 -1.49805 11.832 -4.49805 21.499s-4.5 17.5 -4.5 23.5c0 4.66699 0.666992 9.33398 2 14.001c-2.66699 11.333 -8.33398 17 -17.001 17c-5.33301 0 -13 -2.33301 -23 -7s-16.333 -7.33398 -19 -8.00098c-2.66699 -6 -14.334 -20 -35.001 -42
c-14.667 -15.333 -20.334 -31.666 -17.001 -48.999c38.667 -33.333 73 -49.333 103 -48c5.33301 4.66699 8.33301 12.667 9 24v29c0.666992 2 1.83398 5.83301 3.50098 11.5s2.5 10.167 2.5 13.5zM485 299.996c2 5.33301 3 11 3 17c0 14 -7.66699 30.333 -23 49
c-20.667 24.667 -32.334 39.667 -35.001 45c-20 4.66699 -52.667 7.33398 -98 8.00098c-2 -10.667 -7 -25.334 -15 -44.001c-5.33301 -21.333 -3.33301 -33 6 -35c4.66699 -54.667 3 -89 -5 -103c6 -10.667 9.33301 -27.667 10 -51v-52c5.33301 -18 16 -24.667 32 -20
c88.667 54.667 130.334 116.667 125.001 186z" />
    <glyph glyph-name="percent" unicode="%" horiz-adv-x="950" 
d="M516 680c-6 -22.667 -22.999 -54.6689 -50.999 -96.002c-5.33301 -7.33301 -14.666 -12.666 -27.999 -15.999c0 -10 -1 -15.333 -3 -16c-4 -2 -10 -5.66699 -18 -11c-4 -4 -6.66699 -8.66699 -8 -14c-28 -16 -56.667 -34.667 -86 -56
c-10 -1.33301 -30.667 -6.66602 -62 -15.999c-24.667 -8 -45 -11 -61 -9c-26.667 2.66699 -48 8 -64 16c-5.33301 1.33301 -13 3 -23 5c-2.66699 9.33301 -11.334 14.333 -26.001 15h-1c-7.33301 4 -13 11.333 -17 22c-4.66699 13.333 -9.33398 22.333 -14.001 27
c-13.333 52.667 -20 85 -20 97c0 17.333 3.66699 34 11 50l69 90c28 34 56.333 58.333 85 73c15.333 16.667 63.333 33.667 144 51c4.66699 -3.33301 12.667 -4.33301 24 -3c39.333 0 69.333 -14.667 90 -44c38 -18.667 57.667 -73.667 59 -165zM760.001 868.998
l-59.999 -76.002c-23.333 -29.333 -38 -58 -44 -86c-22.667 -36.667 -59.667 -93.667 -111 -171l2 -6c-6 -4 -10.333 -7.66699 -13 -11c-10 -24 -29 -57 -57 -99c-13.333 -20 -30 -51.333 -50 -94c-14.667 -10 -25 -25.333 -31 -46l-16 -53
c-4.66699 -9.33301 -11.667 -17 -21 -23c-12.667 -22.667 -28 -57.667 -46 -105c-7.33301 -22 -21.333 -47.667 -42 -77c-34.667 -16.667 -58 -25 -70 -25c-6.66699 0 -12.667 1 -18 3c-1.33301 20.667 15 46.667 49 78c29.333 26.667 43.333 54.667 42 84
c22 26 46.667 62.667 74 110c33.333 59.333 56 97.333 68 114c9.33301 8.66699 27.666 37.334 54.999 86.001c6 10.667 13 20.667 21 30v19l128 230c0.666992 8 14 41.667 40 101c8.66699 2 19.667 9 33 21c10.667 8.66699 23 13 37 13l2 3h3c6 -0.666992 11.333 0 16 2
c7.33301 -5.33301 10.333 -12.666 9 -21.999zM915.002 249.996c-1.33301 -7.33301 -3.99805 -17.666 -7.99805 -30.999c-2 -9.33301 -6.33301 -16.666 -13 -21.999c-15.333 -43.333 -59.333 -93.666 -132 -150.999c-7.33301 -2 -20 -8.33301 -38 -19
c-12.667 -7.33301 -25.334 -11 -38.001 -11c-16 -12 -37 -18 -63 -18c-29.333 0 -58 6.66699 -86 20c-14 3.33301 -27.667 12.333 -41 27c-11.333 12.667 -22.333 25.667 -33 39c-1.33301 7.33301 -6 21.666 -14 42.999c-6.66699 16 -10 29.333 -10 40
c0 9.33301 1.66699 18.666 5 27.999c-2.66699 20 4.33301 39.667 21 59s27 36 31 50l30 33c5.33301 6 16.333 13.667 33 23c22 23.333 42 38 60 44c54.667 26 91 38.333 109 37c20 4 40.667 3 62 -3c12 -4.66699 30.333 -10.334 55 -17.001
c51.333 -48 74.666 -105 69.999 -171zM443.004 629.996c11.333 32 7.66602 72.666 -11.001 121.999c-2.66699 6 -18.667 20 -48 42c-4 2.66699 -8.33301 8.66699 -13 18l-8 -1l-4 3c-5.33301 4.66699 -11.333 7 -18 7c-12 10.667 -28.333 16 -49 16
c-27.333 0 -53.666 -7.33301 -78.999 -22c-43.333 -16 -78 -54 -104 -114c-8 -18.667 -5.33301 -47.667 8 -87c2.66699 -28 21 -54 55 -78c12 -9.33301 33.667 -19 65 -29c46.667 -15.333 84.667 -9 114 19c33.333 14.667 64 49.334 92 104.001zM843.004 297.995
c-12.667 14 -33.667 32.999 -63 56.999c-7.33301 10 -19 16.667 -35 20c-19.333 4 -31.333 7.66699 -36 11c-18.667 8 -41.667 5.33301 -69 -8c-8 -4 -19.667 -5 -35 -3c-2 -5.33301 -6.66699 -12.333 -14 -21l-9 -5c-8.66699 -4 -15 -9.66699 -19 -17
c-36 -27.333 -54 -64.666 -54 -111.999c0 -14 1.66699 -28 5 -42c3.33301 -25.333 28 -57.333 74 -96c4.66699 0 8.33398 -1.66699 11.001 -5c9.33301 -10.667 18.666 -16 27.999 -16c43.333 -12.667 80.333 -9.33398 111 9.99902c23.333 2.66699 44 15.667 62 39
c8 12.667 20 30.334 36 53.001c14.667 18.667 22 40.667 22 66c0 20.667 -5 43.667 -15 69z" />
    <glyph glyph-name="ampersand" unicode="&#x26;" horiz-adv-x="920" 
d="M906 439c2 -8.66699 2.99805 -17 2.99805 -25c0 -45.333 -34 -88 -102 -128c-0.666992 -0.666992 -15.667 -5 -45 -13c-17.333 -5.33301 -29.666 -13 -36.999 -23c-1.33301 -46 -13 -73.667 -35 -83c-18.667 -42 -53.334 -76.667 -104.001 -104l-140 -58
c-24 -10.667 -100.667 -23 -230 -37c-10.667 -1.33301 -24.667 2.5 -42 11.5s-31.666 13.5 -42.999 13.5c-4.66699 0 -9.66699 -0.666992 -15 -2c-13.333 12 -34.333 28.667 -63 50c1.33301 6 -1 11.833 -7 17.5s-9.33301 9.83398 -10 12.501c2 5.33301 3 10.666 3 15.999
c0 10 -5.16699 21.667 -15.5 35s-15.5 23 -15.5 29c0 5.33301 2.33301 10.666 7 15.999c-16 8.66699 -21 33.334 -15 74.001c13.333 25.333 35.666 61 66.999 107c38 26 71.333 59.333 100 100c2.66699 4 12.667 11 30 21c13.333 8 20 17.667 20 29
c-6 14 -20.667 27.667 -44 41s-38 27 -44 41c-8.66699 14 -11 48.333 -7 103c52.667 64 141 121.667 265 173c22.667 0 54 5 94 15c12.667 2 25.334 -3.33301 38.001 -16c16 -16.667 26 -26 30 -28c1.33301 -8 2 -21 2 -39c-0.666992 -0.666992 -20 0.333008 -58 3
c-14 -0.666992 -34.333 0 -61 2c-30.667 2 -51.667 3 -63 3c-48 0 -82 -11 -102 -33l-62 -44c-23.333 -20 -34 -42.667 -32 -68c17.333 -24 29.333 -39.333 36 -46c16 -16.667 33.333 -26.334 52 -29.001c39.333 -16.667 89 -25 149 -25c43.333 0 84.333 4.33301 123 13
c14 -2 19.667 -12.667 17 -32l-40 -26c-16.667 -10 -31 -15 -43 -15c-8 0 -15.667 2 -23 6c-17.333 2.66699 -34.333 4 -51 4c-95.333 0 -178.333 -43 -249 -129c-11.333 -2 -17.333 -6.33301 -18 -13c2 -4 0.833008 -6 -3.5 -6s-6.83301 -0.666992 -7.5 -2
c-22 -46 -33 -87 -33 -123c0 -14 1.33301 -28 4 -42l62 -96c27.333 -34 59.666 -53.667 96.999 -59v-4c8.66699 -4 21.834 -5.83301 39.501 -5.5s30.167 -0.5 37.5 -2.5c14 -4 27.333 -6 40 -6c21.333 0 47 6.66699 77 20c35.333 16 61 25.333 77 28
c21.333 16 52.666 43.667 93.999 83c0.666992 2 5 11.333 13 28c5.33301 11.333 8 21.666 8 30.999c-1.33301 28.667 -11.333 47 -30 55c-19.333 27.333 -58.666 55.666 -117.999 84.999c-30 15.333 -65.667 11.333 -107 -12c-12.667 -14.667 -25 -45 -37 -91
c-8 -2 -15.667 -1 -23 3c-11.333 6 -17.333 9 -18 9c-12 19.333 -11.333 37 2 53c74 62.667 148.333 95 223 97c0.666992 -4 4 -5.83301 10 -5.5s9.66699 -0.5 11 -2.5c16 -1.33301 37 -14 63 -38c16.667 0 36.834 -7.33301 60.501 -22s43.167 -22 58.5 -22
c8.66699 0 18 1.66699 28 5c46.667 30.667 70 57.334 70 80.001c3.33301 7.33301 5 14 5 20c0 6.66699 -3.33301 15.334 -10 26.001s-10 19.334 -10 26.001c0 5.33301 1.33301 11 4 17c3.33301 -1.33301 8 -0.333008 14 3c3.33301 4 7.33301 4 12 0
c5.33301 -4.66699 10 -6.66699 14 -6c5.33301 -5.33301 14 -12.5 26 -21.5s21 -16.5 27 -22.5z" />
    <glyph glyph-name="quotesingle" unicode="'" horiz-adv-x="200" 
d="M118 1050c0.666992 -7.33301 -0.00195312 -16.333 -2.00195 -27c0.666992 -5.33301 -3.66602 -39 -12.999 -101c1.33301 -5.33301 2 -10.666 2 -15.999c0 -6 -1.5 -14.5 -4.5 -25.5s-4.5 -19.167 -4.5 -24.5c0 -10 4.33301 -19.667 13 -29
c2.66699 -5.33301 4 -10.666 4 -15.999c0 -4.66699 -1.83301 -11 -5.5 -19s-5.5 -14 -5.5 -18c0 -6.66699 2.33301 -13.334 7 -20.001c1.33301 -4.66699 2 -9.33398 2 -14.001c0 -12.667 -4.5 -25 -13.5 -37s-17.833 -18 -26.5 -18c-13.333 0 -24 8.66699 -32 26
c3.33301 22 5 38.333 5 49c0 6 2.66699 17.667 8 35c2.66699 8 -0.666016 15.667 -9.99902 23c0 13.333 1.83301 24.5 5.5 33.5s5.5 14.833 5.5 17.5c0 6 -3.33301 14.667 -10 26c1.33301 5.33301 2 10 2 14c0 5.33301 -1.5 10.833 -4.5 16.5s-4.5 9.83398 -4.5 12.501
c0 4.66699 2.33301 10.667 7 18c0 11.333 -4.66699 18.333 -14 21c-12 2.66699 -19.667 6.66699 -23 12s-5 10.666 -5 15.999c0 4 7.66699 18 23 42c19.333 17.333 43.333 26 72 26c8 0 13.167 -2.83301 15.5 -8.5s4.5 -10.5 6.5 -14.5z" />
    <glyph glyph-name="parenleft" unicode="(" horiz-adv-x="367" 
d="M363 1006c9.33301 -18 5.66602 -39.334 -11.001 -64.001c-5.33301 -12 -18.666 -20 -39.999 -24c-13.333 -2 -30.666 -9 -51.999 -21c-14.667 -14.667 -44 -46.667 -88 -96c-50.667 -58 -79.334 -130.333 -86.001 -217c-4 -16 -5.83301 -40.833 -5.5 -74.5
s-1.5 -58.834 -5.5 -75.501c6.66699 -29.333 15 -74 25 -134c6.66699 -26 21.334 -62 44.001 -108v-1v-4c0 -4 0.666992 -7 2 -9c-1.33301 -26 11 -54.333 37 -85c3.33301 2 5 2.66699 5 2v-3c0 -6 2 -9.66699 6 -11c34 -64 78.333 -102 133 -114
c13.333 -1.33301 23.333 -9.66602 30 -24.999c-4.66699 -18 -9.66699 -45 -15 -81c-2.66699 -7.33301 -8 -14 -16 -20c-34 2.66699 -74 21.667 -120 57c-10 10.667 -25.333 26 -46 46c-10 10 -21.833 27.833 -35.5 53.5s-25.834 43.5 -36.501 53.5
c-1.33301 12 -7.5 28 -18.5 48s-16.5 37.333 -16.5 52c-2 14 -12 48.667 -30 104c-14.667 45.333 -20.667 83 -18 113c-12 78 -4.66699 152.333 22 223c9.33301 24.667 24.333 61.334 45 110.001c5.33301 25.333 17 53 35 83c28 46 43.333 72 46 78
c11.333 8 38.666 33.667 81.999 77c5.33301 10 14 20 26 30l32 24l24.5 17c8.33301 6 16.833 6.66699 25.5 2c2.66699 -2.66699 6.66699 -4 12 -4h3c2.66699 0 4.33398 -0.666992 5.00098 -2z" />
    <glyph glyph-name="parenright" unicode=")" horiz-adv-x="379" 
d="M373 379c-0.666992 -20 -4.99609 -48.9971 -12.9961 -86.9971c-6.66699 -46 -28 -97.667 -64 -155c2.66699 -9.33301 2.16699 -16.166 -1.5 -20.499s-8.5 -10.5 -14.5 -18.5s-15 -27.667 -27 -59c-9.33301 -24 -23.666 -40 -42.999 -48c2 -4.66699 2.66699 -7 2 -7h-3
c-6.66699 0 -10.334 -2.33301 -11.001 -7c-12 -11.333 -28 -30.333 -48 -57c-7.33301 -1.33301 -14.666 -7.33301 -21.999 -18l-4 -6c-4 -5.33301 -10.667 -9 -20 -11c2 -4.66699 2.66699 -7 2 -7h-3c-6.66699 0 -10.334 -2.66699 -11.001 -8
c-8.66699 -17.333 -31 -28.333 -67 -33c-1.33301 2 -3.66602 4.66699 -6.99902 8l-4 5c-8.66699 10 -10.667 20 -6 30c1.33301 21.333 17.333 38 48 50c14 1.33301 28.667 8.66602 44 21.999c8 7.33301 21.333 16 40 26c60.667 62.667 104.667 125 132 187
c0 6.66699 2.33301 16 7 28s7 21.333 7 28c9.33301 23.333 13.666 58.666 12.999 105.999c-0.666992 48.667 -1 67.667 -1 57c0 21.333 1 38.666 3 51.999c-6.66699 47.333 -14.334 83.333 -23.001 108c2 7.33301 1 15 -3 23s-5.66699 14.667 -5 20
c-6 14.667 -15.667 36 -29 64c0 11.333 -5.33301 23.666 -16 36.999c-9.33301 11.333 -13 22.666 -11 33.999c-7.33301 7.33301 -25.333 36.666 -54 87.999c-20.667 36.667 -46.334 59 -77.001 67c-16 6 -32.667 21.667 -50 47c0 -1.33301 0 11.667 0 39
c-0.666992 15.333 2.33301 26 9 32c0 5.33301 1.66699 8.83301 5 10.5s8 4.16699 14 7.5c88 -38.667 152.333 -93 193 -163c3.33301 -33.333 16.333 -56.333 39 -69c9.33301 -15.333 18.666 -40.666 27.999 -75.999s19 -61 29 -77c-4 -14.667 -2.33301 -30 5 -46
s9.66602 -30 6.99902 -42c6 -17.333 9 -44.333 9 -81v-43c0 -15.333 0.666992 -27.666 2 -36.999z" />
    <glyph glyph-name="asterisk" unicode="*" horiz-adv-x="403" 
d="M379 902c0 -2 -0.334961 -4.83301 -1.00195 -8.5s-1 -6.5 -1 -8.5c-23.333 -2 -46.666 -4.33301 -69.999 -7c-25.333 -6 -41 -21.333 -47 -46c5.33301 -6 10.333 -12.333 15 -19c8.66699 -12.667 15.334 -21.334 20.001 -26.001c8 -8.66699 17.333 -14 28 -16l2 -3
c2.66699 -3.33301 5.33398 -8.66602 8.00098 -15.999c-0.666992 -8 -8.33398 -18 -23.001 -30c-20.667 -15.333 -31.667 -24 -33 -26c-10.667 0 -18.334 9.33301 -23.001 28c-5.33301 22 -13 36.333 -23 43c-2.66699 0.666992 -4.33398 2 -5.00098 4
c-6 14.667 -15 22 -27 22c-14.667 -8.66699 -32.667 -33 -54 -73c-4 -8 -8 -14.667 -12 -20c-12.667 -4 -25.167 -1 -37.5 9l-35.5 29c0 5.33301 2.33301 10 7 14c6 0 10.667 3.66699 14 11l3 7c8.66699 0.666992 14 4 16 10c3.33301 3.33301 11.666 15.666 24.999 36.999
c2.66699 4.66699 6 9.33398 10 14.001c0 12.667 -6 20.334 -18 23.001c-2 0 -5 2.33301 -9 7c-6.66699 0 -12.667 1 -18 3c-22.667 7.33301 -39 8.66602 -49 3.99902c-8.66699 2 -19 6 -31 12c3.33301 15.333 6.33301 31 9 47c4 21.333 11 34 21 38
c28.667 -29.333 57 -44 85 -44c8.66699 0 17.334 1.33301 26.001 4c12 20.667 14 43 6 67c-8 23.333 -11.667 39.333 -11 48c14 10 34.333 17 61 21c6.66699 2.66699 11.834 2.33398 15.501 -0.999023s9.83398 -7.33301 18.501 -12c0.666992 -16 -5.33301 -29 -18 -39
c1.33301 -7.33301 1.66602 -14.666 0.999023 -21.999c-0.666992 -32 5.33301 -51.333 18 -58c20.667 -2 41.667 4.33301 63 19c8 6 22.333 12 43 18c10.667 -6.66699 19.334 -25.334 26.001 -56.001c3.33301 -4.66699 5 -7.33398 5 -8.00098z" />
    <glyph glyph-name="plus" unicode="+" horiz-adv-x="625" 
d="M540 480c0 -40 -5.66797 -64.001 -17.001 -72.001c-24 -4 -51 -3.66699 -81 1l-91 4c0 -14.667 1.33301 -45 4 -91c4.66699 -4 6.33398 -16 5.00098 -36c-2.66699 -29.333 -4 -44.333 -4 -45c-8 -12 -32 -17.667 -72 -17c0 28.667 3.66699 47.334 11 56.001
c0 4.66699 -0.666992 24.334 -2 59.001c-0.666992 27.333 -0.666992 52 0 74l-33 1c-10 -6.66699 -21.667 -10 -35 -10c-10 0 -22.5 2 -37.5 6s-24.167 6 -27.5 6s-5.66602 -0.333008 -6.99902 -1c-20.667 1.33301 -38.334 -1 -53.001 -7c-10 15.333 -15 29 -15 41
c0 14 7 23.333 21 28c13.333 -6 32.833 -8 58.5 -6s44.5 1 56.5 -3c6 0 19.333 -1.33301 40 -4c16.667 -2 29.667 -2 39 0c2 9.33301 2 22.333 0 39c-2.66699 20.667 -4 33.667 -4 39c-4.66699 12 -5.83398 31 -3.50098 57s0.5 45.333 -5.5 58c4.66699 14.667 14 22 28 22
c12 0 25.667 -5 41 -15c-6.66699 -14.667 -9 -32.334 -7 -53.001c-0.666992 -2 -1 -4.33301 -1 -7c0 -3.33301 2 -12.5 6 -27.5s6 -27.5 6 -37.5c0 -13.333 -3.33301 -25 -10 -35v-33c22.667 0.666992 47.334 0.666992 74.001 0c35.333 -1.33301 55.333 -2 60 -2
c8 7.33301 26.667 11 56 11z" />
    <glyph glyph-name="comma" unicode="," horiz-adv-x="170" 
d="M167 48c0 -2.66699 -0.667969 -37.333 -2.00098 -104c-6 -27.333 -21.667 -68.333 -47 -123c-0.666992 -4.66699 -8 -12 -22 -22l-16 -13l-11 -8c-6.66699 0 -11.667 -1 -15 -3c-28.667 -3.33301 -45 -2.66602 -49 2.00098c-1.33301 10 2 18.333 10 25
c8 -2 16 3.33301 24 16l1 1c50.667 22.667 74.334 74 71.001 154c-0.666992 2 -10.667 19.333 -30 52l-44 38c-17.333 14.667 -21 29.667 -11 45c6.66699 9.33301 17.667 21 33 35c15.333 12 29 17 41 15c10 -4 22.333 -12 37 -24c17.333 -22.667 27.333 -51.334 30 -86.001
z" />
    <glyph glyph-name="hyphen" unicode="-" horiz-adv-x="500" 
d="M417 484c0 -34 -10.6689 -59.999 -32.002 -77.999c-12.667 -1.33301 -29.334 -0.333008 -50.001 3c-18 1.33301 -63 3 -135 5c-10 -8 -20.333 -12 -31 -12c-6.66699 0 -16.667 2.16699 -30 6.5s-23.666 6.5 -30.999 6.5c-9.33301 0 -18.333 -2.33301 -27 -7
c-8 15.333 -12 29 -12 41c0 14 5.66699 23.333 17 28c10.667 -6 24.5 -7.83301 41.5 -5.5s30.833 1.16602 41.5 -3.50098l38 -5c14.667 -2 26.334 -0.333008 35.001 5c24.667 0.666992 61.334 2 110.001 4c17.333 1.33301 39 5.33301 65 12z" />
    <glyph glyph-name="hyphen" unicode="&#x2010;" horiz-adv-x="500" 
d="M417 484c0 -34 -10.6689 -59.999 -32.002 -77.999c-12.667 -1.33301 -29.334 -0.333008 -50.001 3c-18 1.33301 -63 3 -135 5c-10 -8 -20.333 -12 -31 -12c-6.66699 0 -16.667 2.16699 -30 6.5s-23.666 6.5 -30.999 6.5c-9.33301 0 -18.333 -2.33301 -27 -7
c-8 15.333 -12 29 -12 41c0 14 5.66699 23.333 17 28c10.667 -6 24.5 -7.83301 41.5 -5.5s30.833 1.16602 41.5 -3.50098l38 -5c14.667 -2 26.334 -0.333008 35.001 5c24.667 0.666992 61.334 2 110.001 4c17.333 1.33301 39 5.33301 65 12z" />
    <glyph glyph-name="period" unicode="." horiz-adv-x="200" 
d="M180 91c1.33301 -7.33301 1 -13.332 -1 -17.999c-16 -36 -39.667 -54.667 -71 -56c-2 3.33301 -6.66699 5 -14 5c-4 0 -6 0.666992 -6 2c-3.33301 6.66699 -17.666 18.667 -42.999 36c-19.333 12.667 -26.666 26.667 -21.999 42c11.333 13.333 30 30 56 50
c17.333 1.33301 34.666 -3 51.999 -13l45 -28c1.33301 -4.66699 2.66602 -11.334 3.99902 -20.001z" />
    <glyph glyph-name="slash" unicode="/" horiz-adv-x="600" 
d="M694 1133c-6.66699 -40 -21.9951 -75.666 -45.9951 -106.999c-8 -23.333 -17.333 -43.666 -28 -60.999c0 -8.66699 -3.33301 -18.334 -10 -29.001c-7.33301 -12.667 -11.666 -21.667 -12.999 -27c-23.333 -35.333 -50 -90 -80 -164c-18.667 -30 -42.334 -78 -71.001 -144
l-33 -58l-32 -41c-12 -16 -18 -32.333 -18 -49c-5.33301 -22.667 -18.333 -50 -39 -82c-23.333 -34.667 -37.666 -60.667 -42.999 -78c-7.33301 -6 -14.5 -17.833 -21.5 -35.5s-14.167 -29.5 -21.5 -35.5c-0.666992 -19.333 -8.33398 -40.666 -23.001 -63.999
c-17.333 -27.333 -27.333 -47.666 -30 -60.999l-95 -186c-9.33301 -7.33301 -19.333 -21.333 -30 -42c-14.667 -37.333 -23.667 -59.333 -27 -66c-11.333 -23.333 -24.333 -42.333 -39 -57c-4.66699 0.666992 -10.334 0 -17.001 -2
c-4 -0.666992 -11.667 -4.33398 -23 -11.001c-8 -4.66699 -16.667 -5.66699 -26 -3c-18.667 12 -26 27 -22 45c13.333 20 34.666 50.333 63.999 91c24.667 32.667 37 57.334 37 74.001l23.5 43l23.5 42c13.333 16.667 28.833 44 46.5 82s32.5 65 44.5 81
c20.667 17.333 39.334 51.666 56.001 102.999c6 6 13.333 19.667 22 41c8 19.333 17.333 32 28 38c21.333 85.333 49.666 142.333 84.999 171c5.33301 2.66699 8.5 11.667 9.5 27s5.16699 24.666 12.5 27.999c8.66699 39.333 24.667 71.333 48 96
c6 21.333 18.333 51.666 37 90.999c12 18.667 26 50 42 94c3.33301 18 12.166 42.167 26.499 72.5s23.166 54.5 26.499 72.5c12.667 25.333 20.667 45.333 24 60c4 12.667 13.667 30.667 29 54c11.333 0 23.666 3.33301 36.999 10c19.333 10 30 15.333 32 16
c16 -1.33301 27.333 -11 34 -29z" />
    <glyph glyph-name="zero" unicode="0" horiz-adv-x="800" 
d="M772 384l-26.9971 -36.9971c-10.667 -14.667 -16 -28.334 -16 -41.001c0 -10 2.66699 -20.333 8 -31c-4.66699 -0.666992 -6.83398 -4.33398 -6.50098 -11.001s-0.166992 -10.667 -1.5 -12c-4.66699 -5.33301 -11.667 -22.666 -21 -51.999
c-6.66699 -22.667 -18.334 -35.667 -35.001 -39c-4.66699 -22 -22 -40 -52 -54c-33.333 -14.667 -53.333 -29.334 -60 -44.001c-11.333 -3.33301 -31 -14 -59 -32c-23.333 -14.667 -45 -23 -65 -25c-4 1.33301 -8.33301 2 -13 2c-9.33301 0 -22.333 -2.33301 -39 -7
s-29 -7 -37 -7c-11.333 0 -21.666 3 -30.999 9c-54 10.667 -92.333 20.667 -115 30c-38.667 16 -68.334 40.333 -89.001 73c-3.33301 13.333 -16 29 -38 47s-33 36.667 -33 56c-28 51.333 -42 95.666 -42 132.999c0 18.667 3 36.667 9 54
c3.33301 0.666992 5.83301 4.16699 7.5 10.5s4.16699 9.83301 7.5 10.5c-22 20.667 -24.333 54.334 -7 101.001c13.333 5.33301 22.333 23.666 27 54.999c22.667 38 36.334 60.333 41.001 67c16.667 24 35.334 43 56.001 57c50 64.667 103 101.334 159 110.001
c10.667 2 25 10 43 24c16 13.333 31 20 45 20c6 0 12.667 -1 20 -3c14 8.66699 35.667 10 65 4c15.333 -0.666992 33.166 -8.33398 53.499 -23.001s38.166 -22 53.499 -22c7.33301 0 15 1.33301 23 4l97 -80c8 -9.33301 15.667 -28 23 -56s16.666 -47.333 27.999 -58
c0.666992 -4 6.66699 -32 18 -84c8 -34.667 12 -63.667 12 -87c0 -22 -3 -42.667 -9 -62zM680.003 369.003c-5.33301 17.333 -6.66406 44.001 -3.99707 80.001s1 62.667 -5 80c-3.33301 4.66699 -8.33301 25.667 -15 63c-4.66699 26.667 -17.334 42 -38.001 46
c-2.66699 15.333 -11.667 26.666 -27 33.999c-20.667 10.667 -33.334 18.667 -38.001 24c-2.66699 16 -14.667 29.333 -36 40c-26 13.333 -41.667 23.333 -47 30c-102.667 8.66699 -178 -2.33301 -226 -33c-88.667 -76.667 -136.667 -165 -144 -265
c-8 -24.667 -12 -50 -12 -76c0 -69.333 21 -124.666 63 -165.999c5.33301 -14.667 14.333 -36.334 27 -65.001c15.333 -2 32.666 -8.66699 51.999 -20c28.667 -16 44.667 -24.667 48 -26c2 -6.66699 9 -13.667 21 -21c74.667 -20 129.667 -22.667 165 -8
c6 -0.666992 11.333 -1 16 -1c30 0 58 14.333 84 43c40 44 62.333 67.333 67 70c36.667 69.333 53 126.333 49 171z" />
    <glyph glyph-name="one" unicode="1" horiz-adv-x="250" 
d="M177 763c-5.33301 -10.667 -6.83496 -26.668 -4.50195 -48.001s0.833008 -37 -4.5 -47c-0.666992 -4 -1 -8 -1 -12c0 -6 1.83301 -14.833 5.5 -26.5s5.5 -20.167 5.5 -25.5c0 -10 -4.33301 -19 -13 -27c-1.33301 -13.333 -2 -27.333 -2 -42
c0 -20 2.16699 -48.167 6.5 -84.5s6.5 -63.5 6.5 -81.5c0 -21.333 -2 -41.333 -6 -60c4.66699 -11.333 7 -23.333 7 -36c0 -10 -2 -25 -6 -45s-6 -35 -6 -45c0 -11.333 1.66699 -22.333 5 -33c6.66699 -18 5.66699 -57 -3 -117c-23.333 -22 -54.666 -31.333 -93.999 -28
c-6.66699 8.66699 -10 18.334 -10 29.001c0 6 2 17 6 33c2.66699 14 3.66699 25.667 3 35c-4 45.333 2 91 18 137c-4.66699 11.333 -7 23 -7 35c0 17.333 7.33301 40.666 22 69.999c-11.333 8.66699 -17 24 -17 46v51c-2 10 -5.66699 18 -11 24
c0 8.66699 -0.666992 13.667 -2 15c-2.66699 8 -4 16.667 -4 26s1.83301 23.333 5.5 42s5.5 33.334 5.5 44.001c0 8 -0.666992 15.667 -2 23c11.333 46.667 10 83 -4 109c-4.66699 7.33301 -19.667 11.333 -45 12c-21.333 0.666992 -31.666 8.66699 -30.999 24
c30 15.333 71.333 44.666 124 87.999c12 10 22.333 15 31 15c18 0 27 -18 27 -54c0 -17.333 -1.66699 -32.666 -5 -45.999z" />
    <glyph glyph-name="two" unicode="2" horiz-adv-x="680" 
d="M677 97c-8 -14.667 -15.6729 -29.6631 -23.0059 -44.9961c-11.333 -17.333 -26 -25 -44 -23c-26 -24.667 -51.333 -34.334 -76 -29.001c-22 9.33301 -56.667 14.666 -104 15.999c-71.333 2 -108.666 3.33301 -111.999 4c-14.667 -4 -40 -2 -76 6
c-46 -6 -75.667 -3.33301 -89 8c-17.333 -6.66699 -46 -14.667 -86 -24c-36.667 -4 -59 -2.33301 -67 5c2.66699 11.333 11.834 22.5 27.501 33.5s25.167 20.833 28.5 29.5c34 17.333 51.667 39 53 65c39.333 29.333 68.666 62.666 87.999 99.999c5.33301 6 13 13.667 23 23
c10 15.333 17.667 22.333 23 21c7.33301 17.333 21.333 42 42 74c2.66699 19.333 14.334 45 35.001 77l58 86c22 34.667 33 68 33 100c0 16 -2.33301 32.667 -7 50c-2 13.333 -12.333 28 -31 44s-29 30.667 -31 44c-5.33301 -2 -18 -0.333008 -38 5
c-9.33301 2 -29.333 8.33301 -60 19c-24.667 9.33301 -45 14 -61 14c-16.667 0 -32.334 -4.33301 -47.001 -13c-2.66699 -0.666992 -13 -6.66699 -31 -18c-13.333 -8.66699 -25.333 -12.334 -36 -11.001l-12.5 8.5c-4.33301 3 -5.16602 7.83301 -2.49902 14.5
c5.33301 14 17.333 26.333 36 37l46 26c29.333 21.333 64.333 32 105 32c18 0 34.667 -2.66699 50 -8c4 -6 11.333 -9 22 -9h26c8 -2 13 -7 15 -15c6 1.33301 11.667 2 17 2c22.667 0 45.667 -10 69 -30c32.667 -29.333 52 -45.333 58 -48
c10.667 -19.333 17.667 -51.666 21 -96.999c-9.33301 -8.66699 -16.666 -25.334 -21.999 -50.001s-12.666 -41.334 -21.999 -50.001c-30.667 -52.667 -72.334 -116 -125.001 -190l-132 -185c-1.33301 -6.66699 -6.16602 -16 -14.499 -28s-12.5 -22 -12.5 -30
c0 -5.33301 1.33301 -10.666 4 -15.999c16.667 0 43 -3.33301 79 -10c32.667 -6 59.334 -8.66699 80.001 -8s52.334 0 95.001 -2c12 -1.33301 22 -4 30 -8c3.33301 4.66699 9.33301 6.66699 18 6h22v-3c64 -11.333 108 -6.33301 132 15c6.66699 2.66699 12 1.66699 16 -3z
" />
    <glyph glyph-name="three" unicode="3" horiz-adv-x="575" 
d="M562 459c5.33301 -12 2.66895 -25.3311 -7.99805 -39.998c3.33301 -24 5 -46.667 5 -68c0 -80 -21.333 -134.333 -64 -163c-14 -36.667 -38.333 -75.334 -73 -116.001l-94 -103c-16 -6.66699 -44.667 -24.667 -86 -54c-34.667 -24.667 -65.334 -39.667 -92.001 -45
c-23.333 -31.333 -54.666 -46.666 -93.999 -45.999c-2 4.66699 -9.5 9 -22.5 13s-19.5 9 -19.5 15c0 3.33301 1 7.33301 3 12c34 6.66699 70 19.667 108 39c29.333 2.66699 59.666 13.667 90.999 33l82 53c1.33301 7.33301 11.333 17.333 30 30c10 6.66699 19.667 20 29 40
s18 33.333 26 40l38 57c15.333 22.667 23 45.667 23 69c0 6 -0.333008 12.333 -1 19c16.667 36.667 16.334 76 -0.999023 118c-1.33301 4 -3 19.667 -5 47c-2 18.667 -7.66699 32.667 -17 42c-6 -1.33301 -11.333 -2 -16 -2c-12 0 -24 6 -36 18l-28 30
c-11.333 0 -30.333 1.66699 -57 5s-47 5 -61 5c-30 0 -53.667 -6 -71 -18c-17.333 -14.667 -46.333 -24.334 -87 -29.001c-1.33301 4 -2 7.66699 -2 11c0 12 9 22.833 27 32.5s28.333 20.167 31 31.5c38.667 9.33301 70.334 48.666 95.001 117.999c32 42 53.333 80 64 114
c2 16.667 -6.33301 26 -25 28c-14.667 2 -29.334 3.33301 -44.001 4s-35 4.5 -61 11.5s-45 10.5 -57 10.5c-14.667 0 -28 -3 -40 -9c-4.66699 0.666992 -10.667 -0.333008 -18 -3c-2.66699 -3.33301 -6 -3 -10 1s-7.33301 6 -10 6c6 13.333 20 25 42 35
c32.667 16 51 25.333 55 28l100 -5c14 5.33301 34.333 7.33301 61 6c2 0 8.33301 -1.16699 19 -3.5s17.667 -3.16602 21 -2.49902c5.33301 1.33301 33.333 2 84 2c23.333 0 34.666 -5.33301 33.999 -16c-0.666992 -8.66699 -3.66699 -21 -9 -37
c-12 -27.333 -35.333 -63.333 -70 -108c-36 -46.667 -59.667 -82 -71 -106c13.333 -7.33301 41.333 -15 84 -23c36.667 -6.66699 59 -15.334 67 -26.001c8 2 16.333 0.666992 25 -4s16 -7 22 -7l50 -39c19.333 -16 30.666 -33 33.999 -51z" />
    <glyph glyph-name="four" unicode="4" horiz-adv-x="855" 
d="M856 513c6 -4 7.00195 -9.00098 3.00195 -15.001l-9 -15c-13.333 -3.33301 -27.333 -16.333 -42 -39c-12.667 -19.333 -29 -28 -49 -26c-4 -4.66699 -8 -7 -12 -7c-2.66699 0 -7.33398 1.83301 -14.001 5.5s-12.667 4.83398 -18 3.50098
c-10.667 4.66699 -22.334 7 -35.001 7c-8.66699 0 -24.334 -2 -47.001 -6c-20 -4 -36.667 -5.33301 -50 -4c-20.667 -4.66699 -32.667 -14.334 -36 -29.001c2 -17.333 1 -42 -3 -74c-4 -36.667 -6 -61.667 -6 -75c0 -29.333 5.33301 -53.333 16 -72
c-1.33301 -9.33301 -1 -23.666 1 -42.999c2.66699 -24 4 -39.667 4 -47c0 -32.667 -12.333 -51.667 -37 -57c-30 -14 -55.333 -28 -76 -42c-6 3.33301 -9 14.333 -9 33c4 0 5.83301 2.5 5.5 7.5s0.5 8.16699 2.5 9.5c3.33301 20.667 12 50 26 88
c-3.33301 53.333 -0.333008 132 9 236c1.33301 11.333 -2.33398 21 -11.001 29c-11.333 10.667 -17.666 18.667 -18.999 24c12 0 -24.333 1.66699 -109 5c-44 2 -79.667 -1 -107 -9c-17.333 0.666992 -40.666 6.33398 -69.999 17.001
c-13.333 -2.66699 -32 -8.33398 -56 -17.001c-27.333 8.66699 -62.666 8.66699 -105.999 0c-1.33301 5.33301 -2 10.333 -2 15c0 15.333 10.333 28.666 31 39.999c26 15.333 41 25.666 45 30.999c62 35.333 152 95.333 270 180c2 8 9.83301 18.5 23.5 31.5
s20.5 24.833 20.5 35.5c10 17.333 29.667 37 59 59c22.667 26 40 50 52 72c5.33301 -0.666992 8 0.333008 8 3s3 4.83398 9 6.50098s9 4.16699 9 7.5c0.666992 0 9.66699 -8.66699 27 -26c-2.66699 -9.33301 -1.66699 -21.333 3 -36c4 -13.333 4 -24 0 -32
c-2.66699 -6 -4 -12 -4 -18c0 -5.33301 1.33301 -12.666 4 -21.999s4 -16 4 -20c0 -6.66699 -2 -13 -6 -19c0 6 0.333008 -29.333 1 -106c0.666992 -44 -3.66602 -78.667 -12.999 -104c7.33301 -9.33301 22 -19 44 -29c5.33301 4 30.666 7.33301 75.999 10
c7.33301 0 13.666 1 18.999 3c8 -1.33301 15.667 -2 23 -2c18 0 42.667 5.5 74 16.5s57 16.167 77 15.5zM490.002 616.999c-9.33301 6 -14.8301 20.666 -16.4971 43.999s-6.16699 38 -13.5 44c-9.33301 -6 -24 -13.667 -44 -23l-143 -110l-48 -35
c-19.333 -14 -29 -29.667 -29 -47c7.33301 -5.33301 20.166 -8.33301 38.499 -9s31.166 -2.66699 38.499 -6c87.333 -9.33301 147 -10 179 -2c21.333 12.667 32 31.334 32 56.001c-6 7.33301 -9 15.333 -9 24c0 6 2.66699 16.167 8 30.5s7.66602 25.5 6.99902 33.5z" />
    <glyph glyph-name="five" unicode="5" horiz-adv-x="600" 
d="M585 894c2.66699 -5.33301 4 -10.666 4 -15.999c0 -9.33301 -5.66699 -20.5 -17 -33.5s-17.333 -23.833 -18 -32.5c-30 -30 -66.667 -36 -110 -18c-36.667 1.33301 -90.334 0 -161.001 -4c-26 -3.33301 -49.667 -31.666 -71 -84.999
c-0.666992 -2 -3.66699 -7.66699 -9 -17c-4 -5.33301 -4.66699 -11.333 -2 -18c30 -20 85.667 -30.667 167 -32c16.667 -3.33301 34 -7 52 -11s32 -11.333 42 -22c-0.666992 -12.667 7.33301 -22.334 24 -29.001c6 3.33301 12 5 18 5c9.33301 0 19 -5.33301 29 -16
c13.333 -14 22 -22 26 -24c23.333 -31.333 27 -88.333 11 -171c-6.66699 -19.333 -21.334 -44.666 -44.001 -75.999c-4 -16 -14.333 -36.167 -31 -60.5s-27 -43.5 -31 -57.5l-52 -67c-21.333 -26.667 -43.333 -43.667 -66 -51c-10.667 -15.333 -29 -36.166 -55 -62.499
s-44.667 -46.833 -56 -61.5v-7c-54.667 -40.667 -108.334 -76 -161.001 -106c-20 0 -44.667 7 -74 21c0.666992 13.333 8.33398 21.333 23.001 24l42 8c10.667 0.666992 25 8 43 22s34 20.667 48 20c14 20.667 43 48 87 82c41.333 32 69 59.667 83 83
c57.333 42.667 90.666 90 99.999 142c14.667 18 26.334 42.333 35.001 73c6 4.66699 8.83301 14.667 8.5 30s0.5 25 2.5 29l4 48c0.666992 20.667 -4.66602 34 -15.999 40c-18 10.667 -38.667 31.667 -62 63c-35.333 16 -60.666 26.667 -75.999 32
c-28.667 10 -56.334 15.333 -83.001 16c-12.667 20 -28.667 25 -48 15c-0.666992 -1.33301 -13.667 -3.33301 -39 -6c-6 -0.666992 -10.333 -2.33398 -13 -5.00098c-35.333 -33.333 -67 -47.333 -95 -42c-1.33301 1.33301 -2 6 -2 14l67 74c24 29.333 40.667 58 50 86
c15.333 14 32.666 55.333 51.999 124c4.66699 2.66699 15.667 12.667 33 30c12.667 13.333 25.334 20 38.001 20c4 2.66699 11.667 2.33398 23 -0.999023c11.333 -2.66699 20.666 -2.33398 27.999 0.999023c30 -0.666992 74 2.66602 132 9.99902c2 0.666992 17.667 2 47 4
c20.667 1.33301 34.334 6.66602 41.001 15.999c6.66699 -0.666992 17.334 -0.666992 32.001 0z" />
    <glyph glyph-name="six" unicode="6" horiz-adv-x="625" 
d="M626 1027c-4 -12.667 -17.1699 -23.333 -39.5029 -32s-35.5 -19.667 -39.5 -33c-35.333 -22 -73 -54.333 -113 -97l-97 -110c-54.667 -58.667 -90.334 -106.667 -107.001 -144c-5.33301 -9.33301 -22.666 -36 -51.999 -80c-8 0 -13.667 -7 -17 -21
c-10 -12 -15.5 -34.5 -16.5 -67.5s-7.16699 -55.5 -18.5 -67.5c-14 -88.667 -21 -135 -21 -139c0.666992 -19.333 7.33398 -40.666 20.001 -63.999c20 -38 30.333 -57.667 31 -59c44 -43.333 94.333 -65 151 -65c13.333 0 27 1.33301 41 4c15.333 13.333 38.333 25 69 35
l49 46c18 18 28.333 37 31 57c7.33301 6.66699 12 16.334 14 29.001c2 9.33301 2 21.666 0 36.999c-1.33301 20.667 -2 32.334 -2 35.001c-10.667 3.33301 -17.667 15 -21 35c-3.33301 18 -11 28.167 -23 30.5s-24.667 13.333 -38 33s-25.666 29.5 -36.999 29.5
c-3.33301 0 -7.33301 -1 -12 -3c-6 -0.666992 -13 0.666016 -21 3.99902c-25.333 6 -66 6 -122 0c2 -0.666992 -6.66699 -2.33398 -26 -5.00098c-13.333 -1.33301 -20 1.66699 -20 9c0 3.33301 1.33301 7.66602 4 12.999c52 48 107.667 72 167 72
c23.333 0 46 -4.33301 68 -13c6.66699 -4 22.667 -7 48 -9c10.667 -0.666992 20 -4.33398 28 -11.001c3.33301 -11.333 24.333 -33 63 -65c14.667 -74 22 -115 22 -123c0 -13.333 -1.33301 -26.333 -4 -39c-19.333 -33.333 -53.666 -77.666 -102.999 -132.999
c-24 -31.333 -71.667 -67.333 -143 -108c-9.33301 -4.66699 -35 -11.667 -77 -21c-34 -8 -60.667 -9.33301 -80 -4c-9.33301 4 -24 8 -44 12c-5.33301 1.33301 -21.666 8 -48.999 20c-4 10.667 -20 28.667 -48 54c-21.333 20 -30 42 -26 66
c-12.667 21.333 -17.667 39 -15 53c10 12 15 31.667 15 59v64c2.66699 20.667 15 47.667 37 81s34.667 60 38 80c10 6.66699 19.333 18 28 34c12.667 23.333 20 36.666 22 39.999c7.33301 17.333 25.666 42.333 54.999 75c27.333 30.667 44 57.667 50 81h6
c52 68.667 136 161.334 252 278.001c10 18.667 26.333 35.334 49 50.001l60 35c18 -8 22.667 -20.667 14 -38z" />
    <glyph glyph-name="seven" unicode="7" horiz-adv-x="700" 
d="M708 880c0 -5.33301 -3.16602 -10.8301 -9.49902 -16.4971s-9.83301 -11.167 -10.5 -16.5c-27.333 -27.333 -45 -60.666 -53 -99.999h-5c-18 -11.333 -34.833 -33 -50.5 -65s-31.5 -53.667 -47.5 -65c-0.666992 -13.333 -6.33398 -28 -17.001 -44
c-13.333 -20.667 -21 -33.334 -23 -38.001c-8.66699 -21.333 -25 -50 -49 -86c-26 -38 -43 -66.333 -51 -85c-26 -44 -62.333 -111.333 -109 -202c-26.667 -22.667 -44 -51 -52 -85c-7.33301 0 -12.666 -5 -15.999 -15s-6.66602 -16 -9.99902 -18
c-5.33301 -24 -15 -52.667 -29 -86c-21.333 -48.667 -33 -75.667 -35 -81c-6 -62.667 -48 -105.334 -126 -128.001c-10.667 -2.66699 -16.667 0.666016 -18 9.99902c-2 8 -1 15.667 3 23c5.33301 10.667 21.333 30 48 58c22 22.667 35.333 44.667 40 66
c4 18.667 25 54.667 63 108c6 11.333 14.333 29.666 25 54.999c7.33301 1.33301 13 7.33301 17 18c6 14 10.667 22.667 14 26c0.666992 2 1.16699 7.83301 1.5 17.5s4.83301 13.5 13.5 11.5c8 10.667 17 27 27 49c17.333 26 39.666 67.667 66.999 125l105 171
c8.66699 23.333 26 56.666 52 99.999c6 16.667 18 40.667 36 72c4.66699 6.66699 7.33398 19.334 8.00098 38.001c1.33301 10.667 6.33301 24 15 40c-3.33301 20.667 -15 29.667 -35 27c-21.333 0.666992 -42.5 1.5 -63.5 2.5s-40.167 5.83301 -57.5 14.5
c-4 1.33301 -17.667 -2.33398 -41 -11.001c-86 4 -148 -5.33301 -186 -28c-14.667 -8.66699 -30.334 -10.667 -47.001 -6c-2 26 10.667 48.333 38 67c40.667 28.667 63 45.667 67 51c58.667 16 100 16 124 0c7.33301 2 14.333 3 21 3c9.33301 0 22 -2 38 -6s28.333 -6 37 -6
c9.33301 0 18.666 1.66699 27.999 5c52.667 18.667 99.667 15.334 141 -9.99902c20 10.667 49.333 27.667 88 51c16.667 -2 24.667 -5.66699 24 -11z" />
    <glyph glyph-name="eight" unicode="8" horiz-adv-x="600" 
d="M588 331l-0.00390625 -53.9971c-1.33301 -20 -7 -34.333 -17 -43c-5.33301 -24.667 -24 -49 -56 -73c-36.667 -26.667 -59 -48.667 -67 -66c-5.33301 -2 -23.666 -14.667 -54.999 -38c-57.333 -42 -113.666 -63 -168.999 -63c-13.333 0 -27 1.33301 -41 4
c-5.33301 5.33301 -15 8 -29 8h-32c-8 1.33301 -14.333 4 -19 8c-51.333 28 -81.666 59.667 -90.999 95c-8 17.333 -12 37.666 -12 60.999c0 43.333 11.667 79 35 107c2 6.66699 9.16699 15 21.5 25s18.833 20 19.5 30c10 47.333 43 84 99 110c14 -2 28 7 42 27
c-2.66699 12.667 -12.667 25.167 -30 37.5s-28 24.166 -32 35.499c-6 11.333 -13 29.666 -21 54.999c-1.33301 17.333 5.66699 32.333 21 45c-4 32.667 9.33301 62 40 88c44.667 38 69.334 60.667 74.001 68c30 31.333 69 52.333 117 63c21.333 -5.33301 55 -10.333 101 -15
c16 -6.66699 31 -19.334 45 -38.001c20 -27.333 32.333 -43 37 -47c2 -13.333 3 -26 3 -38c0 -66 -21 -111 -63 -135c-12.667 -28.667 -31.667 -52.667 -57 -72c24 -14.667 53.667 -43 89 -85c12.667 -6.66699 20.5 -23.167 23.5 -49.5s10.833 -43.166 23.5 -50.499z
M480.996 693.003c-17.333 31.333 -39.667 53.666 -67 66.999c-2.66699 1.33301 -8.66699 6 -18 14c-6.66699 6 -13.334 9 -20.001 9c-3.33301 0 -6.66602 -0.666992 -9.99902 -2c-18 -5.33301 -44.333 -14.333 -79 -27c-22.667 -6.66699 -43.334 -41.334 -62.001 -104.001
c10.667 -18.667 23.667 -48 39 -88c50 -16.667 83.333 -25 100 -25c12.667 0 25.334 2 38.001 6c6 -0.666992 13 4 21 14c10 12.667 15.667 19.667 17 21c19.333 6.66699 31.333 22.334 36 47.001c2 22.667 3.66699 45.334 5 68.001zM505.995 231.003
c-10 8 -15.6689 25.0029 -17.002 51.0029c-1.33301 28.667 -4.33301 47 -9 55c-12 6 -21.333 19.333 -28 40c-8 24.667 -14.333 39.667 -19 45l-32 4c-16 12 -38.333 19 -67 21c-28 2 -52.333 -1.66699 -73 -11c-44.667 -20.667 -74 -35.667 -88 -45
c-30.667 -20.667 -50 -46 -58 -76c-13.333 -10.667 -22 -31.667 -26 -63c-5.33301 -40.667 -9 -64.334 -11 -71.001c18 -30.667 59.333 -60.667 124 -90c9.33301 -13.333 25.333 -20 48 -20c11.333 0 27.833 2 49.5 6s35.834 6 42.501 6c28.667 11.333 43.667 17.333 45 18
c16 8 27.667 18.667 35 32c22.667 14.667 38 31.667 46 51c-2.66699 11.333 2.83301 20.166 16.5 26.499s20.834 13.166 21.501 20.499z" />
    <glyph glyph-name="nine" unicode="9" horiz-adv-x="670" 
d="M671 637c-10.667 -15.333 -17.335 -45.6699 -20.002 -91.0029c-2.66699 -40.667 -12.334 -69.334 -29.001 -86.001c-8 -12.667 -17.667 -33 -29 -61c-18 -38 -49.333 -91.333 -94 -160c0.666992 -7.33301 -2 -14.333 -8 -21
c-7.33301 -8.66699 -11.666 -14.334 -12.999 -17.001c-4 -10.667 -17 -26.667 -39 -48c-19.333 -17.333 -30 -35 -32 -53c-22.667 -19.333 -52.667 -53.666 -90 -102.999c-9.33301 -12 -24.666 -27.667 -45.999 -47c-8 -16 -27.667 -36 -59 -60s-50 -46.333 -56 -67
c-14.667 -3.33301 -33.834 -14.5 -57.501 -33.5s-44.5 -28.833 -62.5 -29.5c-16.667 7.33301 -28.667 17.333 -36 30c35.333 16 84.333 46.667 147 92l38 23c14 10 23 22 27 36c10.667 2.66699 20.834 11.334 30.501 26.001s18.834 23.667 27.501 27
c3.33301 8.66699 11.333 17.334 24 26.001l132 177c5.33301 0 9.33301 3.5 12 10.5s5.33398 10.5 8.00098 10.5c8 24 22.667 48.667 44 74c4.66699 18.667 14.334 45.334 29.001 80.001c0 14.667 4.5 33.167 13.5 55.5s13.5 40.166 13.5 53.499c0 6 -0.333008 11.667 -1 17
c2.66699 9.33301 6.66699 21.333 12 36c4 14 4 30.667 0 50c-4.66699 24 -7 40.667 -7 50c0.666992 6.66699 -4.33301 14 -15 22s-14.667 17 -12 27c-11.333 4.66699 -24.666 19 -39.999 43c-14 21.333 -27.667 32 -41 32c-6.66699 0 -14 -2 -22 -6c0 4 -3 5.83301 -9 5.5
s-9.66699 0.5 -11 2.5c-60 9.33301 -95.333 5.33301 -106 -12c-78 -32 -125.667 -82.333 -143 -151c-1.33301 -73.333 31 -132 97 -176c6 -0.666992 14.833 -4.66699 26.5 -12s21.167 -11 28.5 -11c23.333 -1.33301 56.333 -5.33301 99 -12c18 9.33301 34.333 11.333 49 6
c2.66699 -18 -5.33301 -32 -24 -42l-46 -25c-24.667 -7.33301 -55.334 -10.666 -92.001 -9.99902c-133.333 1.33301 -202.333 58.333 -207 171c-2 9.33301 -3 19 -3 29c0 50.667 19.667 95.667 59 135l23 24c32.667 36 60 63.333 82 82l165 104c9.33301 2 18.333 3 27 3
c14.667 0 33.667 -4.5 57 -13.5s41.666 -14.167 54.999 -15.5c1.33301 -0.666992 20.333 -13 57 -37c22.667 -14.667 34 -33.667 34 -57c11.333 -9.33301 18.666 -25.333 21.999 -48c4 -29.333 7.66699 -47.666 11 -54.999z" />
    <glyph glyph-name="colon" unicode=":" horiz-adv-x="200" 
d="M178 391c-22 -36 -47 -52.668 -75 -50.001c-4 4.66699 -21 16 -51 34c-21.333 12.667 -32 28.334 -32 47.001c12.667 17.333 29.334 33.666 50.001 48.999c4 -0.666992 8 0.333008 12 3l3 2c1.33301 0.666992 2.66602 0.333984 3.99902 -0.999023
c20 -7.33301 47.667 -22 83 -44c0.666992 -3.33301 2 -9.5 4 -18.5s2.66699 -16.167 2 -21.5zM162 99.999c1.33301 -7.33301 -3.33203 -22.6689 -13.999 -46.002c-6.66699 -0.666992 -17.667 -7.66699 -33 -21c-9.33301 -8 -18.333 -7.33301 -27 2l-54 28
c-19.333 13.333 -29 30 -29 50c23.333 32 47.333 48 72 48c6 0 12 -1 18 -3c11.333 -7.33301 20.333 -12.666 27 -15.999c14 2.66699 24 -3.66602 30 -18.999l3 -8c1.33301 -3.33301 3.66602 -8.33301 6.99902 -15z" />
    <glyph glyph-name="semicolon" unicode=";" horiz-adv-x="200" 
d="M158 386c-30.667 -32.667 -56.0039 -47.667 -76.0039 -45c-19.333 9.33301 -43.666 29 -72.999 59c-3.33301 1.33301 -5 4 -5 8c0.666992 14 1 18.667 1 14c28.667 36.667 55.334 53 80.001 49c22.667 -10.667 35.334 -15.667 38.001 -15
c28.667 -24 40.334 -47.333 35.001 -70zM185.996 28c2 -20.667 -1 -56.999 -9 -108.999c-1.33301 -7.33301 -2 -12.333 -2 -15c-12 -19.333 -25.333 -44.666 -40 -75.999c-4.66699 -8.66699 -17.667 -19.334 -39 -32.001c-25.333 -15.333 -47.666 -23.333 -66.999 -24
c-6.66699 12 -9.66699 19 -9 21l66 50c24.667 19.333 37.667 42.333 39 69c3.33301 14 3.33301 29.667 0 47c-6 29.333 -9 44.666 -9 45.999c-22.667 34 -49.334 57 -80.001 69c-2 22.667 -3.66699 30.667 -5 24c32 45.333 61 67 87 65c2 -0.666992 6.66699 -4.66699 14 -12
s14.333 -11.666 21 -12.999c1.33301 -5.33301 8.33301 -21 21 -47c8.66699 -18.667 13 -35 13 -49c0 -4.66699 -0.333008 -9.33398 -1 -14.001z" />
    <glyph glyph-name="less" unicode="&#x3c;" horiz-adv-x="500" 
d="M420 204c-0.666992 -9.33301 -14.666 -27.0059 -41.999 -53.0059c-24.667 -2 -33 -3 -25 -3c-4.66699 0 -9.66699 1 -15 3c-17.333 16.667 -39.333 42.667 -66 78c-12 22.667 -35.167 48.334 -69.5 77.001s-56.5 53 -66.5 73l-56 41c-0.666992 21.333 3 32.333 11 33
c1.33301 -1.33301 7.5 -0.666016 18.5 2.00098s16.833 4 17.5 4c8.66699 0 21.667 7.66699 39 23c2.66699 7.33301 13 16 31 26c15.333 8.66699 22.333 20.334 21 35.001c14.667 10 29.667 29.5 45 58.5s29.333 48.5 42 58.5c4 0.666992 10.333 4.5 19 11.5s15 10.5 19 10.5
c4.66699 0 8.66699 -1.33301 12 -4v-4c0.666992 -14 -7.66602 -29.667 -24.999 -47c-18.667 -19.333 -29.334 -34.666 -32.001 -45.999c-18.667 -12.667 -39.667 -33.667 -63 -63c-28 -35.333 -47.333 -58 -58 -68c0 -13.333 6.66699 -24.666 20 -33.999
c15.333 -12 24.333 -21.333 27 -28c18 -20 46.667 -47.667 86 -83c0.666992 -11.333 7.66699 -20.666 21 -27.999c11.333 -4.66699 22.666 -9.66699 33.999 -15c14.667 -10.667 33 -30 55 -58z" />
    <glyph glyph-name="equal" unicode="=" horiz-adv-x="625" 
d="M540 580c0 -40 -5.66602 -64 -16.999 -72c-24 -4 -51 -3.66699 -81 1c-50.667 2.66699 -111.334 4.33398 -182.001 5.00098c-10 -6.66699 -21.667 -10 -35 -10c-10 0 -22.5 2 -37.5 6s-24.167 6 -27.5 6s-5.66602 -0.333008 -6.99902 -1
c-20.667 2 -38.334 -0.333008 -53.001 -7c-10 15.333 -15 29 -15 41c0 14 7 23.333 21 28c13.333 -6 32.833 -7.83301 58.5 -5.5s44.5 1.16602 56.5 -3.50098l47 -5c19.333 -1.33301 34.333 0.666992 45 6h171c8 7.33301 26.667 11 56 11zM540.001 393
c0 -40 -5.66602 -64 -16.999 -72c-24 -4 -51 -3.66699 -81 1c-50.667 2.66699 -111.334 4.33398 -182.001 5.00098c-10 -6.66699 -21.667 -10 -35 -10c-10 0 -22.5 2 -37.5 6s-24.167 6 -27.5 6s-5.66602 -0.333008 -6.99902 -1c-20.667 2 -38.334 -0.333008 -53.001 -7
c-10 15.333 -15 29 -15 41c0 14 7 23.333 21 28c13.333 -6 32.833 -7.83301 58.5 -5.5s44.5 1.16602 56.5 -3.50098l47 -5c19.333 -1.33301 34.333 0.666992 45 6h171c8 7.33301 26.667 11 56 11z" />
    <glyph glyph-name="greater" unicode="&#x3e;" horiz-adv-x="500" 
d="M420 410c0.666992 -22 -3.00098 -32.9961 -11.001 -32.9961c-1.33301 1.33301 -7.5 0.666016 -18.5 -2.00098s-16.833 -4 -17.5 -4c-8.66699 0 -21.667 -7.66699 -39 -23c-2.66699 -7.33301 -13 -16.333 -31 -27c-15.333 -8 -22.333 -19.333 -21 -34
c-14.667 -10 -29.667 -29.667 -45 -59s-29.333 -48.666 -42 -57.999c-4 -1.33301 -10.333 -5.5 -19 -12.5s-15 -10.167 -19 -9.5c-4.66699 0 -8.66699 1.33301 -12 4v4c-0.666992 14 8 30.167 26 48.5s28.333 33.166 31 44.499c18.667 12 39.667 33 63 63
c28 35.333 47.333 58 58 68c0 12.667 -6.66699 24 -20 34c-15.333 11.333 -24.333 20.666 -27 27.999c-18 19.333 -46.667 46.666 -86 81.999c-0.666992 12 -7.16699 21 -19.5 27s-24.166 11.333 -35.499 16c-14.667 11.333 -33 31 -55 59
c0.666992 9.33301 14.667 26.666 42 51.999c24.667 2.66699 33 4 25 4c4.66699 0 9.66699 -1.33301 15 -4c17.333 -16 39.333 -41.667 66 -77c12 -22.667 35.167 -48.5 69.5 -77.5s56.5 -53.167 66.5 -72.5z" />
    <glyph glyph-name="question" unicode="?" horiz-adv-x="566" 
d="M545 740c1.33301 -4.66699 2.00488 -8.66797 2.00488 -12.001c0 -9.33301 -6.66699 -19 -20 -29s-20 -19.667 -20 -29l-48 -48c-19.333 -18 -38.333 -30 -57 -36c-8 0.666992 -13.333 -4 -16 -14c-2.66699 -12 -6.33398 -18.667 -11.001 -20
c-3.33301 -7.33301 -14.333 -20.333 -33 -39c-14.667 -15.333 -22 -29.333 -22 -42c0 -8.66699 3 -18.334 9 -29.001c0 -1.33301 1.33301 -12 4 -32c2 -13.333 1.33301 -24.333 -2 -33c-42.667 -2 -59.334 -3 -50.001 -3c-20.667 0.666992 -32.334 9.33398 -35.001 26.001
c-1.33301 1.33301 -3.33301 15.333 -6 42l71 94c29.333 36.667 59.666 62.334 90.999 77.001c13.333 4.66699 22.666 16.334 27.999 35.001c6 22 12 35.667 18 41c2 31.333 -15 60 -51 86c-4.66699 4 -20 8.66699 -46 14c-20 4.66699 -33 14 -39 28
c-0.666992 -0.666992 -42.667 -4.66699 -126 -12c-50 -4.66699 -80.667 -24 -92 -58c4.66699 -1.33301 7 -5.33301 7 -12c-0.666992 -10.667 -0.666992 -16.334 0 -17.001c-31.333 -36.667 -56.333 -55 -75 -55c-4.66699 0 -10 1.16699 -16 3.5s-9.33301 8.16602 -10 17.499
v25c68.667 98.667 159 149.334 271 152.001c0 4 2 6 6 6c8.66699 -0.666992 12.667 -1 12 -1c-0.666992 -3.33301 4.33301 -5 15 -5c70.667 14.667 122.667 5 156 -29c30.667 0 59 -30.667 85 -92zM368.005 65.999c-10.667 -25.333 -30.333 -45 -59 -59l-50 25
c-2 7.33301 -9.33301 18 -22 32c-10.667 12 -15.334 23 -14.001 33l31 24c12.667 9.33301 25 14 37 14c4.66699 0 9.66699 -0.666992 15 -2c4.66699 -6.66699 16.334 -17 35.001 -31c15.333 -12 24.333 -24 27 -36z" />
    <glyph glyph-name="at" unicode="@" horiz-adv-x="1050" 
d="M985 501c-0.666992 -27.333 -11.5039 -57.499 -32.5039 -90.499s-31.5 -57.167 -31.5 -72.5c0 -8.66699 2 -17.334 6 -26.001c-5.33301 -11.333 -7 -19.333 -5 -24c-3.33301 -3.33301 -15.333 -23.333 -36 -60c-14.667 -24.667 -32.667 -39 -54 -43
c-2 -7.33301 -8 -11 -18 -11c-16 0 -39 7.33301 -69 22c-26 12.667 -43.333 23 -52 31c0.666992 22 -9 37 -29 45c-82.667 -26 -168.334 -40 -257.001 -42c-18 0.666992 -42.333 6 -73 16c-13.333 0 -25 7 -35 21l-23 36c0 31.333 2.66699 49.666 8 54.999
c8 28.667 28.667 53.334 62 74.001l87 49c14.667 -0.666992 31.667 5.66602 51 18.999c24.667 10 77.667 18.667 159 26c12.667 0 30 5 52 15c2.66699 6.66699 2.66699 16.667 0 30c-2 12 0 22 6 30l1 14c-4 2.66699 -18 17.667 -42 45c-16.667 18.667 -35 28 -55 28
c-4.66699 0 -9.66699 -0.333008 -15 -1c-14 5.33301 -35.333 6.66602 -64 3.99902c-8.66699 -8.66699 -26.334 -18.667 -53.001 -30c-23.333 -10 -39 -21.667 -47 -35c-5.33301 1.33301 -9.66602 -0.333984 -12.999 -5.00098c-20 0 -39 8 -57 24l1 12
c40 18 66.667 29.667 80 35c30.667 11.333 60 18.333 88 21c19.333 6.66699 40.666 10 63.999 10c26.667 0 67.334 -7 122.001 -21c-3.33301 -15.333 4.5 -26.166 23.5 -32.499s28.167 -16.5 27.5 -30.5c0 -10.667 0.666992 -27.334 2 -50.001
c4.66699 -6 7.66699 -25.333 9 -58c0 -8 1 -14.667 3 -20c-14 -24 -16 -41.667 -6 -53c-2.66699 -16 -4.83398 -40.833 -6.50098 -74.5s-3.83398 -58.167 -6.50098 -73.5c7.33301 -18.667 11.333 -33 12 -43c28.667 -5.33301 48.667 -4.33301 60 3l39 60
c10 17.333 15 39.666 15 66.999c0.666992 16 0.333984 40.333 -0.999023 73s-1.66602 57.334 -0.999023 74.001c0 28.667 -6 62.667 -18 102c-14 48 -31.333 74.667 -52 80c-4.66699 16.667 -16 29.334 -34 38.001c-24 11.333 -38.333 19.333 -43 24
c-4.66699 19.333 -19.667 35.333 -45 48c-31.333 16 -50.333 28 -57 36c-31.333 2.66699 -59.666 4 -84.999 4c-214 0 -340.667 -116.333 -380 -349c-4.66699 -18.667 -9.66699 -48 -15 -88c-0.666992 -68 24.333 -132.333 75 -193c6.66699 -18.667 17.667 -44 33 -76
c18.667 -2.66699 39.334 -10 62.001 -22l57 -30c18 -29.333 73 -44 165 -44c27.333 0 49.333 3.33301 66 10l15 -1c6 -0.666992 22.833 1 50.5 5s42.834 6.66699 45.501 8c1.33301 -2 2.33301 -4 3 -6c-0.666992 -4 -2.66699 -8.66699 -6 -14c-12 -4 -37 -16.667 -75 -38
c-26 -15.333 -54 -23 -84 -23c-10 0 -25 -2.5 -45 -7.5s-35 -7.5 -45 -7.5c-12 0 -23.333 3.33301 -34 10c-59.333 10.667 -103.666 21.334 -132.999 32.001c-54 19.333 -89 45.333 -105 78c-10.667 21.333 -27.167 40.833 -49.5 58.5s-33.833 36.5 -34.5 56.5
c-32.667 58 -48.667 107.333 -48 148c0.666992 46.667 14.334 73.334 41.001 80.001c-19.333 17.333 -29 39.333 -29 66c0.666992 14.667 3.66699 29.667 9 45c17.333 8.66699 29 31 35 67c98.667 154.667 199.334 240.667 302.001 258c13.333 2 25.333 6.66699 36 14
c36.667 23.333 60 35 70 35c7.33301 0 15.666 -1 24.999 -3c9.33301 5.33301 23 8 41 8c24.667 0 54.167 -8.83301 88.5 -26.5s60.833 -26.5 79.5 -26.5c6.66699 0 13.667 0.666992 21 2c26 -18 63 -46.667 111 -86c8 -8 16 -27.833 24 -59.5s19 -54.167 33 -67.5
c0 -1.33301 7 -32.333 21 -93c8 -38 12 -69.667 12 -95zM690.996 465.001l-33.998 11.999c-16 -1.33301 -39 0.666992 -69 6c-20 6 -34.333 5.33301 -43 -2c-22.667 1.33301 -47.334 -4.66699 -74.001 -18l-65 -33c-30.667 -31.333 -46 -51.666 -46 -60.999
c0 -6 1.66699 -12 5 -18c-2 -12.667 -2.66699 -31 -2 -55c20 -8.66699 50 -21 90 -37c29.333 0.666992 69.666 10 120.999 28c28 -2 63 18 105 60z" />
    <glyph glyph-name="A" unicode="A" horiz-adv-x="990" 
d="M930 9c-0.666992 -2.66699 -8.33105 -9.33008 -22.998 -19.9971c-10.667 -1.33301 -17.5 2.83398 -20.5 12.501s-6.33301 19.5 -10 29.5s-28.834 61.333 -75.501 154c-1.33301 5.33301 -5.66602 14.666 -12.999 27.999c-6 11.333 -9 21.666 -9 30.999
c-5.33301 4.66699 -14.666 19.667 -27.999 45c-10.667 19.333 -23.667 30 -39 32c-9.33301 -10 -20.666 -15 -33.999 -15c-6 0 -16.667 2 -32 6s-27.333 6 -36 6c-8 0 -15.333 -1 -22 -3c-34.667 -5.33301 -94.334 -9 -179.001 -11c-78.667 -2 -137.667 -6.66699 -177 -14
c-14.667 -2.66699 -26.334 -13 -35.001 -31c-10 -22 -19 -35.333 -27 -40c0 -8 -1 -11.667 -3 -11c-21.333 -37.333 -49.666 -96.333 -84.999 -177c-20.667 -26 -40.334 -37.333 -59.001 -34c-10 2 -17.667 7 -23 15c0.666992 16 10.167 34.167 28.5 54.5
s29.166 36.5 32.499 48.5c14 3.33301 24.333 14.666 31 33.999c7.33301 22 15 35.333 23 40c5.33301 9.33301 11 25.333 17 48c10 7.33301 19.333 21.666 28 42.999c10 24.667 18 40.667 24 48c18.667 24.667 42.334 64.667 71.001 120c8.66699 6.66699 14.5 20.5 17.5 41.5
s8.83301 35.167 17.5 42.5c8.66699 3.33301 13.834 14.5 15.501 33.5s7.16699 30.167 16.5 33.5c1.33301 18.667 11.666 46 30.999 82c17.333 32.667 25.666 61.667 24.999 87c0.666992 6 7.16699 12.833 19.5 20.5s18.5 14.167 18.5 19.5c0 2.66699 -1.33301 5.66699 -4 9
c1.33301 16.667 11 31.667 29 45c23.333 18 37.333 31 42 39c4 0.666992 7.66699 1 11 1c11.333 0 20.666 -8.33301 27.999 -25c10 -22 17.333 -35 22 -39c28 -46 45 -88 51 -126c8 -4.66699 14.667 -14 20 -28c6 -16 11.333 -26.333 16 -31c8 -24.667 25.667 -59 53 -103
c6 -10 23.667 -43.333 53 -100v-11c22 -37.333 56.667 -92.333 104 -165c-1.33301 -4.66699 -2 -9 -2 -13c0 -12 5.33301 -23.333 16 -34c14.667 -15.333 23 -25 25 -29c3.33301 -15.333 19.333 -38.333 48 -69c26 -28.667 39 -51 39 -67c0 -18 -12.333 -35.667 -37 -53z
M691.003 382.004c2 6 0.999023 11.333 -3.00098 16l-10 11c1.33301 4.66699 2 9 2 13c0 14.667 -9.5 29.667 -28.5 45s-28.5 30.333 -28.5 45c-1.33301 0.666992 -19 28 -53 82c2 16 -3.66699 31.333 -17 46c-20 22.667 -30.333 34.667 -31 36l-23 47
c-10 18 -22.333 29.667 -37 35c-6 -6.66699 -13.667 -17.334 -23 -32.001c-20 -23.333 -39 -56.333 -57 -99c-24.667 -57.333 -40.667 -92.333 -48 -105c-10 -8 -18 -22.667 -24 -44c-7.33301 -24 -13.666 -39.667 -18.999 -47c-5.33301 -3.33301 -9 -11.666 -11 -24.999
s-4.66699 -21.666 -8 -24.999l9 -23c44 -6.66699 110 -7.33398 198 -2.00098c10 -4.66699 25 -5.66699 45 -3c24 4 41 5 51 3c8.66699 6 22.667 9 42 9h45c13.333 2 23 7.66699 29 17z" />
    <glyph glyph-name="B" unicode="B" horiz-adv-x="890" 
d="M839 284c-5.33301 -40.667 -25.0039 -78.666 -59.0039 -113.999c-6 2 -10.667 0.833008 -14 -3.5l-9 -11.5c-2.66699 -28 -24.334 -54 -65.001 -78c-9.33301 -11.333 -28.333 -22.5 -57 -33.5s-48 -22.5 -58 -34.5c-42 -12.667 -76.333 -20.334 -103 -23.001
c-42.667 -5.33301 -72 -4.66602 -88 2.00098c-8.66699 -3.33301 -37 -2.33301 -85 3c-7.33301 0.666992 -18.166 5 -32.499 13s-27.166 11.333 -38.499 10c-13.333 -8.66699 -33.666 -6.66699 -60.999 6c-7.33301 8 -20 12 -38 12h-41c-10.667 1.33301 -19 5 -25 11
c-5.33301 0 -13.666 -3 -24.999 -9s-19.333 -9 -24 -9c-6.66699 0 -12 3 -16 9c-2 16.667 4.66699 28.334 20 35.001c25.333 12 38.333 18 39 18c23.333 20.667 34 43.334 32 68.001c4 140 5.66699 216.333 5 229c2 8.66699 7 18.667 15 30c-8 66.667 -12 101 -12 103
c1.33301 12.667 -1.33398 29.667 -8.00098 51c-6.66699 24.667 -10 43.334 -10 56.001c-0.666992 1.33301 -4 60 -10 176c9.33301 12.667 8.66602 20.334 -2.00098 23.001c-2.66699 7.33301 -11 11.666 -25 12.999s-21 6.33301 -21 15l2 8c10 1.33301 24.333 8 43 20
c16.667 11.333 31.667 17.333 45 18c30 0 75.667 -1 137 -3c19.333 -0.666992 35.333 -2.33398 48 -5.00098c4 -1.33301 7.66699 -2 11 -2c4 0 9.5 1.33301 16.5 4s11.833 4 14.5 4c4.66699 0 9 -2 13 -6c30 2 71.333 -1.66699 124 -11l71 -10
c26.667 -4.66699 47.334 -13 62.001 -25c8 -21.333 1 -43.333 -21 -66c-12.667 -7.33301 -21 -18.666 -25 -33.999c-25.333 -16.667 -61.666 -43.334 -108.999 -80.001c-0.666992 -10.667 4.33301 -19 15 -25c8.66699 -4.66699 17.334 -9 26.001 -13
c26.667 0 44.334 -9 53.001 -27c4 -1.33301 19.667 -2 47 -2c19.333 0.666992 31.333 -5.33301 36 -18c40.667 -20.667 64 -32.667 70 -36c26 -14.667 46.667 -31 62 -49c-2.66699 -18.667 6.66602 -33.834 27.999 -45.501s32 -24.834 32 -39.501c-2 -7.33301 -3 -14 -3 -20
c0 -11.333 4 -25.333 12 -42s12 -29.334 12 -38.001c0 -8 -2 -16 -6 -24zM468.996 795.001c-4 7.33301 -12.8291 13.8301 -26.4961 19.4971s-22.5 11.834 -26.5 18.501c-6 2 -27 2.66699 -63 2c-50.667 10.667 -101.334 10.667 -152.001 0
c-16.667 0.666992 -26.334 -7.33301 -29.001 -24v-46c-12 -15.333 -17 -29.333 -15 -42c10.667 -5.33301 17.667 -16.666 21 -33.999c4.66699 -20.667 9.33398 -33.667 14.001 -39c7.33301 -1.33301 14.666 -2 21.999 -2c12 0 27.667 2.16699 47 6.5s34.666 6.5 45.999 6.5
c8 0 16 -0.666992 24 -2c8 11.333 23 20 45 26c25.333 6.66699 41.666 12.667 48.999 18c31.333 25.333 47 49.333 47 72c0 6.66699 -1 13.334 -3 20.001zM719 265.998l-15.998 106.999c-8 39.333 -24 68.333 -48 87c-10 2 -23.167 9 -39.5 21s-29.833 19.667 -40.5 23
c-3.33301 1.33301 -31.333 11.333 -84 30c-35.333 12 -61.333 26.333 -78 43c-46.667 -3.33301 -83.667 -0.666016 -111 8.00098c-20.667 4 -51 7.33301 -91 10c-19.333 -2 -28.666 -15.667 -27.999 -41c0.666992 -31.333 -2.66602 -50.666 -9.99902 -57.999
c5.33301 -36.667 9.33301 -95.334 12 -176.001c-6 -9.33301 -7 -23 -3 -41c0 -8 -2 -12 -6 -12c-6 -36 -1 -56.333 15 -61c-1.33301 -27.333 1.66699 -50 9 -68c5.33301 -17.333 -2.33398 -33.333 -23.001 -48c4 -12 18.667 -21.667 44 -29c24 -3.33301 59.333 -9 106 -17
c12.667 -6 27.667 -9 45 -9c10 0 24.5 1.33301 43.5 4s33.167 4 42.5 4c11.333 0 21.666 -1.66699 30.999 -5c5.33301 -0.666992 10.666 -1 15.999 -1c22 0 44.667 7.66699 68 23l57 39c18.667 13.333 34 35 46 65l30 75c1.33301 7.33301 5.66602 16.333 12.999 27z" />
    <glyph glyph-name="C" unicode="C" horiz-adv-x="900" 
d="M922 117c4 -15.333 -2.66895 -37.6641 -20.002 -66.9971c-41.333 -8 -78.666 -20 -111.999 -36c-10.667 1.33301 -21.667 2 -33 2c-24 0 -56.667 -4.83301 -98 -14.5s-72.666 -14.5 -93.999 -14.5c-11.333 0 -22.666 1 -33.999 3
c-30 -2.66699 -57.333 7.66602 -82 30.999c-7.33301 1.33301 -15.666 -0.333984 -24.999 -5.00098s-16 -7 -20 -7c-4.66699 0 -9.33398 1 -14.001 3c-97.333 17.333 -178 61.333 -242 132c-13.333 2 -22.666 14 -27.999 36s-15 33.667 -29 35
c-11.333 10 -24.666 28.333 -39.999 55c-14 8.66699 -24.333 25.334 -31 50.001c-8.66699 30.667 -15.334 49.667 -20.001 57c0 6 -1 23.333 -3 52c-2.66699 24.667 -3 44 -1 58c2.66699 20 9.66699 35 21 45c0 18.667 5.66699 39 17 61c16.667 34 25.334 52 26.001 54
c2.66699 6.66699 10.667 15 24 25s20 20.333 20 31c18.667 7.33301 45 26.666 79 57.999c30 28 57.667 44 83 48l110 45c43.333 16 84.333 24.333 123 25c14.667 0 38.334 2 71.001 6s57 6 73 6c26 0 48.667 -3.66699 68 -11c17.333 -3.33301 42 -11.666 74 -24.999
c2 -3.33301 -1.33301 -16 -10 -38c-17.333 -14 -32 -19.667 -44 -17c-10.667 2 -30.334 9.66699 -59.001 23c-24.667 11.333 -45.334 17 -62.001 17c-6.66699 0 -13.334 -0.666992 -20.001 -2c-18 4.66699 -42.667 6 -74 4c-38 -2.66699 -63.333 -3.66699 -76 -3
c-14 -6.66699 -38.333 -13 -73 -19c-23.333 -15.333 -62 -32.333 -116 -51c-8.66699 -16 -27.834 -35.333 -57.501 -58s-49.5 -42 -59.5 -58c-26.667 -44.667 -39 -109.334 -37 -194.001c3.33301 -2 3.33301 -4 0 -6c-4 -2.66699 -5 -5.66699 -3 -9
c9.33301 -6 14.333 -18 15 -36v-43c2 -14.667 8.66699 -24.667 20 -30c8.66699 -6.66699 16.334 -22.334 23.001 -47.001c6.66699 -22 16 -35.667 28 -41c12 -33.333 52.333 -75.333 121 -126c3.33301 0 9.16602 -1.33301 17.499 -4s15.5 -4 21.5 -4
c20.667 -14.667 55.667 -29.334 105 -44.001c1.33301 -0.666992 14 -4.66699 38 -12c31.333 -9.33301 70 -13.666 116 -12.999c39.333 2 78.333 3.66699 117 5c23.333 3.33301 57.333 15.333 102 36c42 20 76.667 30.667 104 32z" />
    <glyph glyph-name="D" unicode="D" horiz-adv-x="1010" 
d="M979 496c0.666992 -15.333 -1.33398 -37.0039 -6.00098 -65.0039c-30 -30.667 -45 -52 -45 -64c0 -4 0.333008 -8.33301 1 -13c-6.66699 -16 -21.334 -32 -44.001 -48c-25.333 -18 -41.666 -32.667 -48.999 -44c-18 -27.333 -46.333 -53.333 -85 -78
c-56.667 -35.333 -88.334 -55.666 -95.001 -60.999c-19.333 -3.33301 -50 -18.333 -92 -45c-36.667 -23.333 -70.667 -34 -102 -32c-28.667 -14.667 -68.667 -24.667 -120 -30c-43.333 -2.66699 -86.666 -5.66699 -129.999 -9c-24 9.33301 -44.667 11.333 -62 6
c-12 -16 -42.333 -21 -91 -15c-6 4 -15.833 7.83301 -29.5 11.5s-23.5 7.5 -29.5 11.5c2 6.66699 7 11 15 13c10.667 3.33301 17.667 6 21 8c15.333 2.66699 27 11.334 35 26.001c3.33301 11.333 7 28 11 50c-2 32 2 76.333 12 133
c-17.333 59.333 -16.666 110.333 2.00098 153c-8.66699 9.33301 -13 20.333 -13 33c0 6.66699 1.66699 16.667 5 30s5 23.333 5 30c0 9.33301 -2 17.666 -6 24.999c-9.33301 11.333 -13.666 30 -12.999 56c0 33.333 -1 54 -3 62c0.666992 12 -2.16602 29.333 -8.49902 52
s-9.5 38.667 -9.5 48s2 18 6 26c4 38 -6 61.667 -30 71c-12.667 9.33301 -15.667 16 -9 20c9.33301 4.66699 26.166 8.33398 50.499 11.001s41.166 7 50.499 13c28 4.66699 64 5 108 1l109 -10c24.667 -5.33301 60.334 -10.666 107.001 -15.999
c20.667 -0.666992 49.5 -6 86.5 -16s65.833 -15.333 86.5 -16c5.33301 -8 14.333 -11 27 -9c21.333 -29.333 48.666 -42 81.999 -38c49.333 -20 84.666 -35.333 105.999 -46c38 -19.333 69.667 -41 95 -65c6 -6 10.833 -18 14.5 -36s10.834 -29.667 21.501 -35
c-1.33301 -14 1 -31.667 7 -53s8.66699 -36.666 8 -45.999zM857.999 520.996c-0.666992 3.33301 -3.83398 9.33301 -9.50098 18s-8.5 16.667 -8.5 24c-5.33301 18 -20.333 41.667 -45 71c-14.667 24 -41.334 42.667 -80.001 56c-52 18 -83 30 -93 36
c-16.667 11.333 -43 20.666 -79 27.999c-40 8 -67 15.333 -81 22c-18 0 -43.667 6.66699 -77 20c-30.667 12 -57.667 17 -81 15c-6 -0.666992 -21 0 -45 2c-22.667 2 -39.667 2 -51 0c-17.333 -3.33301 -28.666 -11 -33.999 -23c0.666992 -8.66699 -2.33301 -18.667 -9 -30
c-1.33301 -10 1 -21.667 7 -35c-1.33301 -51.333 -7.33301 -87.333 -18 -108c11.333 -5.33301 17.333 -16.333 18 -33c0.666992 -14 1 -27.667 1 -41c0.666992 -9.33301 3.33398 -16.333 8.00098 -21c-4 -10.667 -6 -26.667 -6 -48c0.666992 -32.667 0.666992 -50 0 -52
c4.66699 -7.33301 7 -15.666 7 -24.999c0 -2.66699 -2 -14.334 -6 -35.001c-2.66699 -14.667 -2 -27 2 -37c3.33301 -6 5 -11.667 5 -17c0 -6 -3.16699 -13.167 -9.5 -21.5s-9.5 -15.5 -9.5 -21.5c0 -4 1 -8.66699 3 -14c11.333 -10 16.666 -28 15.999 -54
c0 -44 -0.333008 -64.333 -1 -61c8.66699 -21.333 7 -46.666 -5 -75.999c48.667 -7.33301 88 -11 118 -11c48 0 84 8 108 24c90.667 22 161.334 49.667 212.001 83c15.333 0 30.333 7.33301 45 22c18.667 18.667 32 29.667 40 33c9.33301 16 25.5 35.5 48.5 58.5
s38.833 41.167 47.5 54.5c6 0 9.66699 3.66699 11 11l4 19c13.333 16 23.333 42.667 30 80c7.33301 47.333 13 76.333 17 87z" />
    <glyph glyph-name="E" unicode="E" horiz-adv-x="805" 
d="M821 87c6 -3.33301 9.00391 -6.66797 9.00391 -10.001s-4.16699 -7.5 -12.5 -12.5s-12.833 -9.5 -13.5 -13.5c-10 -28 -45.667 -42.667 -107 -44c-59.333 6.66699 -144.333 9.33398 -255 8.00098c-10 4 -21.333 4.66699 -34 2c-18.667 -3.33301 -29 -5 -31 -5
c-7.33301 0 -14.333 2 -21 6c-72.667 -10.667 -148.334 -11 -227.001 -1c-25.333 -12 -52.666 -9 -81.999 9c-6 3.33301 -9 7.33301 -9 12c0 2.66699 1.83301 7.16699 5.5 13.5s5.5 11.166 5.5 14.499c0.666992 16.667 5.66699 38.334 15 65.001
c-4.66699 46.667 -3 97 5 151c-12.667 32.667 -11.334 83.334 3.99902 152.001c0 11.333 -6.33301 23.333 -19 36c0 36 -0.333008 72.333 -1 109c-1.33301 41.333 -7 73.666 -17 96.999c1.33301 21.333 -1.66699 37.333 -9 48c0 4.66699 2.83301 11.334 8.5 20.001
s8.5 15.334 8.5 20.001c-0.666992 3.33301 -1.33398 6.33301 -2.00098 9c-8 4 -13.833 15.667 -17.5 35s-11.834 30.333 -24.501 33v11c33.333 18 64.333 27 93 27c15.333 0 29.333 -2.66699 42 -8c24 -3.33301 98.667 -10 224 -20c19.333 -4 46.333 -4 81 0
c32.667 3.33301 58.667 2.33301 78 -3c10.667 5.33301 35 12.333 73 21c2 -0.666992 6.5 0.333008 13.5 3s11.833 3.66699 14.5 3c4 -0.666992 5.66699 -4.66699 5 -12c-10 -29.333 -35.333 -47.666 -76 -54.999c-35.333 -3.33301 -70.666 -6.33301 -105.999 -9
c-18 4.66699 -47.667 10 -89 16c-14.667 -4.66699 -38.334 -7.33398 -71.001 -8.00098c-26.667 -2 -66.667 -0.333008 -120 5c-1.33301 -2 -5.33301 -5.33301 -12 -10s-10 -8.66699 -10 -12c0.666992 -2.66699 2.33398 -5 5.00098 -7c1.33301 -6 2 -12.667 2 -20
c0 -8 -1.16699 -19.167 -3.5 -33.5s-3.5 -24.5 -3.5 -30.5c0 -16 5.33301 -28.667 16 -38c12 -4.66699 33.667 -7.83398 65 -9.50098s53.333 -5.16699 66 -10.5c4 0.666992 49 0 135 -2c0.666992 -2 4.66699 -1 12 3c19.333 -0.666992 49.666 1.33301 90.999 6
c14 -2 28.667 -3 44 -3s41.666 2 78.999 6c34 4 61.667 5.33301 83 4c4 8.66699 18.667 10.667 44 6c-1.33301 -11.333 -8.33301 -21.666 -21 -30.999c-16 -12 -25.667 -20.333 -29 -25c-40 -2 -95 -0.333008 -165 5c-12 2.66699 -26.333 2.66699 -43 0
c-20.667 -4 -33.334 -6 -38.001 -6c-11.333 0 -21.333 2.66699 -30 8l-15 4l-38 -7c-28 4.66699 -66.333 2.66699 -115 -6c-8 1.33301 -15.667 2 -23 2c-10.667 0 -28 -3 -52 -9c-21.333 -4.66699 -39.666 -6.33398 -54.999 -5.00098c-4.66699 -4 -6.66699 -13.5 -6 -28.5
s-2.33301 -24.167 -9 -27.5c5.33301 -12 8.33301 -28.667 9 -50c1.33301 -28 2.66602 -45.667 3.99902 -53c8 -14.667 8.66699 -38.334 2 -71.001c-4.66699 -25.333 -3.33398 -43 3.99902 -53c-3.33301 -3.33301 -5.66602 -11 -6.99902 -23s-3.66602 -20 -6.99902 -24
c13.333 -32 23.333 -82 30 -150c22.667 -19.333 57 -32 103 -38l120 -8c104.667 -7.33301 188 -7 250 1c6.66699 0 65.667 7 177 21z" />
    <glyph glyph-name="F" unicode="F" horiz-adv-x="655" 
d="M699 667c0 -14 -6.67188 -26 -20.0049 -36l-33 -23c-12.667 -0.666992 -29.334 0.333008 -50.001 3c-49.333 4.66699 -126 9.33398 -230 14.001c-10.667 -8 -22.667 -12 -36 -12c-7.33301 0 -18.666 1.66699 -33.999 5s-26.666 5 -33.999 5
c-11.333 0 -22 -2.66699 -32 -8c3.33301 0.666992 -16.667 1.33398 -60 2.00098c-26 0 -42.333 -7.33301 -49 -22c-7.33301 -27.333 -9.5 -69.5 -6.5 -126.5s0.5 -99.5 -7.5 -127.5c4 -8 7.33301 -42 10 -102c0.666992 -10 1.66699 -19 3 -27l10 -44
c3.33301 -17.333 2 -32 -4 -44c-2 -7.33301 -0.833008 -15.333 3.5 -24s5.5 -16.667 3.5 -24c-2 -14.667 -13.333 -25.667 -34 -33c-25.333 -8 -40.666 -15.333 -45.999 -22c-5.33301 2 -10.166 0.833008 -14.499 -3.5s-9.16602 -5.5 -14.499 -3.5
c-6.66699 2 -10 7.33301 -10 16c0.666992 16 1 23.333 1 22c1.33301 10.667 6.33301 23.667 15 39c0 6 -1.33301 15 -4 27c-4 16.667 -4.33301 38 -1 64c5.33301 32.667 7.66602 55.334 6.99902 68.001c6.66699 36 7 88 1 156c3.33301 6.66699 5 13.334 5 20.001
c0 7.33301 -3 17 -9 29s-9 21.333 -9 28c0 7.33301 2.33301 15.5 7 24.5s7 18.833 7 29.5c0 11.333 -2.83301 26.833 -8.5 46.5s-8.5 34.167 -8.5 43.5c0 13.333 3.66699 26 11 38c-6.66699 8.66699 -10 20.334 -10 35.001c0 5.33301 0.5 13.166 1.5 23.499
s1.5 18.166 1.5 23.499c0 19.333 -6 33.333 -18 42c-5.33301 11.333 -6.33301 28 -3 50c48 27.333 102.667 36 164 26c11.333 -8.66699 31.333 -13 60 -13c33.333 -0.666992 54.666 -2.66699 63.999 -6c1.33301 -0.666992 26 -2.66699 74 -6
c34.667 -2.66699 76 -1.33398 124 3.99902l120 14c2.66699 -17.333 -8.66602 -34 -33.999 -50c-16.667 -6.66699 -39.667 -10.334 -69 -11.001c-18.667 -0.666992 -45.334 0 -80.001 2c-36.667 2 -60.667 3 -72 3c-6.66699 4 -14 6 -22 6
c-5.33301 0 -13.166 -1.16699 -23.499 -3.5s-18.166 -3.5 -23.499 -3.5c-10 0 -18.333 3 -25 9c-7.33301 1.33301 -16.166 0.166016 -26.499 -3.50098s-17.5 -5.5 -21.5 -5.5c-5.33301 0 -10.333 1.66699 -15 5c-42 6.66699 -66.667 1 -74 -17
c-8.66699 -34 -10 -61.333 -4 -82c0.666992 -0.666992 3 -9.66699 7 -27c3.33301 -11.333 9.66602 -17 18.999 -17l53 -12c20.667 -4 38.334 -3 53.001 3c7.33301 -4 15.333 -6 24 -6c2 0 13.333 2 34 6c14 2.66699 26 1.66699 36 -3l37 -5c15.333 -2 27.333 -0.333008 36 5
c42 0.666992 104.333 2 187 4c38.667 1.33301 71 5.33301 97 12z" />
    <glyph glyph-name="G" unicode="G" horiz-adv-x="895" 
d="M873 111c0 -16 0.335938 -32.3418 1.00293 -49.0088c0 -20.667 -8 -31.667 -24 -33c-34.667 -3.33301 -55.334 -4.33301 -62.001 -3c-11.333 -0.666992 -26 -5.66699 -44 -15c-10.667 1.33301 -21.334 2 -32.001 2c-18.667 0 -48.334 -3 -89.001 -9
c-37.333 -5.33301 -67.666 -7.33301 -90.999 -6c-3.33301 -5.33301 -11.166 -8.16602 -23.499 -8.49902s-20.166 -2.16602 -23.499 -5.49902l-88 11c-14 -6.66699 -25 -6.66699 -33 0c-7.33301 -1.33301 -14.333 -2 -21 -2c-18 0 -40.333 7.33301 -67 22
s-50 21.334 -70 20.001c-6 16.667 -23 30.5 -51 41.5s-44.667 25.833 -50 44.5c-38.667 57.333 -56.667 100 -54 128c-8.66699 3.33301 -20.334 17.333 -35.001 42c0 12 -2.66699 28.667 -8 50s-8 37 -8 47c0 12 2.33301 23 7 33c-3.33301 4.66699 -5 10 -5 16
c0 5.33301 2 14.833 6 28.5s5.66699 24.167 5 31.5c4 24.667 15.333 48.334 34 71.001l58 100l51 65c22.667 25.333 46 40.333 70 45c50.667 30.667 99.667 52.334 147 65.001c15.333 -2.66699 34 -1.66699 56 3c26 6 43.667 9 53 9c20 2 47.667 7 83 15
c23.333 -4 57.666 -11.667 102.999 -23c0 4 3 5.83301 9 5.5s9.66699 0.5 11 2.5c4 -0.666992 15.667 -4.66699 35 -12c14 -6 27 -8.33301 39 -7c1.33301 -3.33301 2 -6.33301 2 -9c0 -4.66699 -3.33301 -9 -10 -13c-9.33301 -5.33301 -14.666 -9 -15.999 -11
c-4.66699 -1.33301 -14.334 -6 -29.001 -14c-12 -6.66699 -22 -10 -30 -10s-15.667 3 -23 9c-21.333 11.333 -54.666 23 -99.999 35c-90 0.666992 -148 -4.33301 -174 -15c-86.667 -36.667 -157.334 -85.334 -212.001 -146.001c0.666992 -14 -5.16602 -30.833 -17.499 -50.5
s-18.833 -35.167 -19.5 -46.5c-7.33301 -16 -13.666 -44 -18.999 -84c-5.33301 -37.333 -13 -64 -23 -80c1.33301 -5.33301 6.66602 -15 15.999 -29c8 -11.333 11 -22.666 9 -33.999c8.66699 -12.667 19.334 -40 32.001 -82c6 -14 12.5 -28.333 19.5 -43
s17.5 -24.667 31.5 -30c8 -28 20 -43.667 36 -47c37.333 -23.333 96.333 -55.333 177 -96c28.667 -6 73.667 -8 135 -6c12 0.666992 34.667 4.33398 68 11.001c30 6 54.333 8.33301 73 7c6 6.66699 18.667 12.834 38 18.501s32.333 13.5 39 23.5c2 10.667 3 22.334 3 35.001
c0 10.667 -1.16699 26.334 -3.5 47.001s-3.5 36.334 -3.5 47.001c0 14.667 2 28.334 6 41.001c-5.33301 18 -15.333 44.667 -30 80c-17.333 -0.666992 -42 1.33301 -74 6c-3.33301 2 -13 2.66699 -29 2c-13.333 -0.666992 -20 2 -20 8c0 4 1.66699 9 5 15
c7.33301 9.33301 21.333 13.666 42 12.999c25.333 -0.666992 40.666 0 45.999 2c81.333 5.33301 127.666 7.66602 138.999 6.99902c12 -11.333 18 -29.333 18 -54c0 -11.333 -1.33301 -26.333 -4 -45c-2.66699 -21.333 -4.33398 -35.333 -5.00098 -42
c7.33301 -29.333 11 -47 11 -53c0 -15.333 -6.33301 -28.333 -19 -39c-1.33301 -4 -2 -7.33301 -2 -10c0 -7.33301 4.16699 -14.833 12.5 -22.5s13.5 -14.5 15.5 -20.5z" />
    <glyph glyph-name="H" unicode="H" horiz-adv-x="900" 
d="M834 616c-11.333 -14 -16.6719 -36.335 -16.0049 -67.002l4 -72c4 -2.66699 4 -5 0 -7c-4.66699 -2.66699 -5.33398 -6 -2.00098 -10c-2 -11.333 -3 -23 -3 -35c0 -14 1.5 -33.667 4.5 -59s4.5 -44 4.5 -56c0 -18 -2 -34.667 -6 -50c12 -34 16.5 -56.167 13.5 -66.5
s-2.83301 -26.166 0.5 -47.499c3.33301 -24.667 5 -41.667 5 -51c0 -28 -10 -46.667 -30 -56c-21.333 -25.333 -44.333 -38 -69 -38c-4.66699 0 -9 0.666992 -13 2c-2 5.33301 -3 11 -3 17c0 8 2.83301 20.667 8.5 38s7.83398 31.333 6.50098 42c0 2.66699 2.66699 20 8 52
c4 20.667 2.66699 37.667 -4 51c11.333 14.667 16 35 14 61c-2 38 -2.66699 59.667 -2 65c-2.66699 9.33301 -4 21.666 -4 36.999c0 7.33301 0.333008 18.166 1 32.499s1 24.833 1 31.5c0 36 -10 57.667 -30 65c-8 -1.33301 -17 -5.33301 -27 -12
c6.66699 -0.666992 -11.333 -2 -54 -4c-22.667 -0.666992 -40 2.33301 -52 9c-82 -1.33301 -204.667 0.333984 -368 5.00098c-4 4.66699 -7.33301 4.66699 -10 0c-3.33301 -4.66699 -7 -5.66699 -11 -3h-47c-18 -1.33301 -29.667 -7.33301 -35 -18c2 -30 0 -72 -6 -126
c3.33301 -4 4 -12 2 -24c-3.33301 -14.667 -4 -25.667 -2 -33c16 -30 19.333 -86.667 10 -170c4 -6 6 -15.667 6 -29v-33c-43.333 -38 -79.666 -56 -108.999 -54c-4 6.66699 -6 13.667 -6 21c0 10 4 23.667 12 41c8.66699 20 13.667 33.667 15 41
c4 6 3.66699 12.167 -1 18.5s-5.66699 12.166 -3 17.499c-2.66699 123.333 0.333008 199 9 227c-7.33301 10 -10.666 26.667 -9.99902 50c0.666992 26 -1 43.667 -5 53c-8.66699 26 -8 46.333 2 61c-4 17.333 -10 42 -18 74c0.666992 1.33301 5 9.33301 13 24
c5.33301 10 7.66602 20 6.99902 30c-18 11.333 -27.667 34.333 -29 69c-3.33301 52.667 -5.33301 80.334 -6 83.001c23.333 26.667 59.333 43.334 108 50.001l10 -20c0 -6.66699 -1.33301 -13.334 -4 -20.001c-2.66699 -12.667 -4 -26.334 -4 -41.001
c0 -11.333 1.16699 -27.833 3.5 -49.5s3.5 -37.5 3.5 -47.5c0 -21.333 -3.66699 -40.333 -11 -57c0 -18 5 -41.333 15 -70c12.667 -5.33301 34.834 -8.66602 66.501 -9.99902s53.834 -4.66602 66.501 -9.99902c19.333 -8.66699 65.333 -8.66699 138 0l6 -6
c5.33301 0 8.33301 -1 9 -3c16 -2 32.333 -3 49 -3c24 0 58.167 3.16699 102.5 9.5s78.5 9.5 102.5 9.5c16.667 0 33 -1 49 -3c20.667 8 31.667 30 33 66l-4 81c-13.333 12 -20 34.333 -20 67c0.666992 56 1.33398 80.667 2.00098 74c16 8 40.667 18 74 30
c3.33301 0.666992 6.33301 1 9 1c6.66699 0 11.334 -4.66699 14.001 -14c4 -12.667 7 -20 9 -22c-7.33301 -40 -12 -83.333 -14 -130c-0.666992 -1.33301 6.33301 -27.666 21 -78.999z" />
    <glyph glyph-name="I" unicode="I" horiz-adv-x="210" 
d="M141 847c-2 -13.333 -5.33301 -31.9961 -10 -55.9961c-3.33301 -18 -3.33301 -27.667 0 -29c7.33301 -38 4.66602 -70.333 -8.00098 -97c-1.33301 -10.667 -0.333008 -23.667 3 -39c4 -18 6 -30 6 -36c0 -10 -3 -19.333 -9 -28
c1.33301 -17.333 0.666016 -41 -2.00098 -71c-4 -13.333 -4 -31 0 -53s4 -38.667 0 -50c-2 -12 -3 -25 -3 -39c0 -10.667 1.16699 -26.834 3.5 -48.501s3.5 -38.167 3.5 -49.5c0 -12 -1 -23.333 -3 -34c-2.66699 -2 -4 -3.66699 -4 -5s1.33301 -3 4 -5s4 -4 4 -6
c0 -1.33301 -0.333008 -3 -1 -5c-1.33301 -11.333 -1 -28 1 -50c2.66699 -26 4 -43.667 4 -53c0 -42 -15 -68.667 -45 -80c-19.333 -10 -39 -15.667 -59 -17c-6 2.66699 -9.33301 7.66699 -10 15v20c2 2 4 17.333 6 46c0.666992 5.33301 2 9.66602 4 12.999
c2.66699 19.333 11 45.666 25 78.999c-5.33301 1.33301 -9 12.333 -11 33c-2 28 1.66699 66 11 114c0 4.66699 -2 9.16699 -6 13.5s-6 8.83301 -6 13.5c0.666992 68 -0.666016 164 -3.99902 288c-1.33301 8 -5 18 -11 30c0.666992 15.333 -0.666016 35.333 -3.99902 60
c-4 27.333 -6 46.333 -6 57c0 17.333 3 33.666 9 48.999c14.667 -2 32.334 4 53.001 18s39 19.333 55 16c1.33301 -4 4.66602 -8.66699 9.99902 -14z" />
    <glyph glyph-name="J" unicode="J" horiz-adv-x="690" 
d="M611 523c3.33301 -39.333 2.66406 -95.9971 -2.00293 -169.997c-1.33301 -5.33301 -2.66602 -28 -3.99902 -68c-0.666992 -26.667 -7 -45.334 -19 -56.001c2 -8.66699 3 -17 3 -25c0 -34 -17.667 -66 -53 -96c0 -1.33301 -14.667 -25 -44 -71
c-64 -42 -122.667 -62 -176 -60c-12 -4 -23.667 -6 -35 -6c-16.667 0 -39.667 6.5 -69 19.5s-53 19.5 -71 19.5c-6 0 -12.333 -0.333008 -19 -1c-20 8 -48.667 21 -86 39c-25.333 16.667 -37.333 58.667 -36 126c8.66699 10.667 18.334 12.667 29.001 6
c9.33301 -16 13.666 -25.667 12.999 -29c28 -35.333 73 -69.666 135 -102.999c22.667 4 45.334 -3 68.001 -21c79.333 -6 133.333 2 162 24c28.667 9.33301 57.667 46.666 87 111.999l33 195c-0.666992 9.33301 -1 18.666 -1 27.999c0 10.667 4 17 12 19
c2 0.666992 4 2.66699 6 6c2.66699 8 -0.333008 13 -9 15c-5.33301 2 -9 8 -11 18l-4 22c2.66699 38 -2.33301 92 -15 162c-4 9.33301 -4 20.666 0 33.999c4.66699 15.333 5.33398 27.666 2.00098 36.999c-12.667 29.333 -15.334 48.333 -8.00098 57
c1.33301 7.33301 -2.66699 14.833 -12 22.5s-14 14.5 -14 20.5c0 2.66699 0.666992 6 2 10c22 14.667 56.333 35 103 61c14.667 0.666992 23.334 -5 26.001 -17c1.33301 -5.33301 1.33301 -18.333 0 -39c-0.666992 -17.333 1.33301 -28.666 6 -33.999
c2.66699 -8 2 -17 -2 -27s-5 -18.667 -3 -26c10 -16.667 15 -35.667 15 -57c0 -12 -2 -30.5 -6 -55.5s-6 -44.5 -6 -58.5c0 -11.333 1 -22.333 3 -33z" />
    <glyph glyph-name="K" unicode="K" horiz-adv-x="860" 
d="M848 33c-49.333 -30 -95.3379 -44.999 -138.005 -44.999c-20.667 24 -38.334 35.667 -53.001 35c-46.667 30.667 -113.667 80.334 -201 149.001c-31.333 25.333 -79.666 61.666 -144.999 108.999c0.666992 6.66699 -1.66602 11.667 -6.99902 15
c-8 4 -12.667 6.66699 -14 8c-6 -1.33301 -12 -2 -18 -2c-19.333 0 -42.333 10.5 -69 31.5s-49.667 30.833 -69 29.5c-7.33301 -21.333 -9.33301 -34 -6 -38c1.33301 -5.33301 2 -10.333 2 -15c0 -6.66699 -1.5 -15.334 -4.5 -26.001s-4.5 -18.667 -4.5 -24
s1.5 -12.333 4.5 -21s4.5 -15.334 4.5 -20.001c0 -6.66699 -2.66699 -18.334 -8 -35.001c-4.66699 -14 -6 -25.333 -4 -34c14 -24.667 17.667 -62.667 11 -114c-13.333 -13.333 -49.666 -27.333 -108.999 -42c-6.66699 9.33301 -9.66699 19.333 -9 30
c4.66699 1.33301 6.83398 6.33301 6.50098 15s0.5 14.334 2.5 17.001c8 7.33301 12.333 25 13 53c1.33301 26 8 42.667 20 50c1.33301 4 2 8 2 12c0 6.66699 -2.16699 15.5 -6.5 26.5s-6.5 18.5 -6.5 22.5c0 4.66699 1.33301 8.66699 4 12
c-6.66699 89.333 -2.66699 156.666 12 201.999c-10 53.333 -9.33301 91.333 2 114c-12.667 14.667 -22 55 -28 121c-9.33301 10.667 -14.333 27 -15 49v54c-1.33301 18 -7 31.333 -17 40c18.667 20 41 35 67 45c10.667 1.33301 23.334 6.33301 38.001 15
c18 -10 25 -20 21 -30c-4.66699 -5.33301 -7 -11.666 -7 -18.999c0 -5.33301 2 -13.666 6 -24.999s6 -20.333 6 -27s-1.33301 -13 -4 -19c-12.667 -12.667 -17.667 -24 -15 -34c9.33301 -8 15.333 -21 18 -39c1.33301 -12 1.33301 -28.667 0 -50
c-2 -24.667 -3 -39.667 -3 -45c-8.66699 -4 -10.667 -18 -6 -42c8 -24 11.333 -50.333 10 -79c-2.66699 -8 0.333008 -12.667 9 -14c10.667 2 27.334 11 50.001 27c20 14 38.333 21.333 55 22c22 13.333 83 59.666 183 138.999l108 112c1.33301 32 24 56.667 68 74
c3.33301 0 8 1.33301 14 4c6 0 13.5 2.66699 22.5 8s16.833 8 23.5 8c3.33301 0 7 -0.333008 11 -1c-2 -16 -13.667 -32.333 -35 -49s-33.333 -32 -36 -46c-11.333 -1.33301 -17 -6.33301 -17 -15c-18.667 -5.33301 -37.834 -22.666 -57.501 -51.999
s-39.834 -46.333 -60.501 -51c-14.667 -18 -52.334 -47 -113.001 -87c-49.333 -33.333 -81.333 -68.333 -96 -105c12 -14 35.667 -33 71 -57c30.667 -20.667 51.334 -40 62.001 -58c32 -14.667 70.667 -39.334 116 -74.001c58 -44 95.333 -71 112 -81
c18.667 -28.667 40.334 -46.334 65.001 -53.001c0.666992 -0.666992 6 -11.667 16 -33c6.66699 -14 17 -19.667 31 -17c0 4.66699 3 7 9 7c8.66699 -0.666992 13.334 -1 14.001 -1c10 -15.333 36.667 -20 80 -14c0 -3.33301 2.5 -6.66602 7.5 -9.99902
s6.5 -7.66602 4.5 -12.999z" />
    <glyph glyph-name="L" unicode="L" horiz-adv-x="665" 
d="M685 62c-4.66699 -26.667 -33.9971 -48 -87.9971 -64c14.667 0 -71 1.33301 -257 4c-6.66699 -3.33301 -13.667 -5 -21 -5c-6.66699 0 -16.334 1.83301 -29.001 5.5s-22.334 5.5 -29.001 5.5c-9.33301 0 -18 -2.33301 -26 -7c-14 -2.66699 -39.333 -2.33398 -76 0.999023
c-34 3.33301 -60 2 -78 -4h-79c-1.33301 2.66699 -2 5.33398 -2 8.00098c0 5.33301 3.5 12.333 10.5 21s10.5 16.667 10.5 24c0 2.66699 -0.333008 5.33398 -1 8.00098c11.333 16.667 17.333 41.667 18 75v80c1.33301 19.333 5 35 11 47c2 4.66699 3 10 3 16
c0 4.66699 -1.16699 11.334 -3.5 20.001s-3.5 15 -3.5 19c0 6.66699 2 12.667 6 18c-6.66699 19.333 -4 64.333 8 135c-10.667 10 -16 22.333 -16 37c0 8 2 19.833 6 35.5s6 27.167 6 34.5c0 14.667 -6.66699 26 -20 34c0.666992 32.667 -0.666016 81.667 -3.99902 147
c-2.66699 24.667 -10 43.667 -22 57c-0.666992 10 14 23.333 44 40c12.667 11.333 28.334 17 47.001 17c16.667 0 26.334 -7 29.001 -21c-3.33301 -31.333 -3.83301 -78 -1.5 -140s2.16602 -107.667 -0.500977 -137c-12 -11.333 -16.667 -21.333 -14 -30
c9.33301 -14.667 15 -34.334 17 -59.001c2 -16.667 2 -39.667 0 -69c-1.33301 -34 -2 -55 -2 -63c-8.66699 -4.66699 -10.667 -20.334 -6 -47.001c0 -0.666992 1 -2 3 -4c3.33301 -19.333 3.66602 -44.333 0.999023 -75c-2.66699 -40 -3.66699 -66 -3 -78
c2 -3.33301 3.66699 -23 5 -59c0.666992 -8 2 -14.333 4 -19c2 -8 9.5 -12.833 22.5 -14.5s20.833 -3.83398 23.5 -6.50098c3.33301 4 9.33301 6 18 6h21c37.333 -10.667 54.333 -16 51 -16c7.33301 0 13.666 2.33301 18.999 7c40 -2.66699 96 0.666016 168 9.99902
c7.33301 -0.666992 17 -4 29 -10s21.333 -9.66699 28 -11c5.33301 -1.33301 12.666 1.83398 21.999 9.50098s16.666 11.5 21.999 11.5c17.333 -1.33301 38.333 1 63 7c28 6.66699 48 10.334 60 11.001c-1.33301 -2.66699 -0.666016 -5.16699 2.00098 -7.5s4 -3.83301 4 -4.5
z" />
    <glyph glyph-name="M" unicode="M" horiz-adv-x="1035" 
d="M965 63c-4.66699 -27.333 -16.3359 -44.9961 -35.0029 -52.9961c-12 -2.66699 -28.667 -7.33398 -50 -14.001c-4.66699 17.333 -7 36.666 -7 57.999c0 6 2 33.333 6 82c2.66699 34 1.83398 63.167 -2.49902 87.5s-6.5 56.5 -6.5 96.5v78
c-0.666992 44.667 -3.66699 80.334 -9 107.001c-4 21.333 -14 51.333 -30 90c-21.333 -22 -44.333 -62.5 -69 -121.5s-47.667 -99.833 -69 -122.5c-13.333 -23.333 -31.666 -60 -54.999 -110c-11.333 -12.667 -27.666 -37.334 -48.999 -74.001
c-19.333 -33.333 -38.333 -57.666 -57 -72.999c-1.33301 -11.333 -7.33301 -25.666 -18 -42.999c-12 -19.333 -19.167 -32.166 -21.5 -38.499s-8 -10.333 -17 -12s-14.5 -3.83398 -16.5 -6.50098c-11.333 7.33301 -24 21.333 -38 42
c-15.333 23.333 -27.333 38.666 -36 45.999c-7.33301 14.667 -16 37.334 -26 68.001c-10.667 8 -17.667 25.5 -21 52.5s-11 44.5 -23 52.5c-24.667 40.667 -57.667 104.334 -99 191.001c-5.33301 40.667 -19 65 -41 73c-8 22.667 -14.333 38.334 -19 47.001
c-9.33301 16 -20.666 27 -33.999 33c-9.33301 -7.33301 -14.666 -20.333 -15.999 -39v-44c-0.666992 -9.33301 -3.33398 -17 -8.00098 -23c-1.33301 -0.666992 -3 -15.334 -5 -44.001c7.33301 -10.667 7.33301 -42 0 -94c0 -21.333 1 -34 3 -38
c4.66699 -52 4.66699 -102.333 0 -151c0.666992 -9.33301 -2 -20 -8 -32c-4 -2 -6 -6 -6 -12v-15c8 -4 11 -24.333 9 -61c-16.667 -9.33301 -40 -25 -70 -47c-17.333 0 -24.333 13.333 -21 40h2c5.33301 22.667 8.66602 68 9.99902 136
c1.33301 59.333 7.66602 102.333 18.999 129c-8 30 -10.667 70.667 -8 122c2.66699 62.667 3 103.334 1 122.001c4 1.33301 6 8.33301 6 21c-4.66699 5.33301 -7 11.333 -7 18c0 4.66699 1.66699 11.667 5 21s5 16.666 5 21.999c0 8 -4 15 -12 21c2 20 1 46 -3 78
c-4.66699 35.333 -6.66699 61.666 -6 78.999c10.667 2.66699 26.334 12.667 47.001 30c18 16 34.667 24 50 24c14 -17.333 31.667 -44.666 53 -81.999c-3.33301 -9.33301 -5 -17.666 -5 -24.999c0 -11.333 6 -25.333 18 -42s18 -31.334 18 -44.001
c0 -6.66699 -1.33301 -14 -4 -22c26.667 -18 52.334 -60.333 77.001 -127c0.666992 -3.33301 1 -6.33301 1 -9c0 -4 -1.16699 -9 -3.5 -15s-3.5 -10.333 -3.5 -13c0 -4 2 -8 6 -12c8.66699 -8 31.334 -44.333 68.001 -109c-3.33301 -24 7.33398 -48 32.001 -72
c27.333 -28 42.666 -49.333 45.999 -64l26 -53c12 -20 25.667 -34.667 41 -44c3.33301 -1.33301 6.66602 -2 9.99902 -2c5.33301 0 11 3.66699 17 11s11 11.333 15 12c17.333 20 36.666 48.333 57.999 85c28 48.667 45.667 78.667 53 90c35.333 85.333 63.333 150 84 194
c10 28 28.667 67.333 56 118c-2 6.66699 -3 13 -3 19c0 10.667 4.66699 24 14 40s14 29 14 39c0 7.33301 -1.66699 14.666 -5 21.999c33.333 53.333 69.666 83 108.999 89c-0.666992 -12.667 5.5 -25.667 18.5 -39s19.5 -24 19.5 -32c0 -7.33301 -4 -16 -12 -26
c2.66699 -116.667 0.333984 -186.334 -6.99902 -209.001c-4.66699 -18.667 1 -34.334 17 -47.001c-1.33301 -38.667 1 -94.334 7 -167.001c6 -58.667 13 -146.334 21 -263.001z" />
    <glyph glyph-name="N" unicode="N" horiz-adv-x="760" 
d="M677 605c-0.666992 -6 -3.33594 -14.3379 -8.00293 -25.0049c4 -58 2 -110.333 -6 -157c8.66699 -10 10 -22.667 4 -38c-3.33301 -132 -1.33301 -215.667 6 -251c-7.33301 -38 -14 -63.667 -20 -77c-10 -26.667 -25.667 -46 -47 -58c-1.33301 0.666992 -21 26 -59 76
c-11.333 7.33301 -22.333 20 -33 38c-16.667 28.667 -25.334 43.334 -26.001 44.001c-2.66699 20 -15.667 40.167 -39 60.5s-37 38.5 -41 54.5c-5.33301 5.33301 -18 28.333 -38 69c-14 28.667 -32.667 47 -56 55c-10.667 16 -25.667 40.333 -45 73
c0.666992 12 -3.66602 22.667 -12.999 32l-26 21c-6.66699 15.333 -22 34.5 -46 57.5s-39 42.833 -45 59.5c-1.33301 3.33301 -12 6.33301 -32 9c-11.333 -18.667 -19.333 -45.334 -24 -80.001c-6.66699 -54 -10.334 -82.333 -11.001 -85c6 -8.66699 9 -17.667 9 -27
c0 -6 -1.83301 -15.5 -5.5 -28.5s-5.5 -23.167 -5.5 -30.5c0 -8 1.66699 -15.667 5 -23c4 -34 6.33301 -78 7 -132v-94c0 -30.667 0.666992 -56.334 2 -77.001c2 -26 -7.16699 -45.333 -27.5 -58s-37.166 -18 -50.499 -16c-3.33301 14 1.66699 30.667 15 50
c-1.33301 11.333 -2 23 -2 35c0 19.333 2.5 47 7.5 83s7.83301 63.333 8.5 82c4 26 4.33301 57 1 93c-4 49.333 -6 78.333 -6 87c0 24 3 46.333 9 67c0.666992 7.33301 -0.666016 16.833 -3.99902 28.5s-5 19.834 -5 24.501c0 6 2 12 6 18c-12 66.667 -15 108.667 -9 126
c0 10.667 -4.5 23 -13.5 37s-13.5 25.667 -13.5 35c0 5.33301 1 11 3 17c18.667 19.333 48 45 88 77c11.333 -4 28 -26.667 50 -68c27.333 -40 64 -104.667 110 -194c12.667 -24 32.667 -53.333 60 -88c39.333 -49.333 61.666 -77.666 66.999 -84.999
c0 -14.667 8.83301 -28.334 26.5 -41.001s27.5 -24.334 29.5 -35.001c26 -23.333 43.667 -55.666 53 -96.999c12.667 -5.33301 29.334 -19.666 50.001 -42.999c18 -20.667 36 -32.667 54 -36c16.667 51.333 21.334 95.333 14.001 132c0.666992 16 3.66699 42 9 78
c5.33301 34 8 60 8 78c0 22.667 -3 43.334 -9 62.001c-1.33301 45.333 -3.33301 85.666 -6 120.999c0 6.66699 1.83301 16.334 5.5 29.001s5.5 21.667 5.5 27c0 10 -5 17.667 -15 23c1.33301 4.66699 2 9.33398 2 14.001c0 10.667 -5 24 -15 40s-14.333 29.667 -13 41
c26.667 12.667 50 27.334 70 44.001c4.66699 2 12.667 -4 24 -18c-1.33301 -2.66699 -2 -5.33398 -2 -8.00098c0 -4 1.33301 -8.66699 4 -14s4 -9 4 -11c0 -4 -2 -7.66699 -6 -11c4.66699 -18 4 -47.667 -2 -89c2 -5.33301 0.833008 -10.166 -3.5 -14.499
s-5.16602 -9.16602 -2.49902 -14.499c2.66699 -6.66699 5 -19 7 -37s4.33301 -30.333 7 -37z" />
    <glyph glyph-name="O" unicode="O" horiz-adv-x="1155" 
d="M1100 504c4 -17.333 5.99902 -35.3311 5.99902 -53.998c0 -46 -11.667 -88.333 -35 -127c4.66699 -2.66699 6.66699 -8.66699 6 -18v-22c-12 -4.66699 -19.667 -19.667 -23 -45s-12.333 -40 -27 -44c-4.66699 -3.33301 -13 -7.33301 -25 -12
c0 -21.333 -10.667 -40 -32 -56c-35.333 -25.333 -53.333 -38.333 -54 -39c-103.333 -53.333 -182.333 -80 -237 -80c-24 0 -48 3 -72 9c0 -0.666992 -11.667 -2.66699 -35 -6c-9.33301 12 -18 16.667 -26 14c-14.667 -1.33301 -33.667 -6 -57 -14
c-28 11.333 -75.667 21 -143 29s-115.666 18.333 -144.999 31c-5.33301 8 -16 15.5 -32 22.5s-26.333 15.167 -31 24.5l-39 22c-14 10 -19.333 23.333 -16 40l-46 29c-17.333 12 -26 27.333 -26 46c-2 12.667 -5.66699 30.667 -11 54c-10 23.333 -8.66699 80.333 4 171
c7.33301 10 20 35.667 38 77c14 32.667 30.667 56 50 70c2 4.66699 15 14.667 39 30c18 42.667 72 90.667 162 144c7.33301 0.666992 17 6.33398 29 17.001c10 9.33301 20.667 13.666 32 12.999c68 26 144.333 44.333 229 55c6 0 26.333 0.666992 61 2
c26.667 2 48 2.33301 64 1c23.333 -2 42.666 -7 57.999 -15c4.66699 -1.33301 11.667 -2 21 -2c24 -12.667 61.333 -29.334 112 -50.001c3.33301 -14.667 12 -28.334 26 -41.001c22 -20 33.667 -31 35 -33c20.667 -1.33301 39.334 -12 56.001 -32l37 -53
c-4.66699 -8.66699 -7 -17 -7 -25c0 -11.333 6.66699 -24.833 20 -40.5s21 -28.167 23 -37.5c6 -4 8.66699 -12.667 8 -26c0 -16 1 -25.667 3 -29zM996.999 571.002c-13.333 2 -22.5 9.66992 -27.5 23.0029s-9.5 26 -13.5 38c-44 78 -96.667 131 -158 159
c-28.667 3.33301 -56 18 -82 44c-44 7.33301 -86 11 -126 11c-60.667 0 -108 -9 -142 -27c-19.333 0.666992 -40 -5 -62 -17c-33.333 -17.333 -51.666 -26.333 -54.999 -27c-85.333 -62 -153 -131 -203 -207c2 -14 -4.33301 -26 -19 -36
c-16.667 -10.667 -25.667 -20.334 -27 -29.001c9.33301 -10 12.666 -26.333 9.99902 -49s-1 -38.667 5 -48c4 -37.333 6 -58.333 6 -63c6 -3.33301 9 -11.333 9 -24c-0.666992 -16 0 -25.667 2 -29c8.66699 -4 20.667 -10.667 36 -20c7.33301 -34.667 27 -61 59 -79
c11.333 -2 26.666 -12.333 45.999 -31c17.333 -16 34.333 -23.333 51 -22c15.333 -12 39.333 -24 72 -36c36.667 -14 61 -24.333 73 -31c14.667 -0.666992 40 -4 76 -10c32.667 -4.66699 58.334 -7 77.001 -7c19.333 0 37 2 53 6c11.333 -3.33301 23.666 -5 36.999 -5
c18.667 0 43.334 4.33301 74.001 13c36.667 10.667 60.667 17 72 19c5.33301 17.333 21.666 35.666 48.999 54.999s43 38.333 47 57c16.667 11.333 27.334 31.666 32.001 60.999l8 75l12 37c4.66699 14.667 5.66699 25.667 3 33c0.666992 18 -1 41.667 -5 71
c-1.33301 4 -2 8 -2 12c0 7.33301 2.83301 17.666 8.5 30.999s8.5 24 8.5 32c0 6.66699 -1.33301 13.334 -4 20.001z" />
    <glyph glyph-name="P" unicode="P" horiz-adv-x="745" 
d="M745 713c-1.33301 -11.333 -10.3359 -34.998 -27.0029 -70.998c-7.33301 3.33301 -13.333 2.5 -18 -2.5l-13 -14.5c0 -15.333 -8.66699 -28.666 -26 -39.999c-19.333 -12 -30.333 -22.667 -33 -32c-14.667 -12 -40.667 -23.833 -78 -35.5s-63.333 -23.5 -78 -35.5
c-64.667 -18.667 -149 -35.334 -253 -50.001c-36.667 -10.667 -63 -24 -79 -40c-2 -38 0 -92 6 -162c-0.666992 0 -4 -4.66699 -10 -14c-4 -5.33301 -5.66699 -11.333 -5 -18c6.66699 -4.66699 10 -13.667 10 -27c-0.666992 -16.667 0.333008 -27 3 -31
c4.66699 -53.333 2.66699 -87 -6 -101c-30 -22 -63.333 -33.667 -100 -35c-3.33301 5.33301 -2.33301 16 3 32c-1.33301 8 -2 16.333 -2 25c0 15.333 2.16699 37.166 6.5 65.499s6.5 49.166 6.5 62.499c0 20 -3 38.667 -9 56c12.667 66.667 19 102.667 19 108
c0 16.667 -2.66699 31.667 -8 45c4 10 6 29 6 57c-13.333 33.333 -14.666 79.333 -3.99902 138c4 6 4.33301 12.333 1 19c-4.66699 8 -6.66699 14.333 -6 19c-1.33301 6.66699 -2 13.334 -2 20.001c0 7.33301 1.16699 17.166 3.5 29.499s3.5 20.833 3.5 25.5
c0 13.333 -5 24.666 -15 33.999c2 10.667 1.33301 22 -2 34c-6 18 -9 28 -9 30c-9.33301 4.66699 -19.333 14.334 -30 29.001c40.667 33.333 81.667 50 123 50c15.333 0 30.333 -2.33301 45 -7c8.66699 -2 17.334 -3 26.001 -3c12 0 28.667 2.16699 50 6.5s37 6.5 47 6.5
c14 0 27 -2.33301 39 -7c20 0.666992 50.333 -1 91 -5c4.66699 -6.66699 14.334 -9.66699 29.001 -9c17.333 0.666992 28 -0.333008 32 -3c0.666992 0 23.334 -2.33301 68.001 -7c25.333 -3.33301 44 -11.333 56 -24c33.333 0.666992 70.666 -15.333 111.999 -48
c12.667 -20.667 21.667 -44 27 -70zM639.997 665.002c2.66699 10 3.99707 19.332 3.99707 27.999c0 19.333 -8 38.333 -24 57l-43 45c-16.667 6.66699 -42 15 -76 25c-8.66699 -0.666992 -18.667 2.66602 -30 9.99902c-20.667 -1.33301 -49.334 1.33398 -86.001 8.00098
c-6 -3.33301 -12.667 -5 -20 -5c-5.33301 0 -13.666 1.66699 -24.999 5s-20.333 5 -27 5c-5.33301 0 -10.666 -0.666992 -15.999 -2c-9.33301 -6.66699 -23.666 -10 -42.999 -10c-6 0 -14.667 0.333008 -26 1s-19.666 1 -24.999 1c-34.667 0 -54.334 -12.333 -59.001 -37
c-0.666992 -38 -1.33398 -97 -2.00098 -177c4 -10.667 6 -32.667 6 -66c0 -15.333 1 -27.666 3 -36.999c-5.33301 -3.33301 -8.33301 -12 -9 -26c14.667 2 33.834 0.833008 57.501 -3.5s40.167 -6.5 49.5 -6.5c11.333 0 22 1.66699 32 5c44.667 4 107.334 16.667 188.001 38
c7.33301 3.33301 20.333 6.33301 39 9c28 30 72 74.333 132 133z" />
    <glyph glyph-name="Q" unicode="Q" horiz-adv-x="1240" 
d="M1208 -15c-14.667 -22.667 -40.6689 -37.334 -78.002 -44.001c-34.667 -2 -69.334 -4.33301 -104.001 -7c-24.667 -2 -57 -5 -97 -9c-50.667 -2 -110.667 8.33301 -180 31c-80 26 -137 40.667 -171 44c-15.333 12 -43.666 13 -84.999 3c-14 -4.66699 -28 -2 -42 8
l-168 32c-63.333 14 -111.333 37.333 -144 70c-19.333 4 -37.666 20.833 -54.999 50.5s-35.333 46.5 -54 50.5c-20 44.667 -30 94.667 -30 150c0 32 4 62 12 90l36 92c14 36 31 63.667 51 83c21.333 3.33301 44.666 25 69.999 65c132 98 260.667 155.333 386 172
c8 3.33301 22 5 42 5h8c22 0 37.667 2.33301 47 7c22.667 2.66699 57 -2 103 -14c11.333 -0.666992 26.333 -5.33398 45 -14.001s33 -13.667 43 -15c16.667 -4 34.667 -16.333 54 -37c21.333 -22.667 38.666 -37 51.999 -43c0.666992 -12.667 7 -21.5 19 -26.5l34 -14.5
c43.333 -25.333 65.333 -65.333 66 -120c30 -22 45 -64 45 -126c0 -10.667 -0.666992 -30 -2 -58c-1.33301 -24 -1.66602 -42.333 -0.999023 -55c-11.333 -8.66699 -18.833 -29.167 -22.5 -61.5s-12.834 -52.166 -27.501 -59.499c1.33301 -12 -1.16699 -22.667 -7.5 -32
s-12.833 -18.333 -19.5 -27c-15.333 0.666992 -25.333 -8.66602 -30 -27.999c-5.33301 -22 -12.666 -35 -21.999 -39c-9.33301 -10 -29 -22.667 -59 -38c-27.333 -13.333 -45.666 -27.333 -54.999 -42c18 -6 41.333 -20 70 -42c61.333 -19.333 120.333 -22.666 177 -9.99902
c16 12 44.667 24.667 86 38c6.66699 -8.66699 9.33398 -18.334 8.00098 -29.001zM1006 514c6 20 -3.00195 37.668 -27.002 53.001c-1.33301 15.333 -6.66602 32 -15.999 50c-12.667 26 -20 41.333 -22 46c-35.333 38.667 -56.333 61 -63 67
c-24.667 22.667 -50 38.667 -76 48c-12.667 0.666992 -25.167 4.83398 -37.5 12.501l-36.5 23.5c-36 12.667 -92.667 22 -170 28c-26 -8.66699 -67.333 -19.667 -124 -33c-39.333 -18.667 -96 -51.334 -170 -98.001v-6c-18 -7.33301 -34.333 -20.333 -49 -39l-37 -49
c-15.333 -8 -28.333 -28.333 -39 -61c-9.33301 -30 -25.666 -47 -48.999 -51c0.666992 4 5.66699 -9.66699 15 -41c-6 -18 -2.66699 -64 10 -138c-2 -6.66699 -3 -12.334 -3 -17.001c0 -12 8.33301 -24.5 25 -37.5s25 -26.5 25 -40.5c38 -52.667 80.333 -82.667 127 -90
c2 -4.66699 8.33301 -8.16699 19 -10.5s15.334 -7.83301 14.001 -16.5c24 -15.333 62 -28 114 -38c11.333 -6 23.666 -9 36.999 -9c11.333 0 26.666 2.66699 45.999 8c22 6 36.667 9.33301 44 10c41.333 -2.66699 100 -10 176 -22c14.667 0 31.667 6.66699 51 20
s36 20.333 50 21c11.333 13.333 30.833 30 58.5 50s47.167 37 58.5 51c4 30 16.667 71.333 38 124c3.33301 15.333 3.83301 44 1.5 86s-1.83301 73 1.5 93c2.66699 0 5.33398 2 8.00098 6z" />
    <glyph glyph-name="R" unicode="R" horiz-adv-x="840" 
d="M809 24c-61.333 -24.667 -97.6602 -37.001 -108.993 -37.001c-14 0 -27.667 3 -41 9l-65 52c-24.667 21.333 -38.667 44.333 -42 69c-10.667 12 -46 41.333 -106 88c-44.667 34.667 -74.334 69 -89.001 103c-10.667 10.667 -21.667 15.667 -33 15
c-14.667 6 -30.834 20 -48.501 42s-33.834 36 -48.501 42c-14.667 16 -41.334 28.667 -80.001 38c-2 -5.33301 -5.66699 -14 -11 -26c-2.66699 -185.333 0 -306 8 -362c-4 -16 -17.333 -27 -40 -33c-26 -7.33301 -42.333 -15.333 -49 -24c-8 -4 -17.667 -6 -29 -6
c-1.33301 4.66699 -2 9.33398 -2 14.001c0 6 2.5 15.333 7.5 28s6.83301 23.334 5.5 32.001l3 84c2 27.333 11.667 45.333 29 54c-9.33301 9.33301 -15 23.333 -17 42c-2 24.667 -4.33301 40.334 -7 47.001c2 53.333 3 114 3 182c-2 2.66699 -3 5.33398 -3 8.00098
c0 3.33301 2.5 9.33301 7.5 18s7.5 16 7.5 22s-2 11.667 -6 17c-10 32.667 -13.333 52.334 -10 59.001c-6.66699 10.667 -7 21.334 -1 32.001c0 -0.666992 -1.5 11.666 -4.5 36.999s-6.5 70 -10.5 134c0 6 -4.66699 12.167 -14 18.5s-14 12.166 -14 17.499
c0 4 1.66699 8.66699 5 14c35.333 18 88.333 28 159 30c8 -6 17 -9 27 -9c6 0 15 1.33301 27 4s21 4 27 4c8 0 15.333 -1.66699 22 -5c58 1.33301 139.333 -4 244 -16c56 -16.667 87 -26.334 93 -29.001c34 -16 53 -39.667 57 -71c-2 -12 -7.66699 -29.667 -17 -53
c-7.33301 -3.33301 -13.5 -13.5 -18.5 -30.5s-12.5 -27.5 -22.5 -31.5c-6.66699 -13.333 -21.334 -29.333 -44.001 -48c-1.33301 -2 -2.33301 -5.66699 -3 -11c-14.667 -3.33301 -37.334 -18.333 -68.001 -45c-26.667 -22.667 -53 -33.334 -79 -32.001
c-35.333 -7.33301 -59.666 -21 -72.999 -41c-1.33301 -3.33301 -2 -6.33301 -2 -9c0 -7.33301 4 -13.333 12 -18l20 -12c3.33301 -11.333 13.166 -23.833 29.499 -37.5s26.833 -25.834 31.5 -36.501c41.333 -42.667 100.666 -109 177.999 -199
c8.66699 -12 45 -41.333 109 -88c3.33301 -1.33301 14 -7 32 -17c13.333 -7.33301 25.333 -11 36 -11c6 0 12 1 18 3c5.33301 -16 8.33301 -23 9 -21zM529.006 766.999c-10.667 16 -31.333 29 -62 39c-34.667 12 -57 22.667 -67 32c-15.333 -5.33301 -34 -6.33301 -56 -3
c-30 4 -50 5.66699 -60 5c-34.667 -5.33301 -83.667 -18 -147 -38c-4.66699 -11.333 -7.33398 -31 -8.00098 -59c1.33301 -6.66699 2 -13.334 2 -20.001c0 -8.66699 -2 -21 -6 -37s-6 -28.667 -6 -38c0 -5.33301 0.666992 -11 2 -17c11.333 -6.66699 17.333 -20.667 18 -42
v-50c2.66699 -18 12.334 -28.667 29.001 -32c14 -2.66699 28 -4 42 -4c12 0 61.667 9.33301 149 28l68 32c25.333 14 42 32.333 50 55c36.667 26.667 55 65.334 55 116.001c0 10.667 -1 21.667 -3 33z" />
    <glyph glyph-name="S" unicode="S" horiz-adv-x="835" 
d="M794 324c1.33301 -3.33301 1.99805 -6.66895 1.99805 -10.002c0 -8.66699 -6 -22 -18 -40s-18 -33.333 -18 -46c0 -8.66699 2.33301 -18 7 -28c-42 -74.667 -100.667 -129 -176 -163c-2 -0.666992 -6.33301 -4.33398 -13 -11.001s-12.667 -9.33398 -18 -8.00098
c-14 -7.33301 -37 -15.333 -69 -24s-67.667 -13 -107 -13c-69.333 0 -137.666 10.667 -204.999 32c-5.33301 -2 -10.666 -3 -15.999 -3c-11.333 0 -27.333 6.83301 -48 20.5s-38.667 20.167 -54 19.5c-4 8 -11.667 11.333 -23 10l-23 19c-10 8.66699 -15 17.667 -15 27
c0 4 0.666992 8.33301 2 13c4 8.66699 11.667 19.334 23 32.001l33 29c10 -1.33301 17.667 -8.33301 23 -21c6 -16 11.333 -25.667 16 -29c15.333 -14 42 -30.667 80 -50c62.667 -29.333 124.334 -45.333 185.001 -48c6.66699 4 14 6 22 6c4.66699 0 12.5 -1.33301 23.5 -4
s19.167 -4 24.5 -4c7.33301 0 14.333 1.33301 21 4c74 2.66699 124 26.667 150 72c7.33301 14.667 22 32.334 44 53.001c2.66699 4 5 16.333 7 37c1.33301 16.667 6.66602 27 15.999 31l10 50c3.33301 20.667 3 38.334 -1 53.001c-8.66699 16 -24 29.667 -46 41l-58 26
c-10 1.33301 -21.333 7 -34 17s-23 16 -31 18c-13.333 -3.33301 -27 -5 -41 -5c-14.667 0 -35.667 2.66699 -63 8s-48.333 8 -63 8c-11.333 0 -22.333 -1 -33 -3c-5.33301 4 -21.666 10.333 -48.999 19c-22 6.66699 -36 16.334 -42 29.001
c-39.333 3.33301 -66.666 37.333 -81.999 102c-0.666992 6 -1 12 -1 18c0 47.333 18.333 85.666 55 114.999c-1.33301 10 1.66699 18 9 24l21 17l80 53c31.333 18.667 61.333 30.667 90 36c13.333 7.33301 32.333 14 57 20c38.667 8 59 12.333 61 13
c14 -4.66699 35.667 -6.66699 65 -6c15.333 2 33.166 -0.833008 53.499 -8.5s36.833 -11.5 49.5 -11.5c7.33301 -6 4.33301 -18.667 -9 -38c-6 -0.666992 -14.667 -4.66699 -26 -12s-21 -11 -29 -11c-4.66699 0 -10 1.33301 -16 4c-36.667 27.333 -80 41 -130 41
c-12 0 -24.333 -0.666992 -37 -2l-93 -45c-37.333 -19.333 -63.333 -42.333 -78 -69c-2 -8 -9.5 -18.333 -22.5 -31s-19.5 -24 -19.5 -34c0 -4 1.33301 -9.33301 4 -16s4 -12.667 4 -18c0 -47.333 -1.33301 -59.666 -4 -36.999c1.33301 -10.667 11.333 -16 30 -16
c63.333 -38.667 104.666 -58 123.999 -58c7.33301 0 14.333 0.666992 21 2c28 -2.66699 55.667 -5.66699 83 -9c31.333 -4.66699 54.666 -14 69.999 -28c25.333 4 48 6 68 6c50.667 0 87 -14.667 109 -44c46.667 -18.667 69.334 -59 68.001 -121z" />
    <glyph glyph-name="T" unicode="T" horiz-adv-x="890" 
d="M886 834c-30.667 -40 -82.001 -60.001 -154.001 -60.001c-17.333 0 -44.5 1.33301 -81.5 4s-64.833 4 -83.5 4c-16.667 0 -31.667 -0.666992 -45 -2c-9.33301 1.33301 -16.166 -1 -20.499 -7s-5.83301 -13.333 -4.5 -22
c2.66699 -19.333 2.33398 -40.666 -0.999023 -63.999c-6 -39.333 -9 -59.333 -9 -60c-4 -15.333 -4 -36 0 -62s4 -46.667 0 -62c-8.66699 -9.33301 -13 -18.666 -13 -27.999c0 -3.33301 3 -14.333 9 -33c4.66699 -15.333 5 -29.333 1 -42c4 0 6 -2.16699 6 -6.5
s1.33301 -7.16602 4 -8.49902c-3.33301 -14.667 -3.66602 -50.667 -0.999023 -108c2 -46 -3.66699 -79.333 -17 -100c-1.33301 -4.66699 -2 -8.66699 -2 -12c0 -6.66699 4.16699 -14.834 12.5 -24.501s11.833 -19.167 10.5 -28.5c9.33301 -60 -4.33398 -97.333 -41.001 -112
c-12.667 -8.66699 -28.334 -11.667 -47.001 -9c-8.66699 20 -11 67 -7 141c0.666992 2 2 29 4 81c1.33301 32.667 7 57 17 73c-23.333 74 -26.666 154 -9.99902 240c-13.333 41.333 -23.333 103.333 -30 186c-0.666992 9.33301 2.33301 20.166 9 32.499
s10.667 21.166 12 26.499c-5.33301 10.667 -16.666 17.667 -33.999 21l-44 8c-40 1.33301 -97.667 5 -173 11c-32 -1.33301 -77.333 -7.33301 -136 -18c-2.66699 -0.666992 -5.33398 -1 -8.00098 -1c-13.333 0 -16.333 14 -9 42c4.66699 2 21 13 49 33
c20 14.667 37.333 22 52 22c12.667 0 25 -5.33301 37 -16c4 -1.33301 19 -0.333008 45 3c15.333 2 36.333 -0.333008 63 -7c30 -7.33301 52 -11 66 -11c6 0 12 0.333008 18 1c10 -4.66699 28.667 -6.33398 56 -5.00098c25.333 0.666992 43.166 -2 53.499 -8
s31.5 -10 63.5 -12c28.667 -2 49.667 -7.33301 63 -16c13.333 -1.33301 30.833 0.833984 52.5 6.50098s36.5 8.5 44.5 8.5c5.33301 0 10 -0.666992 14 -2c15.333 4.66699 36.666 6.66699 63.999 6c39.333 -0.666992 61 -0.666992 65 0c24.667 1.33301 44.334 6 59.001 14
c3.33301 0 7 -0.333008 11 -1c8.66699 0.666992 13 -1.33301 13 -6c-0.666992 -3.33301 -1.66699 -6.66602 -3 -9.99902z" />
    <glyph glyph-name="U" unicode="U" horiz-adv-x="995" 
d="M913 847c2.66699 -18 2.00488 -39.668 -1.99512 -65.001c-4 -29.333 -6 -50.666 -6 -63.999c4 -8.66699 6 -17.334 6 -26.001c0 -11.333 -5 -26.333 -15 -45s-15 -32 -15 -40c0 -13.333 8.33301 -25.333 25 -36l-9 -78c-4 -0.666992 -6 -4 -6 -10
c0.666992 -10 0.666992 -15.333 0 -16c7.33301 -20 10.333 -44.333 9 -73c-6 -8.66699 -9 -17.667 -9 -27c0 -6.66699 2 -16.834 6 -30.501s6 -24.5 6 -32.5c0 -6.66699 -0.666992 -12.834 -2 -18.501s-2 -11.5 -2 -17.5c0 -10 2.66699 -25.333 8 -46s7.33301 -37 6 -49
c-0.666992 -8.66699 -0.333984 -21.667 0.999023 -39c2 -20 3 -34 3 -42c0 -40 -15 -63.333 -45 -70c-11.333 -8 -29.666 -16.667 -54.999 -26c1.33301 7.33301 2 15 2 23c0 12.667 -3 34 -9 64c-5.33301 27.333 -7.33301 50.333 -6 69c-8 7.33301 -22.667 8 -44 2
c-18 -7.33301 -42.667 -22 -74 -44c-19.333 -15.333 -48.666 -32 -87.999 -50c-45.333 -20.667 -75.333 -35.667 -90 -45c-16.667 -0.666992 -39.834 -6.16699 -69.501 -16.5s-52.834 -15.833 -69.501 -16.5c-22.667 -4.66699 -45.667 -7 -69 -7
c-74.667 0 -137 21.667 -187 65c-12.667 0.666992 -23.334 7.33398 -32.001 20.001c-14 18.667 -22 28.667 -24 30c1.33301 4.66699 2 9 2 13c0 10.667 -5.66699 22.5 -17 35.5s-17.333 24.167 -18 33.5c-8.66699 7.33301 -13 16.666 -13 27.999c0 6 1.66699 15.333 5 28
s5 22 5 28c0 13.333 -7 24 -21 32c0.666992 -9.33301 4.66699 12 12 64h2c3.33301 4.66699 5.66602 20.334 6.99902 47.001c0.666992 19.333 8.33398 31.333 23.001 36c-10.667 56.667 -9 96.667 5 120c3.33301 18 14 44.667 32 80c16 32.667 25 61 27 85
c9.33301 15.333 11.333 29.333 6 42c-8 6.66699 -11.333 17.334 -10 32.001c24.667 18 73.667 39 147 63c6 -18.667 9.33301 -26.667 10 -24l-66 -103c-24 -39.333 -41 -75.666 -51 -108.999c-3.33301 -22 -13.333 -63.667 -30 -125c-13.333 -50 -20 -91.667 -20 -125
c0 -21.333 2.33301 -42.333 7 -63c9.33301 -9.33301 13 -25.666 11 -48.999c-2.66699 -25.333 -1.33398 -42.333 3.99902 -51c34 -56.667 52.333 -86.667 55 -90c26 -31.333 56.667 -48 92 -50c14.667 1.33301 32.667 -4.83398 54 -18.501s36.666 -20.5 45.999 -20.5
c12 0 23.667 6 35 18c14 -2 27.667 -3 41 -3c29.333 0 59.666 6.66699 90.999 20l80 39c10 14 29.833 27.833 59.5 41.5s49.167 25.834 58.5 36.501c5.33301 3.33301 12.333 9 21 17c4 10.667 18 30.667 42 60c18.667 23.333 28 44 28 62c0 8 -1 15.667 -3 23
c-6.66699 14.667 -6.66699 30.667 0 48c9.33301 21.333 14 34 14 38c0 10 -6 19.333 -18 28c-6 31.333 -9.33301 72.333 -10 123v77c0 50 -3 90.667 -9 122c-6 7.33301 -9 14 -9 20c0 7.33301 8 15.166 24 23.499s25.667 15.5 29 21.5c8.66699 -2 19.834 1.5 33.501 10.5
s22.5 13.5 26.5 13.5c7.33301 0 12.666 -7 15.999 -21z" />
    <glyph glyph-name="V" unicode="V" horiz-adv-x="800" 
d="M763 829c-8.66699 -16 -19.8271 -42.333 -33.4941 -79s-24.834 -63 -33.501 -79c-10.667 -27.333 -25.334 -68 -44.001 -122c-19.333 -14.667 -34.333 -42 -45 -82c-11.333 -45.333 -22.666 -75 -33.999 -89c-8 -37.333 -19.667 -69.666 -35 -96.999
c1.33301 -12.667 -0.5 -25.5 -5.5 -38.5s-10.167 -25.5 -15.5 -37.5l-11 -27c-4 -26.667 -16.333 -63 -37 -109c-4 -16.667 -14.167 -30 -30.5 -40l-46.5 -28c-28.667 -2 -44.334 5 -47.001 21c-4.66699 9.33301 -20.667 58.333 -48 147c-7.33301 8 -13.833 23 -19.5 45
s-12.167 37 -19.5 45c2.66699 6.66699 4 12.667 4 18c0 10 -7.66699 21 -23 33s-21.666 24.667 -18.999 38c-18.667 36.667 -44.334 93.334 -77.001 170.001c2 4 3 8 3 12c0 8 -5.66699 16.667 -17 26c-14 12 -22.333 21 -25 27c-8 6 -13.667 23 -17 51
c-3.33301 25.333 -12.666 40.666 -27.999 45.999c-10 9.33301 -19.333 27.5 -28 54.5s-19 45.167 -31 54.5c3.33301 10.667 12.333 23.334 27 38.001c11.333 0.666992 22.333 6.33398 33 17.001c17.333 15.333 26.666 23.666 27.999 24.999
c17.333 -7.33301 27.333 -16.333 30 -27l21 -100c8.66699 -38 19.667 -68.333 33 -91c0 -10 5.5 -22.167 16.5 -36.5s16.167 -26.833 15.5 -37.5c7.33301 -6.66699 11.333 -28.334 12 -65.001c0.666992 -32 12.334 -48.333 35.001 -49c-2 -10 1.66699 -19.5 11 -28.5
s12.666 -18.167 9.99902 -27.5c10 -11.333 19.667 -37.333 29 -78c7.33301 -36 20.333 -59 39 -69c15.333 -26 32.333 -69 51 -129c11.333 -16.667 24 -17.667 38 -3c9.33301 23.333 25.333 57.666 48 102.999c0 16.667 8.16699 35 24.5 55s25.5 36 27.5 48
c-1.33301 6.66699 -2 13.334 -2 20.001c0 11.333 3.66699 25.666 11 42.999s11.333 30.666 12 39.999c15.333 4.66699 23.666 19.334 24.999 44.001c1.33301 29.333 4.66602 47 9.99902 53c7.33301 15.333 17 71.333 29 168c1.33301 14.667 8.66602 37 21.999 67
c11.333 27.333 17.333 50.666 18 69.999c29.333 10.667 60.666 18.334 93.999 23.001c12 -12 17 -23 15 -33z" />
    <glyph glyph-name="W" unicode="W" horiz-adv-x="1065" 
d="M1014 860h-3.99219c-2.66699 -76.667 -19.334 -133.334 -50.001 -170.001c3.33301 -24.667 -1.66699 -52.667 -15 -84c-16.667 -42.667 -26 -68.667 -28 -78c-16.667 -35.333 -28 -74 -34 -116c-8 -10.667 -18 -28.334 -30 -53.001c1.33301 -22 -6.66699 -53.333 -24 -94
c-6.66699 -22.667 -9.33398 -38.334 -8.00098 -47.001c-4.66699 -0.666992 -7 -3.66699 -7 -9c0.666992 -7.33301 1 -11.333 1 -12c1.33301 -4.66699 2 -9.66699 2 -15c0 -10.667 -3.33301 -24.667 -10 -42c-10 -24.667 -15 -38 -15 -40
c-7.33301 -22 -19.333 -53.333 -36 -94c-2.66699 -1.33301 -8 -4.66602 -16 -9.99902c-5.33301 -4 -11.333 -5 -18 -3c-13.333 17.333 -24.333 41.666 -33 72.999c-12.667 48.667 -19.667 74.667 -21 78c6 4 7.33301 9 4 15c-4.66699 8.66699 -7 14.334 -7 17.001
c-10 10 -15.5 31.667 -16.5 65s-6.16699 55 -15.5 65c-6 16 -16 39.333 -30 70c-1.33301 22.667 -10.333 51 -27 85c-2 3.33301 -4.66699 16.333 -8 39c-2.66699 17.333 -9 28 -19 32c2 9.33301 -4.66699 28 -20 56c-10 -7.33301 -17.667 -20.333 -23 -39
c-6.66699 -22 -12 -35.667 -16 -41c-17.333 -12.667 -29.333 -37.667 -36 -75c-6.66699 -40 -16 -66 -28 -78c-2 -28.667 -12 -70.667 -30 -126c-16.667 -52.667 -26 -95.334 -28 -128.001c-7.33301 -5.33301 -11.833 -17.5 -13.5 -36.5s-5.16699 -31.5 -10.5 -37.5
c-2 -0.666992 -3.66699 -5 -5 -13s-4.33301 -12 -9 -12c-3.33301 0 -6.33301 0.666992 -9 2c-24.667 29.333 -43.334 75.666 -56.001 138.999c2 10.667 -1.5 22.834 -10.5 36.501s-13.5 23.834 -13.5 30.501c0 5.33301 2 11 6 17c2 6.66699 -3 16.334 -15 29.001
c-8 8.66699 -15 23.667 -21 45c-0.666992 0.666992 -1.33398 1.66699 -2.00098 3s-0.666992 15 0 41c0.666992 18 -6.66602 27.667 -21.999 29c-4.66699 7.33301 -11.334 27.333 -20.001 60c-6.66699 26 -17 43.667 -31 53c-12.667 23.333 -31 59.333 -55 108
c0.666992 8.66699 -1.33301 19.167 -6 31.5s-5.66699 23.5 -3 33.5c-12.667 12.667 -24.667 35.667 -36 69s-23.333 56.333 -36 69c-2 15.333 4.66699 27 20 35c21.333 12 33.666 20 36.999 24c9.33301 7.33301 24.666 10.333 45.999 9c18 -34.667 27 -68.334 27 -101.001
c0 -14 -1.66699 -26.667 -5 -38c16 -2.66699 26.333 -15 31 -37c6 -24.667 13.333 -39.667 22 -45c3.33301 -7.33301 5.33301 -28.166 6 -62.499s10.667 -55.5 30 -63.5c7.33301 -8 14.666 -26.333 21.999 -55c6 -25.333 15.333 -42 28 -50
c4.66699 -32 17.667 -75.333 39 -130c1.33301 -8.66699 3 -17.667 5 -27s7.33301 -15 16 -17h15c14 8.66699 24.167 29.5 30.5 62.5s16.166 54.167 29.499 63.5c6 30.667 16.667 74 32 130c13.333 51.333 27 132 41 242c0 0.666992 7.66699 22.667 23 66
c10 26.667 26.667 40.667 50 42c39.333 -14 59 -39.333 59 -76c0 -6 -1.83301 -13.667 -5.5 -23s-5.5 -16 -5.5 -20c0 -5.33301 1.66699 -10.333 5 -15c11.333 -10.667 20.333 -28.667 27 -54c7.33301 -28 14.333 -46.333 21 -55
c4.66699 -7.33301 6.33398 -26.666 5.00098 -57.999c-0.666992 -25.333 6.66602 -41.333 21.999 -48c6.66699 -8.66699 9.66699 -24 9 -46s2.33301 -37.333 9 -46c3.33301 -35.333 17 -83 41 -143l23 -8c7.33301 -1.33301 12.333 3.33398 15 14.001
c17.333 41.333 40 103.333 68 186c3.33301 33.333 11 57.666 23 72.999c0.666992 26.667 8.33398 63.667 23.001 111s22.334 83 23.001 107c4 5.33301 5.66699 22 5 50c-0.666992 22 6.66602 34.667 21.999 38c7.33301 10 31.666 24 72.999 42
c-2 -3.33301 -1 -5.83301 3 -7.5s5.33301 -4.16699 4 -7.5z" />
    <glyph glyph-name="X" unicode="X" horiz-adv-x="890" 
d="M860 46c-8.66699 -14 -23.9941 -31.6699 -45.9941 -53.0029c-6.66699 -1.33301 -12.667 -2 -18 -2c-18.667 0 -39 8 -61 24c-30 21.333 -48 33.833 -54 37.5s-12.667 16.834 -20 39.501c-6 18.667 -16 28 -30 28c-4 0 -8.33301 -0.666992 -13 -2
c-4.66699 10 -17.667 25.667 -39 47c-18 17.333 -28.333 34 -31 50c-16.667 10 -36 30 -58 60s-41.333 50 -58 60c-8.66699 5.33301 -16.834 15.833 -24.501 31.5s-14.167 25.834 -19.5 30.501c-20 -4.66699 -41.667 -22.334 -65 -53.001c-20 -26.667 -46 -68 -78 -124
c-2.66699 -4 -16.334 -19.667 -41.001 -47c-17.333 -18.667 -26.666 -36.667 -27.999 -54c-2.66699 -9.33301 -12.334 -19.666 -29.001 -30.999s-25.334 -23.333 -26.001 -36c-41.333 -37.333 -74 -56 -98 -56c-7.33301 0 -15 1 -23 3v20c14 16 37.667 37.333 71 64
c6.66699 4.66699 16.334 13 29.001 25c3.33301 15.333 16 32.5 38 51.5s34.667 36.167 38 51.5c9.33301 16.667 35 53.667 77 111c33.333 44.667 55.666 83.334 66.999 116.001c2.66699 24.667 -9 47.667 -35 69c-34.667 28 -54.667 47.333 -60 58
c-14 20 -30.667 36.333 -50 49c-6 20 -21.333 41.333 -46 64c-29.333 26 -47.333 45 -54 57c-24 18.667 -38 36.334 -42 53.001l37 43c16.667 15.333 35 22.666 55 21.999c8.66699 -4 15.667 -15.167 21 -33.5s14 -28.833 26 -31.5c18 -8 33.333 -28.333 46 -61
s26.667 -53.667 42 -63c30 -30.667 45 -54 45 -70c0 -6 -1 -12 -3 -18c5.33301 -8 16.5 -15.5 33.5 -22.5s28.5 -16.167 34.5 -27.5c4 -1.33301 7.66699 -2 11 -2c6.66699 0 13.167 4.83301 19.5 14.5s10.833 15.5 13.5 17.5c8 20.667 24.5 49.5 49.5 86.5
s41.5 65.5 49.5 85.5c10.667 4 19.167 15.333 25.5 34s13.5 30.667 21.5 36c11.333 2 23 12.667 35 32c10.667 17.333 23.667 26.333 39 27c3.33301 0 9.16602 1.83301 17.499 5.5s14.166 5.5 17.499 5.5c7.33301 0 11 -6.33301 11 -19
c-7.33301 -15.333 -38.666 -50 -93.999 -104c2 -12 -4.16699 -24.167 -18.5 -36.5s-20.5 -24.5 -18.5 -36.5c-32 -34.667 -61.333 -75 -88 -121c-20.667 -23.333 -31.334 -46.333 -32.001 -69c2 -15.333 13.333 -31.5 34 -48.5s32.667 -31.833 36 -44.5
c8 -2 14.667 -8.33301 20 -19l14 -25c15.333 -12 33.666 -32.667 54.999 -62l59 -70c23.333 -26 47 -44 71 -54c0 -6 8 -15.667 24 -29h21c6.66699 -11.333 26 -22 58 -32c26.667 -9.33301 40 -23 40 -41c0 -3.33301 -0.333008 -7 -1 -11z" />
    <glyph glyph-name="Y" unicode="Y" horiz-adv-x="840" 
d="M812 832c-4.66699 0 -6.66895 -2.6709 -6.00195 -8.00391s-0.333008 -8.66602 -3 -9.99902l-120 -191c-14.667 -10.667 -27.5 -31 -38.5 -61s-22.833 -50.333 -35.5 -61c-7.33301 -22 -29.666 -52.333 -66.999 -91c1.33301 -16.667 -5.66699 -33.667 -21 -51
c-18 -19.333 -28.333 -34 -31 -44c1.33301 -11.333 -0.333984 -24.666 -5.00098 -39.999c-5.33301 -18 -8 -30 -8 -36c0 -7.33301 2.16699 -15.833 6.5 -25.5s6.5 -17.5 6.5 -23.5c0 -8 -3.16699 -18.333 -9.5 -31s-9.5 -22.334 -9.5 -29.001
c0 -9.33301 3.66699 -18.333 11 -27c-2 -8.66699 0 -18.334 6 -29.001c-5.33301 -5.33301 -8.33301 -21.666 -9 -48.999c-0.666992 -17.333 -8.33398 -26 -23.001 -26c-3.33301 0 -7.33301 0.333008 -12 1c-10.667 -2 -24.334 -7 -41.001 -15
c-24 10.667 -36 20.334 -36 29.001c6 24 9 58.333 9 103c0.666992 49.333 2.33398 83 5.00098 101c0 5.33301 1 19.333 3 42c2 18.667 2 33.334 0 44.001c-2.66699 15.333 -9.66699 26.666 -21 33.999c-9.33301 2.66699 -19.666 12.167 -30.999 28.5
s-22.666 25.5 -33.999 27.5c-3.33301 14 -16 33 -38 57c-18.667 20.667 -27.667 41 -27 61c-12.667 5.33301 -28.167 17.5 -46.5 36.5s-34.5 31.167 -48.5 36.5l-48 50c-18.667 20 -27.334 41.667 -26.001 65c-42.667 21.333 -64 49 -64 83
c0 25.333 16.333 46.666 49 63.999c4.66699 1.33301 12.334 4.5 23.001 9.5s18.667 7.5 24 7.5c6.66699 0 12.667 -2.66699 18 -8c-2 -40.667 5 -65 21 -73c0.666992 -4 5 -19 13 -45c6 -18 8.66699 -34.667 8 -50c16.667 -5.33301 33.667 -11.166 51 -17.499
s28.666 -17.833 33.999 -34.5c2 -29.333 18.333 -57.666 49 -84.999c45.333 -39.333 70.333 -62 75 -68c-2.66699 -10.667 4.33301 -22.667 21 -36c16.667 -5.33301 30.667 -15.666 42 -30.999l12 -18.5c4 -6.33301 9.33301 -9.5 16 -9.5c2 0 4.33301 0.333008 7 1
c30.667 14 59.334 41 86.001 81l64 102c18.667 24.667 34 61 46 109c2.66699 10.667 12.667 26.667 30 48c15.333 18 23 35.333 23 52c0 4 -0.333008 8 -1 12c14.667 24 44.334 44.667 89.001 62c8.66699 -13.333 12.667 -21 12 -23z" />
    <glyph glyph-name="Z" unicode="Z" horiz-adv-x="855" 
d="M856 67c-3.33301 -15.333 -14.9951 -27.999 -34.9951 -37.999c-24 -12 -38.333 -21.667 -43 -29c-40.667 -18 -71.334 -18.333 -92.001 -1c-14 4.66699 -33.667 6.66699 -59 6c-28.667 -0.666992 -48.334 0 -59.001 2v3c10 0 -18.667 1.66699 -86 5
c-36 2 -64.333 -0.666992 -85 -8c-92.667 8.66699 -205.334 2 -338.001 -20c-14.667 -2 -34.334 3 -59.001 15c2 14 12.667 28.667 32 44s30.333 29.333 33 42c8.66699 2.66699 15.667 10.667 21 24c7.33301 16 13 25.667 17 29c16 17.333 37.5 46.333 64.5 87
s48.5 69.667 64.5 87c0.666992 9.33301 6 18.333 16 27s16 16.667 18 24c20 32.667 38.667 52.334 56 59.001c0 25.333 7.66699 51.666 23 78.999c10.667 4.66699 22.667 21.334 36 50.001c9.33301 21.333 29.666 53.333 60.999 96c28.667 40.667 48 73.667 58 99
c4.66699 12 -1 20.667 -17 26c-57.333 -0.666992 -141.666 0.333008 -252.999 3c-14.667 9.33301 -53 10 -115 2c-8 0.666992 -18.667 -0.333008 -32 -3c4 0 -9.66699 -1.66699 -41 -5c-16.667 -2 -27.334 0.666992 -32.001 8l31 40c14.667 16 29.334 25 44.001 27
c4.66699 -5.33301 10 -6.33301 16 -3c9.33301 4.66699 16 7 20 7c32 -4 79.667 -9.33301 143 -16h68c27.333 0 49 -4 65 -12c4.66699 -0.666992 9.16699 1 13.5 5s8.83301 6 13.5 6c14.667 -3.33301 42.667 -3.66602 84 -0.999023c36 2.66699 62.667 0.333984 80 -6.99902
c4 4 10.667 6 20 6h25c6.66699 -2 11.334 -6.33301 14.001 -13s1.33398 -12 -3.99902 -16c-4 -9.33301 -14.167 -19 -30.5 -29s-25.166 -21.333 -26.499 -34c-2.66699 -18.667 -21.334 -40 -56.001 -64c-6 -30 -22.667 -64 -50 -102c-32.667 -45.333 -53 -77.333 -61 -96
c-10.667 -12 -23.334 -32.833 -38.001 -62.5s-28.334 -51.167 -41.001 -64.5l-41 -29c-15.333 -12.667 -23 -27 -23 -43c0 -6 1 -12.667 3 -20l-24 -47c-12 -17.333 -26.333 -26.333 -43 -27c-4.66699 -4 -7 -9.66699 -7 -17c0 -3.33301 0.5 -8.33301 1.5 -15
s1.5 -11.667 1.5 -15c0 -10.667 -5 -18.334 -15 -23.001c-2 -4 -3 -8.33301 -3 -13c0 -10 8 -20.333 24 -31c-6 0.666992 23.667 1 89 1c37.333 0 66 -4 86 -12c7.33301 -3.33301 16 -3.33301 26 0c11.333 4.66699 20 6.66699 26 6c32 2.66699 76.333 0 133 -8
c36 -2.66699 90 -1.66699 162 3c2 3.33301 4 3.66602 6 0.999023c2.66699 -4.66699 5.66699 -6 9 -4c4.66699 3.33301 18.667 5.66602 42 6.99902c19.333 1.33301 31.666 7 36.999 17c6.66699 3.33301 13 3.66602 19 0.999023c6.66699 -2.66699 9 -8 7 -16z" />
    <glyph glyph-name="bracketleft" unicode="[" horiz-adv-x="500" 
d="M433 -52c0 -2.66699 -1.00098 -4.83301 -3.00098 -6.5s-12.333 -13.167 -31 -34.5c-14.667 -16.667 -25 -25 -31 -25c-7.33301 0 -17.333 3 -30 9c-9.33301 4.66699 -20.666 5 -33.999 1c-8.66699 4 -17.667 5 -27 3c-14.667 -2.66699 -23.334 -4 -26.001 -4
c-6 0 -12.333 2.33301 -19 7l-36 -7c-6 2.66699 -18.333 5.66699 -37 9c-8.66699 -4 -18 -6 -28 -6c-38.667 0 -58 9.33301 -58 28c15.333 57.333 24.333 87.333 27 90l-1 35c-1.33301 48.667 2.66699 97.334 12 146.001c-4.66699 13.333 -7 40 -7 80
c0 14.667 2.66699 36.5 8 65.5s8 50.167 8 63.5c0 37.333 -5.33301 62.666 -16 75.999c0 10.667 0.666992 31 2 61c0.666992 25.333 1 45.666 1 60.999c0 58.667 -4.66699 100 -14 124c5.33301 55.333 4 91.333 -4 108c0 7.33301 2.83301 22.833 8.5 46.5
s8.5 39.834 8.5 48.501l-2 10c-8 4.66699 -13.333 16.667 -16 36s-10.334 30.666 -23.001 33.999l1 8c31.333 15.333 60.333 23 87 23c8 0 23.833 -3 47.5 -9s36.834 -10.667 39.501 -14c0 -1.33301 1 -2.66602 3 -3.99902c17.333 -2.66699 44.333 -3 81 -1l18 -5
c12 5.33301 38.667 8 80 8c6 0 9 -2.66699 9 -8c0 -6 -3.83301 -14.667 -11.5 -26s-14.834 -17 -21.501 -17c-43.333 0 -68.333 1.33301 -75 4c0.666992 5.33301 -7.33301 8 -24 8c-3.33301 0 -17.666 -2 -42.999 -6c-16.667 -2.66699 -31.334 -1.33398 -44.001 3.99902
c-16.667 -11.333 -19.667 -21.666 -9 -30.999l1 -14c0.666992 -15.333 -1.33301 -42 -6 -80c-5.33301 -42 -11 -67.333 -17 -76c2 -22 10 -50.667 24 -86c-2 -40.667 -9.66699 -84 -23 -130c4.66699 -11.333 7 -53.333 7 -126c0 -5.33301 1.33301 -13.5 4 -24.5
s4 -18.5 4 -22.5c0 -8 -2.33301 -31.667 -7 -71c-3.33301 -28 -2.66602 -51.667 2.00098 -71c-2 -2.66699 -7.33301 -36.334 -16 -101.001c11.333 -29.333 17 -61.333 17 -96c0 -21.333 -3 -35.666 -9 -42.999c14 -27.333 27.5 -45.833 40.5 -55.5s34.5 -14.5 64.5 -14.5
c7.33301 0 18 1 32 3s24.667 3 32 3c10 0 22.833 3 38.5 9s27.834 9.33301 36.501 10c3.33301 -2 5 -4.33301 5 -7z" />
    <glyph glyph-name="backslash" unicode="\" horiz-adv-x="600" 
d="M694 -225c4 -18 -3.33105 -32.999 -21.998 -44.999c-9.33301 -2.66699 -18 -1.66699 -26 3c-11.333 6.66699 -19 10.167 -23 10.5s-9.66699 1.16602 -17 2.49902c-18.667 18.667 -40.667 59.667 -66 123c-6.66699 8.66699 -16.667 22.667 -30 42
c0 0.666992 -31.667 62.667 -95 186c-2.66699 13.333 -12.667 33.666 -30 60.999c-14.667 23.333 -22.334 44.666 -23.001 63.999c-7.33301 6 -14.5 17.833 -21.5 35.5s-14.167 29.5 -21.5 35.5c-5.33301 17.333 -19.666 43.333 -42.999 78
c-20.667 32 -33.667 59.333 -39 82c0 16.667 -6 33 -18 49l-32 41l-33 58c-5.33301 20 -16.333 44.333 -33 73c-20 34 -32.667 57.667 -38 71c-30 74 -56.667 128.667 -80 164c-1.33301 5.33301 -5.66602 14.333 -12.999 27c-6.66699 10.667 -10 20.334 -10 29.001
c-10.667 17.333 -20 37.666 -28 60.999c-24 31.333 -39.333 67 -46 107c6.66699 18 18 27.667 34 29c2 -0.666992 12.667 -6 32 -16c13.333 -6.66699 25.666 -10 36.999 -10c7.33301 -6.66699 17 -24.667 29 -54c3.33301 -14.667 11.333 -34.667 24 -60
c3.33301 -18 12.166 -42.167 26.499 -72.5s23.166 -54.5 26.499 -72.5c2 -13.333 8.33301 -29.666 19 -48.999c12.667 -22 20.334 -37 23.001 -45c6.66699 -22 19 -52.333 37 -91c23.333 -24.667 39.333 -56.667 48 -96c7.33301 -3.33301 11.5 -12.666 12.5 -27.999
s4.16699 -24.333 9.5 -27c35.333 -28.667 63.666 -85.667 84.999 -171c10.667 -6 20 -18.667 28 -38c8.66699 -21.333 16 -35 22 -41c16.667 -51.333 35.334 -85.666 56.001 -102.999c17.333 -38 47.666 -92.333 90.999 -163l23.5 -42l23.5 -43
c0 -16.667 12.333 -41.334 37 -74.001z" />
    <glyph glyph-name="bracketright" unicode="]" horiz-adv-x="500" 
d="M434 -88l-0.999023 -6.99902c-31.333 -15.333 -60.333 -23 -87 -23c-8 0 -23.833 3 -47.5 9s-36.834 10.667 -39.501 14c0 0.666992 -1 2 -3 4c-17.333 2 -44.333 2.33301 -81 1l-17 5c-12.667 -5.33301 -39.667 -8 -81 -8c-6 0 -9 2.66699 -9 8
c0 6 3.83301 14.667 11.5 26s14.834 17 21.501 17c43.333 0 68.333 -1.33301 75 -4c-0.666992 -5.33301 7.33301 -8 24 -8c3.33301 0 17.666 2 42.999 6c16.667 2.66699 31.334 1.33398 44.001 -3.99902c16.667 11.333 19.667 21.666 9 30.999l-1 14
c-0.666992 15.333 1.33301 42 6 80c5.33301 42 11 67.333 17 76c-2 22 -10 50.667 -24 86c2 40.667 9.66699 84 23 130c-4.66699 11.333 -7 53 -7 125c0 6 -1.33301 14.5 -4 25.5s-4 18.5 -4 22.5c0 8 2.33301 31.667 7 71c3.33301 28 2.66602 51.667 -2.00098 71
c2 2.66699 7.33301 36.334 16 101.001c-11.333 29.333 -17 61.333 -17 96c0 21.333 3 35.666 9 42.999c-14 27.333 -26.667 45.666 -38 54.999c-14.667 10 -37 15 -67 15c-7.33301 0 -18 -1.16699 -32 -3.5s-24.667 -3.5 -32 -3.5c-10 0 -22.833 -2.83301 -38.5 -8.5
s-27.834 -8.83398 -36.501 -9.50098c-3.33301 2 -5 4.33301 -5 7s1 4.83398 3 6.50098s12.333 13.167 31 34.5c14.667 16.667 25 25 31 25c7.33301 0 17.333 -3 30 -9c9.33301 -4.66699 20.666 -5 33.999 -1c8.66699 -4 17.667 -5 27 -3c14.667 2.66699 23.334 4 26.001 4
c6 0 12.333 -2.33301 19 -7l36 6c6.66699 -2 19.334 -4.66699 38.001 -8c8 4 17 6 27 6c39.333 0 59 -9.33301 59 -28c-16 -57.333 -25.333 -87.333 -28 -90l1 -35c1.33301 -48.667 -2.66699 -97.334 -12 -146.001c4.66699 -13.333 7 -40.333 7 -81
c0 -14 -2.66699 -35.5 -8 -64.5s-8 -50.167 -8 -63.5c0 -37.333 5.33301 -62.666 16 -75.999c0 -10.667 -0.666992 -31 -2 -61c-0.666992 -25.333 -1 -45.666 -1 -60.999c0 -58.667 4.66699 -100 14 -124c-4.66699 -55.333 -3.33398 -91.333 3.99902 -108
c0 -7.33301 -2.83301 -22.833 -8.5 -46.5s-8.5 -39.834 -8.5 -48.501l2 -10c8 -4.66699 13.333 -16.667 16 -36s10.334 -31 23.001 -35z" />
    <glyph glyph-name="asciicircum" unicode="^" horiz-adv-x="500" 
d="M430 859c-2.66699 -14 -8.33105 -22 -16.998 -24c-10.667 -9.33301 -25 -13.333 -43 -12c-16 8.66699 -37.667 24.334 -65 47.001c-11.333 4.66699 -21.166 12.667 -29.499 24l-24.5 33c-6.66699 8 -15 14.333 -25 19c-21.333 -4.66699 -40.333 -20 -57 -46
c-8 -12.667 -22.667 -29.334 -44 -50.001c-6 -8.66699 -19.667 -17 -41 -25c-2 -2 -4.66699 -2 -8 0l-4 2l-2 1c-0.666992 10 5.66602 19.167 18.999 27.5s21.666 16.5 24.999 24.5c4 2 7.66699 6.66699 11 14c1.33301 3.33301 4 5 8 5
c11.333 8.66699 27.333 27.334 48 56.001c16 21.333 31.667 35.666 47 42.999c12.667 12 33.667 25.333 63 40c1.33301 -2 3.66602 -3.33301 6.99902 -4c0 -24.667 4 -42.667 12 -54c8 -16.667 20.667 -29.334 38 -38.001c11.333 -25.333 23.333 -41.666 36 -48.999
c3.33301 -8 9.66602 -14 18.999 -18c14.667 -6 22.334 -9 23.001 -9c2 -2 3.33301 -4.33301 4 -7z" />
    <glyph glyph-name="underscore" unicode="_" horiz-adv-x="600" 
d="M600 -84h-600v60h600v-60z" />
    <glyph glyph-name="grave" unicode="`" horiz-adv-x="180" 
d="M168 729c-2.66699 -1.33301 -6 -5.66699 -10 -13c-0.666992 -1.33301 -2 -1.66602 -4 -0.999023c-24.667 11.333 -44.334 34 -59.001 68l-54 51c-20 21.333 -30 43.333 -30 66c6 1.33301 14 4.66602 24 9.99902c16.667 -2.66699 33.334 -5 50.001 -7
c21.333 -3.33301 35 -10.666 41 -21.999c-2 -21.333 4.33301 -47.333 19 -78c15.333 -32.667 23 -57.334 23 -74.001z" />
    <glyph glyph-name="a" unicode="a" 
d="M598 45c-50 -27.333 -81.667 -40.998 -95 -40.998c-1.33301 -2.66699 -2.66602 -4 -3.99902 -4c-0.666992 0 -2 1.66699 -4 5s-4 5 -6 5c-0.666992 0 -1.66699 -0.333008 -3 -1c4 11.333 2.66699 24.666 -4 39.999c-98.667 -32 -202.334 -49.333 -311.001 -52
c-22.667 0.666992 -53.334 7.33398 -92.001 20.001c-17.333 0 -32.666 8.66699 -45.999 26l-33 44c-4.66699 39.333 -4 62 2 68c6.66699 35.333 29 66 67 92l101 59c3.33301 2.66699 14.666 4.66699 33.999 6c15.333 2 24.333 8 27 18c28.667 12 92.334 22.667 191.001 32
c16.667 0 37.667 6.33301 63 19c1.33301 3.33301 2 7 2 11c0 5.33301 -1.5 12.666 -4.5 21.999s-4.5 16.333 -4.5 21c0 7.33301 2.33301 13.666 7 18.999l-1 18c-4.66699 3.33301 -24 21.666 -58 54.999c-22 22.667 -45.333 34 -70 34c-6 0 -12.333 -0.666992 -19 -2
c-9.33301 -1.33301 -20.333 0 -33 4c-14.667 4.66699 -24.334 7 -29.001 7c-6.66699 0 -12.667 -1.66699 -18 -5c-9.33301 -10.667 -29.666 -23 -60.999 -37c-27.333 -12 -45.333 -26.333 -54 -43c-6.66699 1.33301 -11.667 -0.666992 -15 -6c-24.667 0 -49 9.66699 -73 29
v15c46.667 22.667 78 37 94 43c36 14 71 22.667 105 26c23.333 8 49 12 77 12c34 0 85.333 -8.66699 154 -26c-2 -18 9 -31.167 33 -39.5s36.333 -20.833 37 -37.5c2 -12.667 5 -33 9 -61c8.66699 -9.33301 14 -25 16 -47c3.33301 -26 6.33301 -42.667 9 -50
c-14 -29.333 -14 -51 0 -65c-1.33301 -19.333 -0.833008 -49.666 1.5 -90.999s2.83301 -72 1.5 -92c12 -23.333 14.333 -40 7 -50zM491 142.002l-1.00195 143.998c-3.33301 5.33301 -9.5 8.83301 -18.5 10.5s-17.5 3.16699 -25.5 4.5
c-19.333 -1.33301 -47.666 1.33398 -84.999 8.00098c-25.333 6.66699 -43 6 -53 -2c-28 1.33301 -57.333 -6 -88 -22l-77 -42c-32 -37.333 -48 -60.666 -48 -69.999c0 -8.66699 2.66699 -17.667 8 -27c-0.666992 -14.667 1 -37 5 -67
c17.333 -2.66699 37.333 -9.33398 60 -20.001c34 -16.667 52.333 -25.334 55 -26.001c8.66699 2.66699 34.334 6.33398 77.001 11.001c31.333 4 54 12 68 24c35.333 -3.33301 76.333 21.334 123 74.001z" />
    <glyph glyph-name="b" unicode="b" horiz-adv-x="765" 
d="M692 302c-16 -28 -35.3379 -71.3369 -58.0049 -130.004c-18.667 -24 -65.667 -66.333 -141 -127c-87.333 -30.667 -147 -46 -179 -46c-22.667 0 -44.334 3.33301 -65.001 10c-38.667 6.66699 -96.667 16 -174 28c-14.667 -4 -39.334 -8 -74.001 -12
c-0.666992 3.33301 -1 6.66602 -1 9.99902c0 11.333 7.33301 24.833 22 40.5s22.334 29.5 23.001 41.5c0.666992 14.667 3.66699 45 9 91c12 10 17 19 15 27c-11.333 5.33301 -17.333 12.333 -18 21c-0.666992 -5.33301 -1 20.334 -1 77.001
c-0.666992 31.333 3.33301 56.333 12 75c-9.33301 13.333 -13.333 34.666 -12 63.999c0.666992 34.667 -0.333008 56.667 -3 66c-1.33301 21.333 2.33398 48.666 11.001 81.999c-12.667 52.667 -19 114.334 -19 185.001c0 62.667 5 134.667 15 216c4.66699 2 6.66699 6 6 12
v14c-18.667 4.66699 -28.667 18.667 -30 42c2 -28.667 3 -9 3 59c4.66699 5.33301 2.33398 18 -6.99902 38c-2 3.33301 -3 7 -3 11l24 30c2.66699 0.666992 14.334 6 35.001 16c16 6.66699 28.667 10 38 10c12 0 22 -4.66699 30 -14c2 -7.33301 1 -15.166 -3 -23.499
s-5.66699 -15.166 -5 -20.499c6 -11.333 9 -23.666 9 -36.999c0 -9.33301 -2.66699 -24.833 -8 -46.5s-7.66602 -38.167 -6.99902 -49.5c14 -30 13.333 -54.667 -2 -74c-3.33301 -4 -5.33301 -12.333 -6 -25c8 -8.66699 13 -20 15 -34c1.33301 -10 1.33301 -23.667 0 -41
c-2 -22 -3 -34.667 -3 -38c-0.666992 -6 0 -16 2 -30c2 -17.333 3 -29.666 3 -36.999c0 -27.333 -9.66699 -44.333 -29 -51c-1.33301 -4.66699 -2 -8.66699 -2 -12c0 -8 4.33301 -16.667 13 -26s13 -18 13 -26c0 -3.33301 -1 -7.33301 -3 -12c4.66699 -4 7 -11 7 -21
c-0.666992 -16 -0.666992 -24.667 0 -26c-12.667 -25.333 -15.667 -42 -9 -50c4 -8 16 -12 36 -12c6.66699 9.33301 22 14.833 46 16.5s40.167 5.83398 48.5 12.501s17.833 10 28.5 10c5.33301 0 12.833 -1 22.5 -3s16.834 -3 21.501 -3c10 0 19.667 3 29 9
c8.66699 3.33301 17 5 25 5c9.33301 0 22.166 -2.5 38.499 -7.5s29.166 -7.5 38.499 -7.5c6.66699 0 13.334 0.666992 20.001 2c14 -4 34.333 -13 61 -27c5.33301 -13.333 19.833 -22.5 43.5 -27.5s38.834 -13.167 45.501 -24.5c0.666992 -10 7.33398 -22.667 20.001 -38
s18.667 -29.333 18 -42c16.667 -38 25 -65.333 25 -82c0 -14 -3.33301 -26.667 -10 -38zM588.995 286.996c-9.33301 21.333 -13 56.6699 -11 106.003l-42 44c-3.33301 9.33301 -13.833 18.666 -31.5 27.999s-28.834 18.666 -33.501 27.999c-69.333 26.667 -130 40 -182 40
c-14.667 10.667 -23.667 9.66699 -27 -3c-53.333 -14.667 -93.333 -37.334 -120 -68.001c0.666992 -4.66699 -0.833008 -10.167 -4.5 -16.5s-5.5 -10.5 -5.5 -12.5c0 -3.33301 2 -6.66602 6 -9.99902c4 -20.667 5.33301 -48 4 -82c-6 -10.667 -9 -22.334 -9 -35.001
c0 5.33301 5 -19.334 15 -74.001c-1.33301 -2 -3 -38 -5 -108c-10 -26 -10 -43 0 -51c6.66699 2 13 3 19 3c9.33301 0 22.833 -3 40.5 -9s32.167 -8.66699 43.5 -8c64.667 -22.667 122.334 -21.667 173.001 3c42 0.666992 86 37.334 132 110.001c10 12 18 30 24 54z" />
    <glyph glyph-name="c" unicode="c" horiz-adv-x="620" 
d="M604 113c-13.333 -37.333 -47.6621 -65.9961 -102.995 -85.9961c-42.667 2 -86.667 -8.66699 -132 -32c-6.66699 2 -13.667 0.833008 -21 -3.5s-14.333 -5.16602 -21 -2.49902c-10.667 2 -25.334 5.33301 -44.001 10l-122 27c-48 12 -79 35.667 -93 71
c-22.667 10 -40.334 34.333 -53.001 73c2 19.333 -3 42.666 -15 69.999c4 10 5.83301 26.167 5.5 48.5s0.5 37.833 2.5 46.5l38 69c15.333 26.667 33 45 53 55c14.667 20.667 36.667 41.334 66 62.001l76 52c11.333 3.33301 29.666 8.33301 54.999 15
c14 8 42.667 7.33301 86 -2c3.33301 4 11.666 6 24.999 6c9.33301 1.33301 21.333 0.333008 36 -3c16.667 0.666992 41.334 -0.333008 74.001 -3c10 -2 17.667 -5.66699 23 -11c-1.33301 -8.66699 -6 -16.667 -14 -24c-10.667 -9.33301 -17.334 -16.333 -20.001 -21
c-22 -14 -51 -21 -87 -21c-14 0 -36.167 1.5 -66.5 4.5s-52.833 4.5 -67.5 4.5c-42.667 0 -76.334 -9.66699 -101.001 -29c-14.667 -8 -31.334 -25 -50.001 -51c-5.33301 -0.666992 -16 -12.667 -32 -36c-2.66699 -10.667 -6.66699 -21 -12 -31
c-2 -24 -0.666992 -53.333 4 -88c6 -42.667 9 -70.334 9 -83.001c9.33301 -12.667 26.333 -29.334 51 -50.001c4 -10 25.333 -30.667 64 -62c14.667 -20.667 41.334 -33.334 80.001 -38.001c32 -3.33301 64.333 -7 97 -11c77.333 19.333 142 54.666 194 105.999
c12.667 -4.66699 17.667 -15.334 15 -32.001z" />
    <glyph glyph-name="d" unicode="d" horiz-adv-x="765" 
d="M696 30c-19.333 -14.667 -52.002 -18.6689 -98.002 -12.002c-7.33301 21.333 -23 29.333 -47 24c-78 -39.333 -190 -53.666 -336 -42.999c-6 0.666992 -14 4 -24 10s-18.333 9 -25 9c-4 0 -8 -0.666992 -12 -2c-6 15.333 -23.333 25.5 -52 30.5s-45 16.5 -49 34.5
c-8.66699 10.667 -14.334 26.667 -17.001 48c-20 18 -30 38.333 -30 61c-4 14 -6 27.667 -6 41c0 22 6 47.333 18 76c17.333 43.333 27 68.333 29 75c2.66699 9.33301 15.334 20 38.001 32c18.667 9.33301 26.334 23 23.001 41c12.667 12 27.334 31.667 44.001 59
c22.667 21.333 59 30.666 109 27.999c18 36.667 66 55 144 55c8.66699 -5.33301 27.334 -8.16602 56.001 -8.49902s48.334 -4.16602 59.001 -11.499c6 1.33301 14.667 -1.16699 26 -7.5s19 -9.5 23 -9.5c7.33301 0 12.666 5.66699 15.999 17c-6 18 -8 46 -6 84
c-3.33301 29.333 0.333984 73.333 11.001 132c-0.666992 7.33301 -4.66699 22.333 -12 45c-5.33301 18.667 -8 34.667 -8 48c0 4.66699 0.5 11.667 1.5 21s1.83301 16 2.5 20c-2 26 1 61.667 9 107c-20.667 17.333 -30.334 54.666 -29.001 111.999
c-0.666992 5.33301 -3.66699 11.666 -9 18.999s-8 14 -8 20c0 3.33301 0.666992 6.66602 2 9.99902c10.667 9.33301 28 17.666 52 24.999c27.333 8 45 14.667 53 20c10 4 20 -2.66699 30 -20c-0.666992 -65.333 -7.33398 -159.666 -20.001 -282.999
c-0.666992 -3.33301 -1 -6.66602 -1 -9.99902c0 -7.33301 2.16699 -18.166 6.5 -32.499s6.5 -25.5 6.5 -33.5s-2 -15.667 -6 -23v-61c-1.33301 -23.333 -8 -39.666 -20 -48.999c-0.666992 -8.66699 2 -17.667 8 -27c8 -13.333 12.333 -21 13 -23c-2 -22.667 0 -55 6 -97
c-9.33301 -36 -14 -75.667 -14 -119c0 -35.333 4.33301 -87 13 -155c9.33301 -70.667 14.333 -122.667 15 -156c0.666992 -16 4.33398 -38.667 11.001 -68c3.33301 -34 4.66602 -51.667 3.99902 -53zM587.998 341.998c-9.33301 10.667 -14.6689 36.668 -16.002 78.001
c-0.666992 37.333 -9 60.333 -25 69c-21.333 0 -51 5.5 -89 16.5s-68.333 16.167 -91 15.5v3c-24.667 -7.33301 -55 -10.333 -91 -9c-4.66699 -4 -30 -19.333 -76 -46c-31.333 -18.667 -50 -40 -56 -64c-5.33301 -8.66699 -15 -19.334 -29 -32.001
c-28 -30.667 -35 -70 -21 -118c-1.33301 -7.33301 1.16699 -15.5 7.5 -24.5s8.83301 -17.5 7.5 -25.5c48 -84.667 103 -131.334 165 -140.001c41.333 -10 82 -15 122 -15c84.667 0 143.334 22 176.001 66l-1 173c14.667 14.667 20.334 32.334 17.001 53.001z" />
    <glyph glyph-name="e" unicode="e" 
d="M625 160c3.33301 -6.66699 5.00098 -13.666 5.00098 -20.999c0 -8 -13.667 -35.333 -41 -82c-59.333 -29.333 -152.333 -46.666 -279 -51.999c-33.333 -1.33301 -79.333 3.33398 -138 14.001c-18.667 4.66699 -40 16.667 -64 36c-30 24 -50 38.667 -60 44
c-14 8.66699 -22.833 27.667 -26.5 57s-10.834 48.666 -21.501 57.999c-2 96 13.667 157 47 183c5.33301 20 18 36.333 38 49l39 44c16 16.667 32.333 26.667 49 30c22 24 55.667 42 101 54l117 27c4.66699 -2.66699 26 -9.66699 64 -21c27.333 -8 46.333 -19.333 57 -34
c33.333 -15.333 65.666 -61.666 96.999 -138.999c0.666992 -2.66699 0 -10.334 -2 -23.001c-6.66699 -1.33301 -30.334 -2.66602 -71.001 -3.99902c-10.667 0 -18.667 -0.666992 -24 -2c-34 -2.66699 -83 0.666016 -147 9.99902
c-60 -0.666992 -144.333 -9.33398 -253 -26.001c-23.333 -16.667 -35 -35.667 -35 -57c0 -4.66699 0.666992 -9.66699 2 -15c9.33301 -10 17.333 -28.833 24 -56.5s15 -46.834 25 -57.501c5.33301 -18 20 -35.333 44 -52c28 -19.333 45.667 -34.333 53 -45
c4.66699 -0.666992 12 -4.66699 22 -12s19.333 -10 28 -8c20.667 -21.333 51 -25.333 91 -12c108.667 12 181.334 39 218.001 81l16.5 23c5.66699 8 13.834 11 24.501 9zM474.001 451.001c-1.33301 18.667 -11.334 35.334 -30.001 50.001l-48 35l-84 3l-82 -30
c-31.333 -11.333 -52.333 -29 -63 -53c9.33301 -10.667 27.333 -15.667 54 -15c34.667 0 55.334 -1 62.001 -3c0.666992 -1.33301 9 -2 25 -2c15.333 8 43.333 6.66699 84 -4c32 3.33301 59.333 9.66602 82 18.999z" />
    <glyph glyph-name="f" unicode="f" horiz-adv-x="520" 
d="M495 1190c-6 -10.667 -15.9971 -20.0029 -29.9971 -28.0029l-35 -16c-6.66699 2 -24 10 -52 24c-22 12 -40.333 18 -55 18c-14 0 -27.667 -4.33301 -41 -13c-27.333 -5.33301 -53.666 -37.666 -78.999 -96.999c-22 -25.333 -33 -68.666 -33 -129.999
c-0.666992 -91.333 -1.33398 -138.666 -2.00098 -141.999c-14 -18.667 -12.667 -46 4 -82c2.66699 -30.667 -0.333008 -73.334 -9 -128.001c4.66699 -11.333 9 -22.666 13 -33.999c6 -13.333 15 -21.333 27 -24c25.333 -6.66699 66 -7.33398 122 -2.00098
c1.33301 0 23.666 3 66.999 9c27.333 4 50.333 5 69 3c5.33301 0 9 -3.66699 11 -11s1.33301 -13.333 -2 -18c-16 -8.66699 -38.333 -24.667 -67 -48c-18 3.33301 -50.333 3.66602 -97 0.999023c-41.333 -2.66699 -73 -0.333984 -95 6.99902
c-8.66699 -4 -19.667 -12 -33 -24c-2 -6.66699 -3 -13.667 -3 -21c0 -9.33301 2.16699 -22.166 6.5 -38.499s6.5 -28.166 6.5 -35.499c0 -12.667 -4.66699 -23.667 -14 -33c-2.66699 -10.667 -1.66699 -21 3 -31c5.33301 -13.333 8 -22.666 8 -27.999
c10 -61.333 6.33301 -97.666 -11 -108.999c0.666992 -6.66699 3.33398 -19.5 8.00098 -38.5s7 -33.5 7 -43.5c0 -16 -4.66699 -29.333 -14 -40c-36 -27.333 -70.333 -35.333 -103 -24c-0.666992 16 2.5 37.667 9.5 65s10.5 48 10.5 62c0 6 -0.333008 12 -1 18
c4.66699 12 7 24.667 7 38c0 10 -1.83301 24.333 -5.5 43s-5.5 32.667 -5.5 42c0 12.667 2.33301 24.334 7 35.001c-4 2.66699 -5.33301 6 -4 10c-1.33301 28.667 2 69.667 10 123c4.66699 6 7 10.667 7 14c0 4 -5.33301 7.16699 -16 9.5s-16.667 5.5 -18 9.5
c-12 4 -30 6 -54 6c-26.667 -0.666992 -45.334 0 -56.001 2c-1.33301 9.33301 1.66699 19.333 9 30c12 17.333 18 26.333 18 27c21.333 0 48.666 5.66699 81.999 17c10 15.333 15 37.666 15 66.999v72c1.33301 11.333 3.33301 21 6 29c-4 0 -6.66699 2.5 -8 7.5
s-3.66602 7.5 -6.99902 7.5c1.33301 9.33301 2 19.333 2 30c0 12 -1 29.667 -3 53s-3 40.666 -3 51.999c0 32.667 6.66699 58.334 20 77.001c3.33301 30 6.66602 52 9.99902 66c5.33301 23.333 13.666 42.333 24.999 57c25.333 42.667 86.333 92 183 148
c4 -0.666992 9.66699 0.666016 17 3.99902c12 1.33301 28 5 48 11l75 -11c30 -4 44.333 -18.667 43 -44z" />
    <glyph glyph-name="g" unicode="g" horiz-adv-x="725" 
d="M748 -91c12 -22 18.0059 -45.332 18.0059 -69.999c0 -48.667 -24.667 -103 -74 -163c-69.333 -56 -132.333 -95.333 -189 -118c-19.333 -12.667 -38.666 -20.334 -57.999 -23.001c-27.333 -1.33301 -64.666 -7.66602 -111.999 -18.999c-10.667 0 -26.834 -2 -48.501 -6
s-37.834 -6 -48.501 -6c-15.333 0 -29.333 3 -42 9c-49.333 -2.66699 -77.333 0 -84 8c-9.33301 6.66699 -28.666 13 -57.999 19c-26 5.33301 -44 13.666 -54 24.999l-49 36c-17.333 16.667 -25 36 -23 58c-4 3.33301 -6 6.66602 -6 9.99902
c0 2.66699 1.66699 7.16699 5 13.5s4.66602 12.166 3.99902 17.499c14 42.667 53 75.334 117 98.001c1.33301 2.66699 7.66602 2.66699 18.999 0c-35.333 -58.667 -53 -100 -53 -124c17.333 -32 64.666 -68.333 141.999 -109c29.333 -4 59.666 -6 90.999 -6
c75.333 0 174.333 16.333 297 49c9.33301 -0.666992 18.333 4.66602 27 15.999s16 17.666 22 18.999l48 33c17.333 14.667 26 31.334 26 50.001c0 6.66699 -1 13.334 -3 20.001c6.66699 3.33301 9.66699 11.833 9 25.5s2 22.167 8 25.5
c-10 17.333 -22.667 45.666 -38 84.999c-4 22 -18.667 37.667 -44 47c-20.667 10.667 -50 17.667 -88 21l-95 8c-6.66699 4 -13.334 6 -20.001 6c-5.33301 0 -14 -2.66699 -26 -8s-22 -7.66602 -30 -6.99902c-52 -6 -87.333 -4 -106 6c-52 -16 -87.667 -16.333 -107 -1
c-4 0.666992 -20.667 8.33398 -50 23.001c-16.667 15.333 -25.334 38 -26.001 68c0 14 7 27 21 39c18 15.333 28.333 26 31 32c13.333 10.667 35 24.334 65 41.001c-0.666992 0.666992 -15.334 9 -44.001 25c-18 10 -27.667 23.333 -29 40
c-18.667 5.33301 -38.667 26 -60 62c2.66699 58 14.334 110.667 35.001 158c10.667 2 16.667 7 18 15c69.333 65.333 139.666 101.333 210.999 108c14.667 6.66699 44.667 7.33398 90 2.00098c42 -6 72 -1.66699 90 13c10 8 24 12 42 12c8.66699 0 26.667 -2 54 -6
c23.333 -3.33301 41.333 -4.33301 54 -3c12.667 -2.66699 29 7.33301 49 30c4 0 11.167 1.5 21.5 4.5s17.833 4.5 22.5 4.5c9.33301 0 14 -4.66699 14 -14c0 -2.66699 -0.333008 -6 -1 -10c-16.667 -12.667 -39 -35.334 -67 -68.001c-7.33301 -12 -25.5 -18.667 -54.5 -20
s-46.5 -6.66602 -52.5 -15.999c22.667 -30 32.667 -54.333 30 -73c2.66699 -38.667 -12 -74 -44 -106l-82 -80c-17.333 -13.333 -67 -32.333 -149 -57c-4.66699 -11.333 -15.667 -24 -33 -38l-70 -20c-24.667 -10 -41.334 -25 -50.001 -45c-4 -4 -6 -8 -6 -12
c0 -5.33301 6.66699 -16.333 20 -33c4.66699 -2 40 -4.66699 106 -8c16 -0.666992 29 -3.33398 39 -8.00098c28 15.333 85 19 171 11c8.66699 2.66699 21.334 6 38.001 10c18.667 -0.666992 44 -5.33398 76 -14.001c41.333 -8 67 -24 77 -48l46 -20
c15.333 -10 22 -24.667 20 -44zM486.006 403.001c2 14.667 -13.6641 35.001 -46.9971 61.001c-34.667 41.333 -71.334 61.666 -110.001 60.999c-4 -8 -20.667 -9.66699 -50 -5l-17 -3c-16.667 -5.33301 -41 -15.333 -73 -30c-14.667 -12 -31.667 -33.667 -51 -65
c1.33301 -7.33301 -1.33398 -15.333 -8.00098 -24c-4.66699 -71.333 27 -122.333 95 -153c23.333 -6.66699 46.666 -10 69.999 -10c75.333 0 136 27.333 182 82c5.33301 17.333 8.33301 46 9 86z" />
    <glyph glyph-name="h" unicode="h" 
d="M598 409c0 -13.333 -2.66699 -31.1689 -8 -53.502s-8 -38.833 -8 -49.5c0 -12 2 -24 6 -36c4.66699 -56 3.33398 -91 -3.99902 -105c4 -24.667 5 -57 3 -97c4 -2.66699 6 -5.33398 6 -8.00098c0 -2 -1.66699 -5.66699 -5 -11s-4.66602 -10 -3.99902 -14
c-25.333 -16 -56 -28 -92 -36c-4.66699 -2 -8.66699 -0.166992 -12 5.5s-6 8.83398 -8 9.50098c2 32.667 8.66699 58.334 20 77.001c-3.33301 11.333 -5 23.333 -5 36s2.33301 30.334 7 53.001s7 39.334 7 50.001c0 15.333 -3.33301 30 -10 44c-1.33301 6 -2 11.667 -2 17
c0 8 2.16699 19 6.5 33s6.5 25 6.5 33c0 6.66699 -0.666992 13.334 -2 20.001l-2 62c-3.33301 24 -13.666 39.333 -30.999 46c-49.333 19.333 -99.333 29 -150 29c-21.333 0 -42 -2 -62 -6c-2.66699 -1.33301 -25.334 -11.333 -68.001 -30
c-28.667 -12.667 -47.334 -28.334 -56.001 -47.001c-12 -28 -14.667 -46.333 -8 -55c-4.66699 -16 -4.66699 -37 0 -63c0.666992 -7.33301 -1.5 -17.833 -6.5 -31.5s-7.5 -23.167 -7.5 -28.5c0 -8 2.66699 -15.333 8 -22c10.667 -81.333 16 -123.333 16 -126
c0 -21.333 -3 -41.333 -9 -60c-2.66699 -12.667 -11 -21.667 -25 -27c-8 1.33301 -18.667 -2.33398 -32 -11.001s-22.666 -13 -27.999 -13s-10 3 -14 9c-0.666992 13.333 1.66602 31.5 6.99902 54.5s8 40.167 8 51.5c0 10.667 -1.66699 20.667 -5 30
s-3.66602 20.333 -0.999023 33c3.33301 18 5 28.333 5 31c0 8 -2 15 -6 21c-0.666992 2 0.333008 3.5 3 4.5s3.66699 2.5 3 4.5c-0.666992 -9.33301 -1.33398 24.667 -2.00098 102c-0.666992 43.333 5.33301 75 18 95c2.66699 16.667 -2 28.667 -14 36
c-5.33301 64 -5.66602 127.667 -0.999023 191c7.33301 5.33301 10 17.333 8 36c-8 6.66699 -12 19.334 -12 38.001c0 24 -1 38.667 -3 44c-6 39.333 -4.66699 69 4 89c-6.66699 8 -10 18 -10 30c0 5.33301 1 13.833 3 25.5s3 20.167 3 25.5c0 12 -3.66699 21.333 -11 28
l-2 112c-1.33301 44 -8 78 -20 102c1.33301 4.66699 2 11.667 2 21c17.333 8 34.333 16.333 51 25c20 9.33301 39.333 13 58 11c2.66699 -4.66699 5.66699 -8.66699 9 -12c0 -19.333 -0.666992 -30 -2 -32c-2.66699 -7.33301 -4 -16.666 -4 -27.999
c0 -5.33301 0.333008 -13.5 1 -24.5s1 -19.167 1 -24.5c0 -26.667 -9 -43.667 -27 -51c-2 -4.66699 -3 -8.66699 -3 -12c0 -4.66699 4.83301 -7.83398 14.5 -9.50098s14.5 -5.83398 14.5 -12.501c0 -95.333 -0.666992 -149.333 -2 -162c-2 -8.66699 -7 -19.667 -15 -33
c2 -9.33301 7.66699 -21.333 17 -36l1 -284c3.33301 0 6 -2.16699 8 -6.5s4.33301 -6.16602 7 -5.49902l59 39c22.667 13.333 45.667 22 69 26c38 12.667 66 16.334 84 11.001c2 -0.666992 5.16699 -3.83398 9.5 -9.50098s8.16602 -8.5 11.499 -8.5s6.33301 1.33301 9 4
c12 10 27.667 15 47 15c11.333 0 26.666 -2 45.999 -6c23.333 -5.33301 38.333 -8.33301 45 -9c15.333 -10.667 33 -30.334 53 -59.001c26 -16 37.333 -51 34 -105z" />
    <glyph glyph-name="i" unicode="i" horiz-adv-x="250" 
d="M167 925c2 -11.333 -2.66797 -20.6689 -14.001 -28.002c-16 -9.33301 -24.667 -15.333 -26 -18l-92 -66c-6.66699 2 -10 5.33301 -10 10c0 3.33301 2.5 8.5 7.5 15.5s7.83301 11.833 8.5 14.5c8.66699 5.33301 18.834 16.833 30.501 34.5s21.834 28.834 30.501 33.501
c1.33301 6.66699 5.33301 12.334 12 17.001s11 8.66699 13 12c3.33301 0.666992 6.66602 1 9.99902 1c4.66699 0 14.667 -8.66699 30 -26zM162.999 330.997c-4.66699 -56 -9.66699 -85.665 -15 -88.998c0.666992 -5.33301 5 -29 13 -71c5.33301 -30.667 8 -55.334 8 -74.001
c0 -19.333 -2.33301 -36.666 -7 -51.999c-2.66699 -12.667 -11 -21.667 -25 -27c-8 1.33301 -18.667 -2.33398 -32 -11.001s-22.666 -13 -27.999 -13s-10 3 -14 9c-0.666992 13.333 1.66602 31.5 6.99902 54.5s8 40.167 8 51.5c0 10.667 -1.66699 20.667 -5 30
s-3.66602 20.333 -0.999023 33c3.33301 18 5 28.333 5 31c0 8 -2 15 -6 21c4 -2.66699 8.33301 -5.33398 13 -8.00098c1.33301 4 2 7.33301 2 10c0 6 -3.66699 12.333 -11 19s-11 12.334 -11 17.001c0 4 1.66699 8.33301 5 13c2.66699 22 5 43.667 7 65
c0 24.667 -6.66699 45 -20 61c-0.666992 42 -6.33398 84.333 -17.001 127c21.333 17.333 56.333 39 105 65c4 0.666992 6 -1.33301 6 -6s2 -6.66699 6 -6c6.66699 -66 4 -130.667 -8 -194c-0.666992 -2.66699 -1 -5.33398 -1 -8.00098c0 -6.66699 3.5 -13.167 10.5 -19.5
s10.5 -11.5 10.5 -15.5s-1.66699 -8.33301 -5 -13z" />
    <glyph glyph-name="j" unicode="j" horiz-adv-x="275" 
d="M167 925c2 -11.333 -2.66797 -20.6689 -14.001 -28.002c-16 -9.33301 -24.667 -15.333 -26 -18l-92 -66c-6.66699 2 -10 5.33301 -10 10c0 3.33301 2.5 8.5 7.5 15.5s7.83301 11.833 8.5 14.5c8.66699 5.33301 18.834 16.833 30.501 34.5s21.834 28.834 30.501 33.501
c1.33301 6.66699 5.33301 12.334 12 17.001s11 8.66699 13 12c3.33301 0.666992 6.66602 1 9.99902 1c4.66699 0 14.667 -8.66699 30 -26zM171.999 -12.0029c0 -13.333 -2.33301 -33.6738 -7 -61.0068s-7 -47.333 -7 -60c0 -8.66699 2 -21 6 -37s6 -28 6 -36
c0 -63.333 -10.667 -111 -32 -143c3.33301 -10 5 -20.667 5 -32c0 -18 -5.66699 -41.667 -17 -71c-0.666992 -36.667 -16 -74.667 -46 -114c-42 -55.333 -65.667 -89 -71 -101c-8.66699 -2.66699 -13.667 -7 -15 -13c-65.333 -64.667 -130.666 -97 -195.999 -97l-20 2
c-10.667 -0.666992 -26 -0.666992 -46 0l-85 12c-12.667 13.333 -19 22 -19 26c0 14 6 21 18 21c32 0 45 -1 39 -3c25.333 -19.333 65.666 -29 120.999 -29c46 0 91.333 17.167 136 51.5s73 73.5 85 117.5c5.33301 10.667 11 26.334 17 47.001
c9.33301 6.66699 14 30.334 14 71.001c0 63.333 9.66699 117.333 29 162c-8 18 -12 41 -12 69c0 -15.333 1.66699 23.334 5 116.001c0.666992 5.33301 3.5 10.833 8.5 16.5s7.5 10.5 7.5 14.5c0 2.66699 -1.33301 6 -4 10l-14 6c0 8 -0.833008 20 -2.5 36s-2.5 28 -2.5 36
c0 24 7 40.333 21 49c-0.666992 9.33301 -5.16699 21.666 -13.5 36.999s-12.5 28.333 -12.5 39c0 44.667 5.66699 73.334 17 86.001l2 10c0 5.33301 -3.66699 11.333 -11 18s-11 12.667 -11 18c0 4 1.66699 8.33301 5 13c4.66699 48.667 7 71.334 7 68.001
c0 22.667 -6.33301 42 -19 58c-1.33301 42 -7.33301 84.333 -18 127c1.33301 0.666992 19 13 53 37c26.667 18.667 44 28 52 28c4 0 6.16699 -2.16699 6.5 -6.5s2.5 -6.16602 6.5 -5.49902c2 -22 3 -44.333 3 -67c0 -16 -2.16699 -39.167 -6.5 -69.5
s-6.5 -52.833 -6.5 -67.5c0 -5.33301 3.66699 -11 11 -17s11 -11.333 11 -16c0 -4 -1.66699 -8.33301 -5 -13c-4 -43.333 -6 -88 -6 -134c0 -23.333 2.16699 -58.166 6.5 -104.499s6.5 -81.166 6.5 -104.499z" />
    <glyph glyph-name="k" unicode="k" horiz-adv-x="650" 
d="M631 62c1.33301 -31.333 -14.334 -53.665 -47.001 -66.998c-15.333 -6 -31.666 -9 -48.999 -9c-31.333 0 -68 9.66699 -110 29c-2.66699 2 -9.66699 9.66699 -21 23c-9.33301 10.667 -17.333 16 -24 16c-4 0 -7.66699 -1 -11 -3l-159 113c-14 14 -39.667 28.667 -77 44
c-4.66699 -4.66699 -6.66699 -7.66699 -6 -9c-1.33301 -53.333 2 -105 10 -155c-2.66699 -17.333 -14.334 -30 -35.001 -38c-16.667 -6.66699 -33.667 -13 -51 -19c-20 4 -27.667 17 -23 39h2l6 179c1.33301 6 6.33301 13 15 21c-10 8 -15 18.667 -15 32
c0 5.33301 1 14 3 26s3 21 3 27c0 11.333 -3 21 -9 29c-2.66699 39.333 0 94.666 8 165.999c-4 8.66699 -8.33301 17.334 -13 26.001c-4 10.667 -2.66699 19.667 4 27c-5.33301 14.667 -7 36 -5 64c2 31.333 1.66699 53.333 -1 66c12.667 33.333 14.667 54.333 6 63
c-2.66699 23.333 -8 56 -16 98c2.66699 13.333 4 27 4 41c0 18 -3.33301 45.5 -10 82.5s-10 66.167 -10 87.5c0 14.667 1 28.667 3 42c-6 11.333 -7.33301 25.333 -4 42c5.33301 22.667 7.33301 38 6 46c7.33301 2.66699 21.666 12.334 42.999 29.001
c16.667 13.333 33 18.666 49 15.999c2 -48.667 3.66699 -97.667 5 -147c0.666992 -57.333 -3.33301 -105.666 -12 -144.999c0.666992 -18 6.33398 -35.667 17.001 -53c2 -14.667 3 -33.667 3 -57v-48c0 -26 1.33301 -45.667 4 -59l-3 -125
c-0.666992 -17.333 -2.33398 -31.666 -5.00098 -42.999c10.667 -21.333 15.667 -54 15 -98c-0.666992 -55.333 0.333008 -89.333 3 -102c-2.66699 -47.333 -4 -60 -4 -38c0 -16.667 5.33301 -26.667 16 -30l66 40c25.333 17.333 43.333 36.666 54 57.999
c26.667 16.667 62.667 51.334 108 104.001c42.667 49.333 79.334 82.333 110.001 99c6.66699 1.33301 18 -7.33398 34 -26.001c2.66699 -16 -2 -28.667 -14 -38l-35 -27c-4 -7.33301 -15 -14.333 -33 -21c-15.333 -6 -23.666 -15.667 -24.999 -29
c-33.333 -34 -62 -57.667 -86 -71c-4.66699 -10.667 -21 -25.334 -49 -44.001c-24 -17.333 -36 -32.333 -36 -45c0 -9.33301 4 -19 12 -29c52.667 -30.667 90 -68 112 -112c9.33301 -2.66699 20.333 -6.33398 33 -11.001c4 0.666992 8 1 12 1c22 0 50.333 -11.333 85 -34
c4.66699 -4.66699 11.667 -12.334 21 -23.001c12.667 0 33 -4 61 -12c25.333 -7.33301 47 -10.333 65 -9z" />
    <glyph glyph-name="l" unicode="l" horiz-adv-x="200" 
d="M127 97c0 -42.667 -9.00098 -67.332 -27.001 -73.999c-30.667 -20 -58.667 -31 -84 -33c0 14 -2.33301 29.667 -7 47c0.666992 34.667 2.66699 86 6 154c2 25.333 7 45.666 15 60.999c0 6 -2.66699 14.167 -8 24.5s-8 17.833 -8 22.5c0 6.66699 3 12.667 9 18
c11.333 20 8.33301 45.333 -9 76l21 204c2.66699 6.66699 1.33398 14.5 -3.99902 23.5s-7.33301 16.833 -6 23.5c-2 16.667 -3 67.667 -3 153c10.667 23.333 11.334 47.666 2.00098 72.999c-8.66699 14 -11.667 61.333 -9 142c1.33301 7.33301 2 15.666 2 24.999
c0 13.333 -2.83301 32.833 -8.5 58.5s-8.5 43.834 -8.5 54.501c0 24 9.66699 43 29 57c4 1.33301 13.667 7 29 17c12.667 8 22.667 12 30 12s13.333 -3 18 -9c0 -14 0.666992 -22 2 -24c11.333 -60.667 9.66602 -111.667 -5.00098 -153
c6.66699 -17.333 8.66699 -37.333 6 -60c-4 -32.667 -6 -53.667 -6 -63c4.66699 -83.333 4.33398 -160 -0.999023 -230c-9.33301 -20.667 -14 -44.667 -14 -72c0 -30.667 6.66699 -52.667 20 -66c0.666992 -51.333 -0.333008 -127 -3 -227c-6 -6.66699 -9 -17.667 -9 -33
c0.666992 -27.333 1 -40 1 -38c18.667 -27.333 28.667 -68.666 30 -123.999c5.33301 -4.66699 6.66602 -10.667 3.99902 -18c-4 -10 -5.33301 -17.333 -4 -22z" />
    <glyph glyph-name="m" unicode="m" horiz-adv-x="865" 
d="M785 50c-3.33301 -5.33301 -29.6621 -25 -78.9951 -59c-2 1.33301 -9 2 -21 2c0 -2 -0.666992 36.333 -2 115c-0.666992 48.667 4.66602 85.334 15.999 110.001c1.33301 12.667 -1.66699 29.334 -9 50.001c-2.66699 28.667 0 68 8 118l-22 82c-10 32 -29 49.667 -57 53
c-8 0.666992 -16.333 1 -25 1c-54.667 0 -102.334 -20.333 -143.001 -61c2 -10.667 0.666992 -23.667 -4 -39c-5.33301 -17.333 -8 -29.333 -8 -36c0 -8.66699 2.33301 -17.334 7 -26.001c0 -0.666992 1.66699 -25.667 5 -75c2.66699 -31.333 -1 -55.333 -11 -72l21 -167
c-12 -13.333 -32.333 -28 -61 -44l-33 -4c0 8.66699 -1 28.667 -3 60c-2 26 -2 46.667 0 62c2 22.667 7.66699 41 17 55c-16 56 -21 102.333 -15 139c12.667 7.33301 17.667 16.333 15 27c-14 9.33301 -22.667 42.333 -26 99c-2.66699 47.333 -22.667 69.666 -60 66.999
c-10 8.66699 -24.667 10 -44 4c-14 -5.33301 -36.667 -12.333 -68 -21c-27.333 -6.66699 -46 -27 -56 -61c-1.33301 -5.33301 -6 -36.333 -14 -93c2 -23.333 -0.666992 -55 -8 -95c2.66699 -50.667 7.66699 -122 15 -214c-32.667 -25.333 -56.334 -38 -71.001 -38
c-5.33301 0 -11 0.666992 -17 2c-6.66699 85.333 -4 162.333 8 231c-8.66699 18 -13 40.333 -13 67c0 11.333 1 28.333 3 51s3 39.667 3 51c0 22 -3 40.667 -9 56c0.666992 8.66699 -3.16602 23.334 -11.499 44.001s-12.5 35.667 -12.5 45c0 16.667 10 28.334 30 35.001
c28 15.333 45 23 51 23c12.667 0 21 -8.33301 25 -25c0 -1.33301 4.33301 -19 13 -53c2.66699 -0.666992 5.33398 -1 8.00098 -1c5.33301 0 12.166 4.16699 20.499 12.5s17.166 11.166 26.499 8.49902c23.333 22 64.666 40.333 123.999 55
c9.33301 -13.333 22 -16.666 38 -9.99902c21.333 12 40.666 17 57.999 15c13.333 -4 25 -14 35 -30l25 -40c32.667 31.333 104 53.333 214 66l56 -12c21.333 -6.66699 33.333 -18.667 36 -36c-0.666992 -8.66699 3.33301 -20.834 12 -36.501s11.667 -29.834 9 -42.501
c2.66699 -93.333 -0.333008 -148.333 -9 -165c6 -26 7.66699 -67.167 5 -123.5s0 -98.5 8 -126.5z" />
    <glyph glyph-name="n" unicode="n" horiz-adv-x="645" 
d="M570 47c-12 -24 -42.333 -40.9961 -91 -50.9961c-7.33301 11.333 -11 23.333 -11 36c0 9.33301 3 23.333 9 42s9 32.667 9 42c0 14.667 -5.33301 28 -16 40c0 18 0.666992 27.667 2 29c7.33301 138 4.33301 228.333 -9 271c-21.333 42.667 -84.333 62 -189 58
c-7.33301 -9.33301 -23.333 -15 -48 -17c-26.667 -1.33301 -44 -5.33301 -52 -12c-2.66699 -2.66699 -15.667 -10 -39 -22c-17.333 -8 -27.666 -18.333 -30.999 -31c1.33301 -16 0.333008 -35 -3 -57c-4 -25.333 -6 -42.333 -6 -51c0 -16.667 3 -32 9 -46
c2 -56.667 -1.66699 -98 -11 -124c11.333 -38.667 14.333 -82.667 9 -132c-34 -10 -62.333 -19.333 -85 -28c-7.33301 24 -8.33301 61.667 -3 113c3.33301 8 3.5 19.667 0.5 35s-3.16699 26.333 -0.5 33c-0.666992 21.333 0 53.333 2 96c2 13.333 6 24.333 12 33
c0.666992 2.66699 1 5 1 7c0 5.33301 -3 10.5 -9 15.5s-9.66699 9.16699 -11 12.5c-2 24.667 1.33301 57 10 97c1.33301 11.333 -1.5 27.666 -8.5 48.999s-10.5 35.666 -10.5 42.999c0 18 11 30.667 33 38c22 16 38 24 48 24c9.33301 0 16.666 -5 21.999 -15l4 -39
c1.33301 -13.333 8 -20.666 20 -21.999l58 43c24.667 15.333 48.667 23 72 23c5.33301 0 11 -0.333008 17 -1c10.667 10.667 28.334 13.667 53.001 9c28 -4.66699 47.667 -3.66699 59 3c18 -0.666992 42.667 -6.33398 74 -17.001
c7.33301 -0.666992 18.666 -5.66699 33.999 -15c16 -0.666992 33 -13.334 51 -38.001l15 -33c2.66699 -12 4 -24 4 -36s-1.83301 -28.333 -5.5 -49s-5.5 -36 -5.5 -46c0 -14.667 2.33301 -28.667 7 -42c-8.66699 -4.66699 -10.667 -19.334 -6 -44.001
c4.66699 -8 7 -25 7 -51c0 -14 1 -24.667 3 -32c4.66699 -16 6.66699 -38.667 6 -68c-0.666992 -42.667 -0.666992 -67 0 -73z" />
    <glyph glyph-name="o" unicode="o" horiz-adv-x="775" 
d="M704 220c-4 0 -6.00195 -2.83594 -6.00195 -8.50293s-0.666992 -9.16699 -2 -10.5c-4.66699 -20 -15 -41.333 -31 -64c-25.333 -37.333 -38.666 -56.666 -39.999 -57.999c-10 0 -15.667 -3.66699 -17 -11c-4.66699 -6.66699 -12.667 -12 -24 -16
c-13.333 -4 -22 -7.66699 -26 -11c-56 -30.667 -98.667 -46 -128 -46c-6 0 -12.333 0.333008 -19 1c-36 -11.333 -77.667 -17 -125 -17c-48 0 -87 6.33301 -117 19c-84.667 23.333 -139.667 76.333 -165 159c-0.666992 3.33301 0.666016 15 3.99902 35
c2.66699 14 0 24.667 -8 32c-3.33301 11.333 -3.33301 29 0 53c0 26 4 42 12 48c6.66699 16 15.334 40.333 26.001 73c4.66699 9.33301 17.334 22.333 38.001 39c19.333 14.667 31 28.334 35 41.001c20 6.66699 48.667 22.334 86 47.001c35.333 24 64.666 39 87.999 45
c6.66699 0.666992 19.667 4.33398 39 11.001c16 5.33301 30 8 42 8c6 0 12.333 -0.666992 19 -2c24.667 11.333 52.334 10.666 83.001 -2.00098c6.66699 -8 15 -13.667 25 -17c9.33301 2 18 3 26 3c36 0 71 -17.667 105 -53c4 -10.667 18 -24.334 42 -41.001
c21.333 -14 32.666 -29.667 33.999 -47c10 -16.667 15 -35.667 15 -57c0 -9.33301 -3.33301 -34 -10 -74c-5.33301 -31.333 -5.66602 -57.666 -0.999023 -78.999zM608.998 358.997c-3.33301 5.33301 -8.33203 23 -14.999 53c-5.33301 22 -15 36.333 -29 43
c-11.333 16.667 -29.333 32.667 -54 48c-32 20 -51.333 32.667 -58 38c-20.667 4.66699 -54.334 7.33398 -101.001 8.00098c-20.667 -2.66699 -50 -11.334 -88 -26.001l-70 -53c-26.667 -21.333 -46 -42.333 -58 -63c-8 -28 -26 -66.333 -54 -115
c1.33301 -8.66699 6.33301 -19.334 15 -32.001c1.33301 -12 -0.333984 -21 -5.00098 -27c13.333 -33.333 26 -59.333 38 -78c4 -4.66699 9.33301 -18 16 -40c4.66699 -17.333 13 -27 25 -29c46.667 -30 121.667 -51 225 -63c22 4.66699 54.333 14.667 97 30l55 50
c22.667 20 36.334 40.667 41.001 62c21.333 18 32 47 32 87c0 0.666992 -4 36.334 -12 107.001z" />
    <glyph glyph-name="p" unicode="p" horiz-adv-x="765" 
d="M699 318l3.99707 -43.998c0 -20 -5.33301 -32.667 -16 -38c-5.33301 -16 -21 -43.667 -47 -83c-3.33301 -5.33301 -17.666 -13.333 -42.999 -24c-19.333 -8 -28.666 -20.667 -27.999 -38c-1.33301 -6.66699 -6.66602 -10 -15.999 -10c-12 0 -19.333 -0.666992 -22 -2
c-34 -44.667 -86.333 -71.334 -157 -80.001c-68.667 -8 -129.667 -7.33301 -183 2c-4 -2 -18.667 -2.66699 -44 -2c-18 0.666992 -27 -6.66602 -27 -21.999l-8 -99c-2.66699 -40.667 -0.666992 -71.334 6 -92.001c0 -2 1 -12.333 3 -31
c1.33301 -14.667 1 -26.334 -1 -35.001c-2 -12 -6.66699 -20.333 -14 -25c-0.666992 -16 3.16602 -38.667 11.499 -68s11.5 -53.666 9.5 -72.999c4.66699 -8.66699 5 -20 1 -34c-4.66699 -14.667 -5.66699 -26.334 -3 -35.001l8 -43c2 -18.667 -1.66699 -32.334 -11 -41.001
c-18 -24.667 -37.667 -39.667 -59 -45c-7.33301 -2.66699 -15.333 -3.33398 -24 -2.00098c-9.33301 1.33301 -13.333 5.66602 -12 12.999c-6 11.333 -6.66699 36 -2 74c-1.33301 20 1 45 7 75c6 33.333 9 57.333 9 72c2.66699 11.333 -1 25.333 -11 42
c0 122.667 0.666992 192 2 208c14.667 20.667 18.667 50.334 12 89.001c-2 5.33301 -7 11.333 -15 18c-5.33301 78 -5.66602 156.667 -0.999023 236c2 8.66699 7 19.334 15 32.001c-20 46 -26.333 115.667 -19 209c-1.33301 22.667 -9.33301 51 -24 85
c3.33301 12.667 12.666 25.667 27.999 39c24 21.333 36.333 32 37 32c14.667 4 29.334 4 44.001 0c3.33301 -2 7.33301 -10 12 -24c4 -10.667 10 -15 18 -13c46.667 27.333 98.334 38 155.001 32c14 8 32 13 54 15c15.333 1.33301 36.333 1.33301 63 0
c32 -1.33301 51.833 -2 59.5 -2s15.5 -2.66699 23.5 -8c10 -7.33301 16.333 -11.666 19 -12.999c53.333 -14 85.666 -34.667 96.999 -62c2.66699 0 8 -2.5 16 -7.5s15.333 -6.16699 22 -3.5c30 -35.333 47 -93.333 51 -174zM610.997 250.002c2 56.667 -4 91.001 -18 103.001
c-0.666992 15.333 -9.5 32.666 -26.5 51.999s-25.167 37.333 -24.5 54c-10.667 4 -49 19.667 -115 47c-11.333 2.66699 -25 5.33398 -41 8.00098c-20 4.66699 -41.333 7 -64 7c-58.667 0 -119 -12.333 -181 -37c-12 -6 -22.333 -29.667 -31 -71c8 -42 9 -106 3 -192
c6 -10.667 9.33301 -28 10 -52v-55c39.333 -32.667 75.333 -48.667 108 -48c16 0.666992 38.833 -1.83301 68.5 -7.5s52.167 -8.5 67.5 -8.5c8 0 16 0.666992 24 2c21.333 -0.666992 43.333 6.33301 66 21c34.667 21.333 54.667 33.333 60 36l58 62
c22.667 25.333 34.667 51.666 36 78.999z" />
    <glyph glyph-name="q" unicode="q" horiz-adv-x="735" 
d="M651 -577c-9.33301 -22.667 -38.6641 -41.3418 -87.9971 -56.0088c-15.333 -2.66699 -23.666 4.33301 -24.999 21c0 4.66699 1.33301 18.334 4 41.001c6.66699 10.667 9 26 7 46s1 45.667 9 77c2 4.66699 3 9.33398 3 14.001c0 6 -2.16699 16 -6.5 30s-6.5 25 -6.5 33
c0 7.33301 1.33301 14 4 20c2 26.667 10 64 24 112l-6.5 31c-4.33301 20.667 -6.5 50.334 -6.5 89.001v92c-6.66699 5.33301 -9.33398 18.333 -8.00098 39c0.666992 16.667 -6.66602 26.334 -21.999 29.001c-22.667 -7.33301 -68.667 -17.333 -138 -30
c-12 -12.667 -29.333 -20.667 -52 -24c-16 -2 -37.667 -2 -65 0c-32 2 -52 2.66699 -60 2c-46.667 13.333 -77.334 22.666 -92.001 27.999c-33.333 13.333 -58.666 30.333 -75.999 51c-3.33301 12.667 -6.33301 25 -9 37c-4.66699 14 -12.334 22.667 -23.001 26
c-16.667 37.333 -17.667 65.666 -3 84.999c2 4.66699 0.666992 8.66699 -4 12s-6.66699 7 -6 11c-3.33301 21.333 -5 33 -5 35c10.667 28.667 19.667 49.334 27 62.001c11.333 21.333 25.666 39.333 42.999 54c6 26.667 24.667 52.667 56 78c44.667 36 70 57.333 76 64
l80 35c32.667 13.333 61.667 20 87 20c21.333 0 42 -4.33301 62 -13c8.66699 0.666992 19.667 -0.666016 33 -3.99902c6.66699 0.666992 14.667 -1.66602 24 -6.99902s16.333 -8 21 -8c5.33301 0 10.666 2.33301 15.999 7c47.333 14 75 21 83 21
c10.667 0 20.334 -2 29.001 -6c2 -11.333 3 -22.666 3 -33.999c0 -16.667 -3.5 -39.167 -10.5 -67.5s-10.5 -51.166 -10.5 -68.499c0 -6.66699 0.333008 -13.667 1 -21c22 -38 25.333 -106 10 -204c10 -15.333 13.667 -38.333 11 -69
c-2.66699 -40 -3.33398 -64 -2.00098 -72c4 -24 5 -55.667 3 -95c-2.66699 -47.333 -3.66699 -80.333 -3 -99c-18.667 -20 -23.334 -45.667 -14.001 -77c2.66699 -9.33301 7 -37.666 13 -84.999c-2.66699 -1.33301 -2 -5.33301 2 -12
c-0.666992 -57.333 3 -140.666 11 -249.999zM556.002 281.992c-1.33301 25.333 -3.66895 65.667 -7.00195 121c-2.66699 5.33301 -5 21.333 -7 48c-1.33301 22 -6.66602 36.667 -15.999 44c-32 5.33301 -49 8 -51 8c-18.667 -2 -45 -1 -79 3
c-41.333 5.33301 -69.333 8 -84 8c-26 0 -49 -4 -69 -12c-5.33301 -6.66699 -20.666 -17.667 -45.999 -33c-20.667 -12.667 -32.667 -27 -36 -43c-12.667 -8.66699 -23.667 -23.667 -33 -45l-25 -53c-2 -13.333 -3 -26.333 -3 -39c0 -33.333 12.667 -87 38 -161
c14.667 0 25.167 -9 31.5 -27s14.833 -27 25.5 -27c4 0 8 0.333008 12 1c8.66699 0 21.667 -3.66699 39 -11s31 -11 41 -11c8.66699 0 17 1.66699 25 5c37.333 -4.66699 97 2.33301 179 21c4.66699 0.666992 11 1.66699 19 3c32 12 48 43.333 48 94
c0 10 -0.666992 24.5 -2 43.5s-2 32.5 -2 40.5c0 8.66699 0.666992 16 2 22z" />
    <glyph glyph-name="r" unicode="r" horiz-adv-x="480" 
d="M450 548c-1.33301 -1.33301 -10.0029 -13.335 -26.0029 -36.002c-11.333 -16 -23.333 -24 -36 -24c-6 0 -12.667 1.66699 -20 5c-42 20.667 -80.333 29 -115 25l-89 -29c-32.667 -14 -53.667 -34 -63 -60c-2.66699 -4 -5.66699 -29 -9 -75
c-1.33301 -12.667 -4.33301 -22 -9 -28c10.667 -18.667 16.334 -48.667 17.001 -90c1.33301 -51.333 3.66602 -83.666 6.99902 -96.999c-8.66699 -41.333 -13 -61 -13 -59c0 -12.667 4.33301 -23.334 13 -32.001c2 -7.33301 -0.333008 -14 -7 -20
c-10 -9.33301 -15.333 -14.333 -16 -15c-7.33301 0.666992 -17.666 -1.66602 -30.999 -6.99902s-22.666 -8 -27.999 -8c-6.66699 0 -12.334 2.66699 -17.001 8c0 18 0.666992 28 2 30c6.66699 30 7.66699 77.333 3 142c0 -4.66699 -0.333008 8 -1 38
c-0.666992 14.667 3.33301 24.667 12 30c10.667 12.667 12.667 25.334 6 38.001c-14 8 -21 30.667 -21 68l2 82c-1.33301 21.333 -5 40 -11 56c-10 18.667 -9.33301 35.334 2 50.001c35.333 27.333 59 41 71 41c6 0 11.667 -1.66699 17 -5c4.66699 -15.333 16 -35 34 -59
c40 19.333 103.667 43 191 71c6.66699 2 13.334 3 20.001 3c8.66699 0 20.334 -2.83301 35.001 -8.5s26.667 -8.5 36 -8.5c6.66699 0 13.667 1 21 3c12 -10.667 19.667 -20.334 23 -29.001z" />
    <glyph glyph-name="s" unicode="s" horiz-adv-x="605" 
d="M542 226c2.66699 -49.333 -0.331055 -77.3291 -8.99805 -83.9961c-18.667 -2 -34 -14.333 -46 -37c-14.667 -26.667 -26.334 -42.667 -35.001 -48c-3.33301 -7.33301 -10 -13.5 -20 -18.5l-28 -14.5c-51.333 -22 -132 -35 -242 -39
c-71.333 13.333 -125.333 44.666 -162 93.999c-4 29.333 5 49 27 59c8.66699 2 19.334 7 32.001 15c11.333 -2 17.666 -11.333 18.999 -28c2 -20.667 5.33301 -33 10 -37c55.333 -45.333 104 -68 146 -68c17.333 0 34.666 3.33301 51.999 10
c68.667 2.66699 115.667 27.334 141 74.001c20 37.333 28 71.666 24 102.999c-6.66699 17.333 -22.667 39 -48 65l-129 14c-10.667 -0.666992 -25.334 -3.33398 -44.001 -8.00098c-9.33301 -3.33301 -18.333 -5 -27 -5c-9.33301 0 -24.166 3.66699 -44.499 11
s-37.833 10 -52.5 8c-35.333 9.33301 -58 31.666 -68 66.999c0.666992 36.667 19 77 55 121c95.333 73.333 172 110 230 110c28 0 55.667 -5.66699 83 -17c9.33301 0 15 0.666992 17 2c14 5.33301 34.333 3.33301 61 -6c0.666992 -17.333 -7.66602 -31.333 -24.999 -42
l-45 -22c-26.667 -4.66699 -59 1.66602 -97 18.999c-52.667 -3.33301 -87.334 -7.33301 -104.001 -12c-36 -9.33301 -61.333 -28 -76 -56c-9.33301 -18 -11.333 -34.667 -6 -50c11.333 -2.66699 27.333 -12.667 48 -30c18.667 -15.333 34 -23 46 -23c8 0 16 2.33301 24 7
c30.667 4.66699 59.667 7 87 7c75.333 0 133.333 -17.667 174 -53c10 -8.66699 20.667 -38 32 -88z" />
    <glyph glyph-name="t" unicode="t" horiz-adv-x="495" 
d="M466 544l-2.99414 -12.998c-32.667 -36 -70.667 -54 -114 -54c-16 0 -32 3.33301 -48 10c2.66699 0.666992 -15.333 1 -54 1c-22 0 -35.667 -6.66699 -41 -20c4 -10 6 -20 6 -30c0 -12 -4.16699 -27.833 -12.5 -47.5s-12.5 -34.167 -12.5 -43.5
c0 -13.333 6.66699 -25.333 20 -36c1.33301 6.66699 2 -8.66602 2 -45.999c0 -18.667 -6.33301 -30.334 -19 -35.001l-1 -5c0 -6 6 -16.333 18 -31l-1 -25c-2 -38.667 9.66699 -78.334 35 -119.001c9.33301 -6.66699 23.333 -10 42 -10c3.33301 0 19.666 1.33301 48.999 4
c5.33301 3.33301 22 17 50 41c25.333 21.333 39.333 32 42 32c11.333 0 17 -9.33301 17 -28l-3 -18c-27.333 -29.333 -77.333 -54 -150 -74c-11.333 -10 -28.333 -15 -51 -15c-6.66699 0 -18.834 0.833008 -36.501 2.5s-31.167 2.16699 -40.5 1.5
c-28 15.333 -45 43.333 -51 84c2.66699 2.66699 5.66699 29.334 9 80.001c3.33301 52 3 81.333 -1 88c4.66699 13.333 6.33398 36.666 5.00098 69.999c-0.666992 30.667 2.66602 53.667 9.99902 69c-10 6.66699 -15 30.334 -15 71.001c0 27.333 -10 43 -30 47
c-20.667 -0.666992 -41.334 -1 -62.001 -1h-24v4c0 6 3.33301 13.667 10 23c8.66699 12 13.334 19.667 14.001 23c6.66699 4.66699 24.667 7.66699 54 9c24.667 1.33301 39 9 43 23v95c0 10.667 -2.83301 25.167 -8.5 43.5s-8.5 31.5 -8.5 39.5c0 10.667 11 27 33 49
c7.33301 1.33301 18.666 6.66602 33.999 15.999c13.333 8.66699 24.666 12.667 33.999 12l9 -1c0 -8.66699 3 -20.334 9 -35.001v0c-2.66699 -30 -5.66699 -60 -9 -90c-4 -36 -12 -65 -24 -87c10 -24 16 -37.667 18 -41c9.33301 -14.667 21.666 -23 36.999 -25
s37.666 -6.33301 66.999 -13c84.667 15.333 131.667 23 141 23c8 0 12 -6 12 -18z" />
    <glyph glyph-name="u" unicode="u" horiz-adv-x="660" 
d="M587 54c-11.333 -12.667 -41.667 -27.6641 -91 -44.9971c-5.33301 5.33301 -10.666 18 -15.999 38c-4.66699 16 -12 24.667 -22 26c-12 -4 -51 -20.667 -117 -50c-38.667 -12.667 -78.334 -19 -119.001 -19c-33.333 0 -60.333 5 -81 15c-16 0 -40 2 -72 6
c-12.667 12 -29.334 30.667 -50.001 56c0.666992 5.33301 1 10.666 1 15.999c0 11.333 -2.33301 27.833 -7 49.5s-7 38.167 -7 49.5c0 12 2 23.667 6 35l3 194c-4 8.66699 -7 44 -9 106c-0.666992 16 -2.66699 28.667 -6 38c18.667 12.667 50 26.667 94 42
c0 -3.33301 2.33301 -5.5 7 -6.5s7.33398 -2.83301 8.00098 -5.5c-1.33301 -30.667 -1 -77.667 1 -141c-13.333 -40.667 -17.333 -69.334 -12 -86.001c7.33301 -10.667 6.33301 -33 -3 -67c-3.33301 -25.333 -2.33301 -61.666 3 -108.999
c3.33301 -20.667 6.33301 -41.334 9 -62.001c5.33301 -24 17.333 -38.667 36 -44c64.667 -17.333 108 -26 130 -26c27.333 0 50.666 6 69.999 18c13.333 -5.33301 24.333 -7.33301 33 -6c26.667 24 45.334 42 56.001 54c19.333 22 33.666 43.333 42.999 64
c0 168 -1.33301 273.333 -4 316c0.666992 2 1.33398 4.66699 2.00098 8c0 5.33301 -2.33301 13.333 -7 24s-7 18.667 -7 24c0 8 4 14.667 12 20c24.667 12.667 52 21.667 82 27c10 -23.333 15 -50.666 15 -81.999c0 -19.333 -2.66699 -49.166 -8 -89.499
s-8 -70.833 -8 -91.5c-17.333 -12.667 -22.333 -24.334 -15 -35.001c2 -4 7 -7.66699 15 -11c-1.33301 -44.667 3.66699 -108.334 15 -191.001c6 -12.667 12.667 -32.334 20 -59.001z" />
    <glyph glyph-name="v" unicode="v" horiz-adv-x="600" 
d="M559 606c0.666992 -14 -4.99805 -31.1572 -16.998 -51.4902s-18 -37.5 -18 -51.5c-26 -62 -47 -119.667 -63 -173c-10 -18.667 -23.667 -47.334 -41 -86.001c-12.667 -22.667 -27.334 -59.334 -44.001 -110.001c-8 -7.33301 -19 -27.333 -33 -60
c-10.667 -26 -26.334 -42 -47.001 -48c-8 -6.66699 -20.667 -15 -38 -25c-11.333 20.667 -30 50 -56 88c-2 13.333 -8.66699 30.333 -20 51s-17.666 38 -18.999 52c2.66699 10.667 -0.5 22 -9.5 34s-13.5 21.667 -13.5 29c0 4.66699 0.666992 9.66699 2 15
c-2 6 -11.667 15 -29 27c-14 10 -20 22.333 -18 37c-5.33301 6 -11 28.667 -17 68c-21.333 11.333 -33.333 28.666 -36 51.999c-28.667 53.333 -42.667 92.666 -42 117.999c0.666992 0 13.667 9 39 27c16 10.667 31.667 15.667 47 15
c7.33301 -5.33301 13.666 -14 18.999 -26c7.33301 -18.667 11.666 -28.667 12.999 -30c6 -29.333 18.667 -69.333 38 -120c8.66699 -20.667 18.667 -52.334 30 -95.001c6 -6.66699 12.167 -19.834 18.5 -39.501s14.166 -32.834 23.499 -39.501
c2.66699 -18.667 7 -34.334 13 -47.001c2.66699 -0.666992 4.83398 -4.16699 6.50098 -10.5s5.16699 -8.83301 10.5 -7.5l21 -40c8.66699 -16.667 20.334 -26 35.001 -28c15.333 20.667 30.666 47.667 45.999 81c24 53.333 37 81.333 39 84c15.333 2.66699 23.333 14 24 34
v49c2 8 5.66699 14 11 18c9.33301 7.33301 15 36.666 17 87.999c6 7.33301 15.667 32.666 29 75.999c9.33301 33.333 26 50 50 50c8.66699 0 18.334 -1.66699 29.001 -5z" />
    <glyph glyph-name="w" unicode="w" horiz-adv-x="900" 
d="M833 560c-1.33301 -0.666992 -3.33398 -9.32617 -6.00098 -25.9932c0 -3.33301 -0.666992 -5.66602 -2 -6.99902c-2 -6.66699 -18.667 -51 -50 -133c0.666992 -5.33301 1 -10.333 1 -15c0 -12.667 -4.33301 -28.834 -13 -48.501s-12.334 -36.5 -11.001 -50.5
c-10 -22 -20.667 -57.5 -32 -106.5s-22 -84.167 -32 -105.5c-6.66699 -3.33301 -18.667 -14 -36 -32c-13.333 -14 -26.666 -21 -39.999 -21c-28 18 -44 51 -48 99l-29 25.5c-10 9 -15.333 19.167 -16 30.5c-2 29.333 -12.667 59.666 -32 90.999
c8.66699 21.333 10.667 37.333 6 48c-17.333 8 -36.333 32.333 -57 73c-13.333 -18.667 -30.666 -64 -51.999 -136c-18 -47.333 -29.667 -86.666 -35 -117.999l-23 -67c-12 -25.333 -28.667 -41.333 -50 -48c-4 0 -9.33301 -2 -16 -6s-13.334 -5.33301 -20.001 -4
c-18.667 22 -35.5 59.667 -50.5 113s-30.833 90.666 -47.5 111.999v48c-2 18.667 -10.667 29 -26 31c-6.66699 10 -16.667 32.333 -30 67c-10.667 28.667 -23.667 49.334 -39 62.001c-2 12.667 -11 32 -27 58c-14 23.333 -20.667 44.333 -20 63c4 6 30.667 25.667 80 59
c13.333 -2.66699 22.666 -13 27.999 -31l12 -46c4 -4.66699 7 -27.334 9 -68.001c2 -28 15.333 -41.667 40 -41c10 -12.667 18.667 -40 26 -82c7.33301 -38.667 18.333 -65.334 33 -80.001c2.66699 -16 15.334 -51.667 38.001 -107c3.33301 -6.66699 13.333 -10 30 -10
c13.333 23.333 23 57.666 29 102.999c12 5.33301 18.5 19.666 19.5 42.999s6.16699 37.666 15.5 42.999c-1.33301 4.66699 0.666992 12.334 6 23.001l8 56c2.66699 21.333 10.667 36.333 24 45c0.666992 6 -1.16602 12.333 -5.49902 19s-6.5 12.334 -6.5 17.001
c1.33301 6 2 12.667 2 20c0 6 -0.666992 14.167 -2 24.5s-2 17.5 -2 21.5c0 21.333 12.333 33.666 37 36.999c12 7.33301 28.667 10.333 50 9c26 -20 40 -64.333 42 -133c-2 -12 2.33301 -25.667 13 -41c12 -17.333 18.333 -31 19 -41c12 -28.667 24 -61.334 36 -98.001
c6 -20 16 -49.333 30 -88c3.33301 -28.667 15.333 -48.334 36 -59.001c11.333 4.66699 19 13 23 25c0.666992 3.33301 -0.666016 8 -3.99902 14c6 11.333 11 31 15 59c23.333 63.333 35 100.666 35 111.999c2.66699 7.33301 6.66699 17.333 12 30
c1.33301 18 9 75.667 23 173c21.333 18 32.333 27.333 33 28c13.333 9.33301 26.666 14.666 39.999 15.999c6.66699 -3.33301 10 -10.666 10 -21.999c-0.666992 -19.333 -1 -28.333 -1 -27z" />
    <glyph glyph-name="x" unicode="x" horiz-adv-x="665" 
d="M622 71c-1.33301 -13.333 -7.16406 -24.999 -17.4971 -34.999s-20.5 -19.333 -30.5 -28c-28 -1.33301 -43.333 -1.33301 -46 0c-18.667 17.333 -44.334 45.666 -77.001 84.999c-11.333 26 -36.333 54.333 -75 85c-41.333 32.667 -67.666 59 -78.999 79
c-3.33301 0 -7.33301 2 -12 6c-14.667 -10 -33.834 -29.167 -57.501 -57.5s-43.5 -47.166 -59.5 -56.499c-14.667 -11.333 -32.334 -35 -53.001 -71c-18 -32.667 -36.667 -53.334 -56 -62.001c-12.667 -15.333 -26 -21.666 -40 -18.999l-13 14
c-5.33301 5.33301 -7.33301 10.666 -6 15.999c16 20 42.333 47.333 79 82c16.667 12 36.167 32.333 58.5 61s40.166 47.667 53.499 57c14 13.333 28.667 38 44 74c-29.333 44 -62 82.333 -98 115c-16 2.66699 -29.333 16.667 -40 42s-25.667 38 -45 38
c-31.333 25.333 -46 45.666 -44 60.999c24 31.333 47.667 47 71 47c6.66699 0 13.334 -1 20.001 -3c15.333 -10 32 -29 50 -57c21.333 -32 37 -53 47 -63c50.667 -34 79.334 -70 86.001 -108c3.33301 -9.33301 8.66602 -14 15.999 -14c8.66699 0 19 5.33301 31 16
c2.66699 8.66699 14 18.667 34 30c17.333 9.33301 24.666 22.333 21.999 39c18 11.333 35 33.333 51 66s31 55 45 67c5.33301 1.33301 12.833 6 22.5 14s17.167 12 22.5 12c4.66699 0 9.33398 -2 14.001 -6c2 -18 -6.66699 -37.333 -26 -58
c-20.667 -22.667 -32.334 -40.667 -35.001 -54c-20.667 -14 -43.334 -37.667 -68.001 -71c-30.667 -40 -52 -65.667 -64 -77c0 -13.333 7.66699 -25 23 -35c17.333 -12.667 27.333 -22.667 30 -30c20 -21.333 52.667 -51.333 98 -90c0.666992 -14 8.66699 -24.333 24 -31
c24 -9.33301 36.333 -14.666 37 -15.999c4.66699 -9.33301 15.334 -19.833 32.001 -31.5s27 -22.5 31 -32.5z" />
    <glyph glyph-name="y" unicode="y" horiz-adv-x="680" 
d="M598 149c0 -8 -1.83301 -19.668 -5.5 -35.001s-5.5 -26.666 -5.5 -33.999c0 -11.333 3 -21.333 9 -30c-2.66699 -69.333 -4.66699 -110.666 -6 -123.999c-4.66699 -45.333 -14 -81.666 -28 -108.999c1.33301 -6 2 -12 2 -18c0 -10 -3.66699 -22.667 -11 -38
s-11.333 -27 -12 -35c-0.666992 -2 -17.334 -18 -50.001 -48c-9.33301 -12 -22 -31.667 -38 -59c-7.33301 -20 -25 -39 -53 -57c-34.667 -22 -56 -37.667 -64 -47c-103.333 -36.667 -170.666 -55 -201.999 -55c-23.333 0 -46.333 3.33301 -69 10
c-29.333 11.333 -67.666 35 -114.999 71c-30.667 12 -40.334 41.333 -29.001 88c3.33301 16.667 16 20.334 38 11.001c15.333 -35.333 27.333 -59 36 -71c17.333 -24 38.333 -38 63 -42c24.667 -18.667 60.334 -28 107.001 -28c34.667 0 65 5.33301 91 16
c30 7.33301 61.667 27.333 95 60c52 51.333 79 77.666 81 78.999c10 29.333 26.667 73 50 131c1.33301 71.333 9 133 23 185c3.33301 12.667 3 26.667 -1 42c-4 20 -6 34 -6 42c2 15.333 1.33301 33.333 -2 54c-4.66699 24 -7 41.667 -7 53
c-10.667 -0.666992 -23 -6.66699 -37 -18s-25 -18 -33 -20c-31.333 -24.667 -79.333 -60.334 -144 -107.001c-46 -14 -84.667 -21 -116 -21c-44.667 0 -78.667 12.667 -102 38c-22 37.333 -33 58.666 -33 63.999c0 9.33301 3 18.333 9 27
c1.33301 7.33301 0.166016 17.5 -3.50098 30.5s-5.5 21.5 -5.5 25.5c0 10 5 18 15 24c0 19.333 4 32.666 12 39.999c-0.666992 8 -1 16 -1 24c0 22 5.66699 56.667 17 104c10.667 43.333 15 79.333 13 108c0 6.66699 -2.66699 15 -8 25c-8 14 -12.333 22.333 -13 25
c7.33301 15.333 23.333 28.333 48 39c30.667 13.333 49.667 23 57 29h11c4.66699 0 7 2 7 6c5.33301 -3.33301 12 -10.333 20 -21c-6.66699 -18.667 -15.334 -48 -26.001 -88c1.33301 -5.33301 0.333008 -11 -3 -17c-5.33301 -22 -11 -55.667 -17 -101
c0.666992 -8.66699 -4.83301 -19 -16.5 -31s-17.5 -21 -17.5 -27s4.33301 -12.667 13 -20c-0.666992 -52 -6 -104.667 -16 -158c3.33301 -20 15 -38 35 -54l53 -36c5.33301 -2 10 -3 14 -3c6.66699 0 15 3.66699 25 11s18.667 11 26 11c2.66699 0 5.66699 -0.666992 9 -2
c27.333 8.66699 58.333 29 93 61c41.333 38 70 61.333 86 70c27.333 42 41 99.333 41 172c0 32.667 -3 66.667 -9 102c2.66699 11.333 0.166992 25.833 -7.5 43.5s-11.5 28.834 -11.5 33.501c0 10 7 17.667 21 23c18.667 24.667 45.334 32.667 80.001 24
c6 -22.667 8 -57 6 -103c-4 -11.333 -6 -23 -6 -35c0 -13.333 3.33301 -31.833 10 -55.5s10 -41.5 10 -53.5c0 -15.333 -3.66699 -30.333 -11 -45c18 -52 23 -104 15 -156z" />
    <glyph glyph-name="z" unicode="z" horiz-adv-x="610" 
d="M564 97c4 -2.66699 6.33594 -5.66992 7.00293 -9.00293c0 -1.33301 -1.83301 -4.66602 -5.5 -9.99902s-4.83398 -10 -3.50098 -14l-32 -37c-12.667 -13.333 -26.334 -20 -41.001 -20c-8.66699 0 -18 2 -28 6c-1.33301 5.33301 -3.66602 6.66602 -6.99902 3.99902
c-4.66699 -4 -8.66699 -5.33301 -12 -4c-10 3.33301 -32.333 6 -67 8c-29.333 0.666992 -49.666 6 -60.999 16c-184 -14.667 -280 -22 -288 -22c-1.33301 0 -10 5.66699 -26 17c2.66699 12 11 24.667 25 38c16 16 26 28 30 36c38.667 58.667 75 94.334 109 107.001
c14 40 32.667 72.333 56 97c9.33301 18 29 38.667 59 62c12 22 33 52.667 63 92c-2.66699 5.33301 -1.16699 10 4.5 14s8.16699 8 7.5 12c10 14 12 26.667 6 38c-23.333 8 -57.666 12.667 -102.999 14c-55.333 1.33301 -91 3.33301 -107 6
c-7.33301 -2.66699 -32.666 -4.66699 -75.999 -6c-11.333 0 -21 -1 -29 -3c-2.66699 14 3.66602 26.667 18.999 38c19.333 14 30.333 25 33 33c10.667 0 43 -4.66699 97 -14c11.333 4 23 6 35 6c13.333 0 31.666 -3.33301 54.999 -10s40.666 -10 51.999 -10
c13.333 0 26.333 2.66699 39 8c32.667 2.66699 76.667 3.66699 132 3c2 -5.33301 3 -10.666 3 -15.999c0 -12 -6.33301 -24.667 -19 -38c-16 -16.667 -25.167 -28.334 -27.5 -35.001s-10 -13.167 -23 -19.5s-20.167 -14.166 -21.5 -23.499c-4 -6 -19.667 -23 -47 -51
c-1.33301 -0.666992 -2.66602 -3 -3.99902 -7s-3.66602 -5.33301 -6.99902 -4c-6.66699 -17.333 -18 -35.666 -34 -54.999l-40 -48l-79 -116c-2.66699 0.666992 -5.33398 1 -8.00098 1c-8.66699 0 -15.334 -4.5 -20.001 -13.5s-9.33398 -17.5 -14.001 -25.5
c2 -8 0.5 -16.5 -4.5 -25.5s-7.5 -15.833 -7.5 -20.5c0 -4 1.33301 -8.33301 4 -13c52 -8 89.333 -10 112 -6c14 -0.666992 50 0.333008 108 3c45.333 2.66699 81.333 0 108 -8c6 1.33301 18.667 6.33301 38 15c15.333 6.66699 28.666 10 39.999 10z" />
    <glyph glyph-name="braceleft" unicode="{" horiz-adv-x="500" 
d="M465 -134c2 -20 -13.9971 -33.0049 -47.9971 -39.0049c-50.667 -8 -77 -12.667 -79 -14c-8 0 -16.833 3.83301 -26.5 11.5s-15.834 11.834 -18.501 12.501l-17 4c-43.333 24.667 -82.333 66.667 -117 126c-16.667 22 -28.334 63 -35.001 123c-8.66699 12 -13 26 -13 42
c0 14.667 6.33301 42 19 82c12 36.667 16.667 65.334 14 86.001c2.66699 0 4.83398 2.5 6.50098 7.5s4.16699 7.5 7.5 7.5c-4 34.667 -17.333 84 -40 148c-22.667 19.333 -50.334 31.333 -83.001 36c-5.33301 22.667 -5.33301 39 0 49
c32.667 4.66699 60.334 16.667 83.001 36c10.667 17.333 19 41.333 25 72c8 42.667 13 68 15 76c-3.33301 0 -5.83301 2.5 -7.5 7.5s-3.83398 7.5 -6.50098 7.5c2.66699 20.667 -2 49.334 -14 86.001c-12.667 40 -19 67.333 -19 82c0 16 4.33301 30 13 42
c3.33301 30 6.66602 51.667 9.99902 65c5.33301 24 13.666 43.333 24.999 58c22.667 38 39 62.667 49 74c14 17.333 36.667 34.666 68 51.999c4 0 9.66699 1.33301 17 4c2.66699 0.666992 8.83398 4.83398 18.501 12.501s18.5 11.5 26.5 11.5c2 -1.33301 28.333 -6 79 -14
c34 -6 50 -19 48 -39c-2 -4.66699 -19.333 -16.667 -52 -36c-59.333 17.333 -91.333 26 -96 26c-19.333 0 -37 -5.33301 -53 -16c-18.667 -4 -33 -20 -43 -48l-20 -69c-11.333 -12.667 -17 -27 -17 -43c0 -15.333 8.66699 -42.166 26 -80.499s26 -68.5 26 -90.5
c0 -6 -0.666992 -12 -2 -18c-14.667 -18.667 -13.334 -46 3.99902 -82c-4.66699 -52.667 -14.334 -94 -29.001 -124c2 -2.66699 3 -5.66699 3 -9c0 -6 -4.5 -16.333 -13.5 -31s-14.5 -27 -16.5 -37c2 -10 7.5 -22.167 16.5 -36.5s13.5 -24.5 13.5 -30.5
c0 -3.33301 -1 -6.33301 -3 -9c14.667 -30 24.334 -71.333 29.001 -124c-17.333 -36 -18.666 -63.333 -3.99902 -82c1.33301 -6 2 -12 2 -18c0 -22 -8.66699 -52.167 -26 -90.5s-26 -65.166 -26 -80.499c0 -16 5.66699 -30.333 17 -43l20 -69c10 -28 24.333 -44 43 -48
c16 -10.667 33.667 -16 53 -16c4.66699 0 36.667 8.66699 96 26c14 -4.66699 31.333 -16.667 52 -36z" />
    <glyph glyph-name="bar" unicode="|" horiz-adv-x="300" 
d="M213 -150c0 -7.33301 -1.66602 -13.9961 -4.99902 -19.9961c5.33301 -90.667 3.33301 -151.667 -6 -183c-10 -8.66699 -20.333 -13 -31 -13c-4.66699 0 -9 0.666992 -13 2c-8.66699 14 -25.334 32 -50.001 54c-4 8.66699 -6 17.334 -6 26.001
c0 31.333 4.83301 79.5 14.5 144.5s14.5 112.5 14.5 142.5c0 18 0.833008 44.333 2.5 79s2.5 60.334 2.5 77.001c0 7.33301 -1.33301 18 -4 32s-4 24.667 -4 32c0 17.333 2.33301 35.333 7 54c-5.33301 5.33301 -5.66602 13.666 -0.999023 24.999c5.33301 15.333 8 24 8 26
c0 8 -3.33301 22.167 -10 42.5s-10 36.166 -10 47.499c0 25.333 5 61.666 15 108.999c-6.66699 10 -9.33398 25.333 -8.00098 46c2 23.333 1.33301 39 -2 47c3.33301 25.333 3 55.666 -1 90.999c-6 44.667 -9 74.667 -9 90c0 27.333 -1.33301 64 -4 110
c-3.33301 53.333 -5.33301 89.666 -6 108.999c5.33301 10.667 8 21.667 8 33c0 5.33301 -9 58.666 -27 159.999c4.66699 20.667 17.667 31 39 31c5.33301 0 14.333 -6 27 -18c15.333 -16 24 -24.667 26 -26c6.66699 -18.667 10 -40.667 10 -66
c0 -29.333 -1.66699 -53.666 -5 -72.999c-1.33301 -8 -0.333008 -16.667 3 -26c3.33301 -11.333 5.33301 -19.666 6 -24.999c4 -96 6 -196.333 6 -301c0 -16 -3 -30.333 -9 -43c4 -9.33301 5.16699 -23.333 3.5 -42s-0.5 -32.334 3.5 -41.001
c-1.33301 -17.333 -0.333008 -40.666 3 -69.999c3.33301 -32.667 5 -55.667 5 -69c0 -8.66699 -1.83301 -21 -5.5 -37s-5.5 -28 -5.5 -36c0 -8.66699 1.66699 -20.334 5 -35.001c4 -16.667 6.33301 -28.667 7 -36c4 -47.333 6 -115.333 6 -204
c0 -140 -0.333008 -208.333 -1 -205c0.666992 1.33301 1 -12.334 1 -41.001z" />
    <glyph glyph-name="braceright" unicode="}" horiz-adv-x="500" 
d="M465 499c-32.667 -4.66699 -60.3369 -16.6621 -83.0039 -35.9951c-10.667 -17.333 -19 -41.333 -25 -72c-8 -42.667 -13 -68 -15 -76c3.33301 0 5.83301 -2.5 7.5 -7.5s3.83398 -7.5 6.50098 -7.5c-2.66699 -20.667 2 -49.334 14 -86.001c12.667 -40 19 -67.333 19 -82
c0 -16 -4.33301 -30 -13 -42c-3.33301 -30 -6.66602 -51.667 -9.99902 -65c-5.33301 -24 -13.666 -43.333 -24.999 -58c-22.667 -38 -39 -62.667 -49 -74c-14 -17.333 -36.667 -34.666 -68 -51.999c-4 0 -9.66699 -1.33301 -17 -4
c-2.66699 -0.666992 -8.83398 -4.83398 -18.501 -12.501s-18.5 -11.5 -26.5 -11.5c-2 1.33301 -28.333 6 -79 14c-34 6 -50 19 -48 39c2 4.66699 19.333 16.667 52 36c59.333 -17.333 91.333 -26 96 -26c19.333 0 37 5.33301 53 16c18.667 4 33 20 43 48l20 69
c11.333 12.667 17 27 17 43c0 15.333 -8.66699 42.166 -26 80.499s-26 68.5 -26 90.5c0 6 0.666992 12 2 18c14.667 18.667 13.334 46 -3.99902 82c4.66699 52.667 14.334 94 29.001 124c-2 2.66699 -3 5.66699 -3 9c0 6 4.5 16.333 13.5 31s14.5 27 16.5 37
c-2 10 -7.66699 22.667 -17 38c-8.66699 13.333 -13 23 -13 29c0 3.33301 1 6.33301 3 9c-14.667 30 -24.334 71.333 -29.001 124c17.333 36 18.666 63.333 3.99902 82c-1.33301 6 -2 12 -2 18c0 22 8.66699 52.167 26 90.5s26 65.166 26 80.499
c0 16 -5.66699 30.333 -17 43l-20 69c-10 28 -24.333 44 -43 48c-16 10.667 -33.667 16 -53 16c-4.66699 0 -36.667 -8.66699 -96 -26c-14 4.66699 -31.333 16.667 -52 36c-2 20 14 33 48 39c50.667 8 77 12.667 79 14c8 0 16.833 -3.83301 26.5 -11.5
s15.834 -11.834 18.501 -12.501l17 -4c43.333 -24.667 82.333 -66.667 117 -126c16.667 -22 28.334 -63 35.001 -123c8.66699 -12 13 -26 13 -42c0 -14.667 -6.33301 -42 -19 -82c-12 -36.667 -16.667 -65.334 -14 -86.001c-2.66699 0 -4.83398 -2.5 -6.50098 -7.5
s-4.16699 -7.5 -7.5 -7.5c4 -34.667 17.333 -84 40 -148c22.667 -19.333 50.334 -31.333 83.001 -36c5.33301 -22.667 5.33301 -39 0 -49z" />
    <glyph glyph-name="asciitilde" unicode="~" horiz-adv-x="500" 
d="M445 516c-4.66699 -4.66699 -10.335 -12.9971 -17.002 -24.9971c-16 -25.333 -44.667 -47 -86 -65c-6 -2.66699 -10 -6.33398 -12 -11.001c-15.333 -3.33301 -29.666 -1.33301 -42.999 6c-21.333 10.667 -34 16.667 -38 18c-10.667 4 -26.667 9.66699 -48 17
c-20 5.33301 -37 3.33301 -51 -6c-15.333 -2 -26.666 -4.66699 -33.999 -8c-12 -4.66699 -20 -12.334 -24 -23.001l-28 -8c-8 2 -11 9.33301 -9 22l109 89c6 1.33301 16 4.66602 30 9.99902c12 5.33301 21.667 8 29 8c6.66699 0 13.334 -1.66699 20.001 -5
c17.333 -12 44.666 -26.333 81.999 -43c33.333 -1.33301 54 4.66699 62 18c24 18 42.333 26.333 55 25c7.33301 -6 8.33301 -12.333 3 -19z" />
    <glyph glyph-name="nonbreakingspace" unicode="&#xa0;" horiz-adv-x="475" 
 />
    <glyph glyph-name="exclamdown" unicode="&#xa1;" horiz-adv-x="198" 
d="M141 853c-7.33301 -2 -17.002 -9 -29.002 -21s-23.333 -18 -34 -18c-3.33301 0 -6.66602 0.333008 -9.99902 1c-3.33301 4 -17.333 15 -42 33c-17.333 13.333 -26 26 -26 38c0 6 1.66699 12.333 5 19c6.66699 18.667 28.334 32.667 65.001 42
c7.33301 -10 22 -22.667 44 -38c2 -3.33301 8.33301 -10 19 -20c7.33301 -8 11 -15.667 11 -23c0 -4 -1 -8.33301 -3 -13zM137.998 81c4.66699 -5.33301 6.99902 -11.0039 6.99902 -17.0039c0 -2.66699 -8 -16.667 -24 -42c-9.33301 -8 -23 -14 -41 -18l-45 -8
c-1.33301 6.66699 -4 14.667 -8 24c-1.33301 7.33301 -0.666016 16.333 2.00098 27c-0.666992 66.667 4 161.334 14 284.001c-2 5.33301 -3 11.333 -3 18s1.33301 17.167 4 31.5s4 24.833 4 31.5c0 13.333 -4 25 -12 35c-2.66699 5.33301 -4 11 -4 17
c0 5.33301 1.66699 13.5 5 24.5s5 19.167 5 24.5c0 8 -2 15.333 -6 22c-12.667 34.667 -11.667 62 3 82c6 8.66699 16.667 18.667 32 30c33.333 0 52 -5 56 -15c-1.33301 -8.66699 -6.33301 -23.667 -15 -45c-7.33301 -18 -11 -33.333 -11 -46
c0.666992 -8 -1.83301 -19.5 -7.5 -34.5s-8.5 -25.167 -8.5 -30.5c0 -10.667 5.33301 -19.667 16 -27c1.33301 -11.333 0.333008 -26.666 -3 -45.999c-3.33301 -21.333 -5 -35.666 -5 -42.999c0 -14 3 -26.333 9 -37c-1.33301 -5.33301 -2 -10.666 -2 -15.999
c0 -6.66699 1.33301 -16.334 4 -29.001s4 -21.667 4 -27c0 -9.33301 -2 -17.666 -6 -24.999c4 -10.667 8 -36 12 -76c4 -31.333 12 -54.333 24 -69z" />
    <glyph glyph-name="cent" unicode="&#xa2;" horiz-adv-x="630" 
d="M617 124c-14 -37.333 -48.3291 -66 -102.996 -86c-42.667 2 -86.667 -8.66699 -132 -32c-5.33301 1.33301 -13.666 -0.666992 -24.999 -6c1.33301 -9.33301 2.33301 -23.333 3 -42c-9.33301 -11.333 -13 -33.333 -11 -66c2.66699 -39.333 3 -63.333 1 -72
c-7.33301 -5.33301 -21.333 -8.33301 -42 -9c-3.33301 3.33301 -5 9 -5 17c0 6 1.66699 17.333 5 34s5 29 5 37c0 16.667 -5.33301 27.667 -16 33l10 76c-4.66699 0.666992 -8.33398 1.33398 -11.001 2.00098l-122 27c-48 12 -79 35.667 -93 71
c-23.333 10 -41 34.333 -53 73c2 19.333 -3 42.666 -15 69.999c4 10 5.66699 25.333 5 46c0 24 1 40.333 3 49l37 69c16 26.667 33.667 45 53 55c15.333 20.667 37.666 41.334 66.999 62.001l75 52c11.333 3.33301 29.666 8.33301 54.999 15l4 2
c0 38.667 -1 77.334 -3 116.001c4.66699 5.33301 10 10.5 16 15.5s13.333 6.16699 22 3.5c0 -14.667 0.666992 -36.334 2 -65.001c1.33301 -14.667 1.66602 -36.334 0.999023 -65.001c8 -1.33301 22.667 -4.33301 44 -9c4 4 12.667 6 26 6
c9.33301 1.33301 21.333 0.333008 36 -3c16.667 0.666992 41.334 -0.333008 74.001 -3c10 -2 17.667 -5.66699 23 -11c-1.33301 -8.66699 -6.33301 -16.667 -15 -24c-10.667 -9.33301 -17.334 -16.333 -20.001 -21c-28 -18 -84.333 -23 -169 -15
c-2.66699 -113.333 0.666016 -180.666 9.99902 -201.999c-1.33301 -11.333 -6 -26 -14 -44c-5.33301 -22 -3.33301 -34 6 -36c6 -74 4 -119.333 -6 -136c6.66699 -10.667 10 -27.667 10 -51c22.667 -1.33301 40 -3.66602 52 -6.99902c78 19.333 143 54.666 195 105.999
c12 -4.66699 17 -15.334 15 -32.001zM310.004 529c-48.667 2 -86.332 -7.66504 -112.999 -28.998c-15.333 -8 -32 -25 -50 -51c-5.33301 -1.33301 -16 -13.333 -32 -36c-2.66699 -10.667 -6.66699 -21.334 -12 -32.001c-2 -23.333 -0.666992 -52.333 4 -87
c5.33301 -42.667 8.33301 -70.334 9 -83.001c9.33301 -12.667 26 -29.334 50 -50.001c4.66699 -10 26 -30.667 64 -62c14.667 -20.667 41 -33.334 79 -38.001c2 103.333 0.666992 197 -4 281c6 4.66699 7.66699 20 5 46c-2.66699 28.667 -2.66699 45.667 0 51
c2 4.66699 3 9.66699 3 15c0 4.66699 -1.5 11.834 -4.5 21.501s-4.5 17.5 -4.5 23.5c0 4.66699 0.666992 9.33398 2 14.001c1.33301 2 2.66602 7.33301 3.99902 16z" />
    <glyph glyph-name="sterling" unicode="&#xa3;" horiz-adv-x="899" 
d="M889 84c0 -7.33301 -6.65918 -22.3359 -19.9922 -45.0029c-29.333 -6 -69.333 -18 -120 -36c-4.66699 0 -43.667 -0.333008 -117 -1c-46 0 -80.667 5 -104 15c-7.33301 -1.33301 -20 0.333984 -38 5.00098c-16.667 4 -30.667 2.66699 -42 -4
c-12 5.33301 -34 6.33301 -66 3c-6 -2.66699 -16.667 -2.33398 -32 0.999023c-14.667 4 -26.667 3.33301 -36 -2c-20.667 6.66699 -46.834 6.16699 -78.501 -1.5s-58.834 -8.83398 -81.501 -3.50098c-4 -4.66699 -9.33301 -7 -16 -7c-12.667 0 -21.334 -1 -26.001 -3
c-19.333 -5.33301 -38 -1.66602 -56 11.001c-0.666992 1.33301 -3 4 -7 8c1.33301 0 2.66602 0.666992 3.99902 2c-1.33301 8 -1.33301 12.333 0 13s7 2.66699 17 6s16.333 9.33301 19 18c58.667 32.667 92.667 69.334 102 110.001c5.33301 7.33301 12.333 18.666 21 33.999
c8.66699 18 7.33398 35 -3.99902 51c6 6.66699 7.33301 13.667 4 21c2 12.667 1.33301 27.334 -2 44.001c-3.33301 19.333 -5 34.666 -5 45.999c-6.66699 6.66699 -16.334 11.667 -29.001 15c-8.66699 2.66699 -14.667 6.33398 -18 11.001
c-14.667 -0.666992 -34.667 0.333008 -60 3s-40.666 4.66699 -45.999 6c-18 3.33301 -31.667 9.33301 -41 18c2.66699 8 10.334 16 23.001 24l12 7c6.66699 4 12 8 16 12c7.33301 2.66699 18.333 4 33 4h50c3.33301 23.333 1 50 -7 80c-7.33301 27.333 -10 48.333 -8 63
c-2 12 0.666992 26.333 8 43s11 30 11 40c12 21.333 30 39 54 53c4 12 14.5 22.833 31.5 32.5s27.833 18.167 32.5 25.5c8 2 20.333 7 37 15c14.667 6.66699 28 11 40 13c17.333 12 40.333 18 69 18c37.333 0 64.333 -9.33301 81 -28c2 -8 -0.333008 -15.667 -7 -23l-7 -7
l-6 -8c-31.333 -14 -57.333 -16.667 -78 -8c-8 4.66699 -19 6.66699 -33 6c-17.333 0 -30 0.333008 -38 1c-4.66699 -6.66699 -12.334 -11.334 -23.001 -14.001c-16 -4.66699 -26.333 -10.667 -31 -18c-9.33301 -12 -18.166 -24.333 -26.499 -37s-11.5 -27 -9.5 -43
c-6 -73.333 6 -122.333 36 -147c13.333 -34 21 -53 23 -57c12 -18.667 29 -29.334 51 -32.001c11.333 -3.33301 27.666 -8.66602 48.999 -15.999c24 -8 44.667 -7 62 3c26.667 3.33301 66.334 9.66602 119.001 18.999c4.66699 2.66699 12.334 5.33398 23.001 8.00098
c4 0.666992 8.33301 -0.666016 13 -3.99902c1.33301 -8 -0.666992 -15.5 -6 -22.5s-10.333 -14.167 -15 -21.5c-42.667 -25.333 -93.334 -33.666 -152.001 -24.999c-22.667 0 -58.667 1 -108 3c-3.33301 -5.33301 -11 -25.666 -23 -60.999
c3.33301 -12.667 1.66602 -28.667 -5.00098 -48c-8 -24 -11.667 -42.333 -11 -55c-4 -5.33301 -8 -16.666 -12 -33.999c-2.66699 -12 -7.33398 -20 -14.001 -24c-8.66699 -16 -6.33398 -32 6.99902 -48c3.33301 -3.33301 5.33301 -8 6 -14
c13.333 -9.33301 35.333 -14.333 66 -15c25.333 -0.666992 42.666 -4.66699 51.999 -12c17.333 2 36.333 1.33301 57 -2c24.667 -4 42.667 -6 54 -6c13.333 -4 32 -3.66699 56 1c19.333 3.33301 35.666 1.66602 48.999 -5.00098c12 6.66699 31.333 7.66699 58 3
c8 -1.33301 15 -2 21 -2c10 0 19.333 2 28 6c8 -2 16 -3 24 -3c32.667 0 71 13.667 115 41c1.33301 -1.33301 9.66602 -4 24.999 -8c4.66699 -1.33301 6.66699 -5 6 -11z" />
    <glyph glyph-name="dieresis" unicode="&#xa8;" horiz-adv-x="481" 
d="M470 794l-1.00098 -0.000976562l-6 -20c-23.333 -27.333 -45.666 -38.666 -66.999 -33.999l-37 35c-15.333 14 -24.333 27.667 -27 41c4.66699 3.33301 12.667 11 24 23c14 16.667 30.333 22 49 16c16 -6.66699 36 -20 60 -40v-2v-5c0 -6 1.66699 -10.667 5 -14z
M140.999 777.999c-8 -14.667 -18 -28.333 -30 -41c-4.66699 0 -8.66699 -0.333008 -12 -1l-9 -1c-5.33301 -1.33301 -10.5 0.5 -15.5 5.5s-17.167 12.833 -36.5 23.5c-22 12.667 -30.667 28.667 -26 48c4.66699 3.33301 13 10.666 25 21.999c14.667 14 30.667 19.333 48 16
c2.66699 -3.33301 17 -9.66602 43 -18.999l8 -12c9.33301 -16 11 -29.667 5 -41z" />
    <glyph glyph-name="copyright" unicode="&#xa9;" horiz-adv-x="1000" 
d="M935 435c0 -120.667 -42.5 -223.334 -127.5 -308.001s-187.5 -127 -307.5 -127s-222.5 42.333 -307.5 127s-127.5 187.334 -127.5 308.001c0 120 42.5 222.333 127.5 307s187.5 127 307.5 127s222.5 -42.333 307.5 -127s127.5 -187 127.5 -307zM888 435
c0 106.667 -38 197.834 -114 273.501s-167.333 113.5 -274 113.5s-198 -37.833 -274 -113.5s-114 -166.834 -114 -273.501c0 -107.333 38 -198.833 114 -274.5s167.333 -113.5 274 -113.5s198 37.833 274 113.5s114 167.167 114 274.5zM765 245
c2 -9.33301 -2.33008 -22.6621 -12.9971 -39.9951c-24.667 -4.66699 -47 -12 -67 -22c-6.66699 1.33301 -13.334 2 -20.001 2c-14 0 -33.5 -3 -58.5 -9s-43.833 -9 -56.5 -9c-6.66699 0 -13.334 0.666992 -20.001 2c-18 -1.33301 -34.333 5 -49 19
c-6.66699 -4.66699 -18.667 -6.33398 -36 -5.00098c-58 10 -106.333 36.333 -145 79c-8 0.666992 -13.667 7.66699 -17 21s-9 20.333 -17 21c-7.33301 6 -15.333 17 -24 33c-8.66699 5.33301 -15 15.333 -19 30c-5.33301 18.667 -9.33301 30 -12 34
c0 4.66699 -0.666992 15.667 -2 33c-1.33301 14.667 -1.33301 26 0 34c1.33301 11.333 5.33301 20.333 12 27c0.666992 10.667 4 22.667 10 36c10.667 20 16.334 30.667 17.001 32c8 5.33301 16.667 16.666 26 33.999c11.333 4 27 15.667 47 35
c18 16.667 34.667 26.334 50 29.001l66 27c26 9.33301 50.667 14 74 14c21.333 2.66699 42.666 5 63.999 7c26 2 47 0 63 -6c10 -2 24.667 -7 44 -15c1.33301 -2 -0.666992 -9.33301 -6 -22c-10 -8.66699 -18.667 -12.334 -26 -11.001c-6.66699 1.33301 -18.667 6 -36 14
c-14 6.66699 -26.333 10 -37 10c-4 0 -8 -0.333008 -12 -1c-19.333 -0.666992 -49.333 -0.333984 -90 0.999023c-8 -4 -22.667 -8 -44 -12c-13.333 -9.33301 -36.333 -19.666 -69 -30.999c-5.33301 -9.33301 -17 -20.666 -35 -33.999s-29.667 -25 -35 -35
c-16 -26.667 -23.667 -65.334 -23 -116.001c-1.33301 -1.33301 -1.66602 -4.33301 -0.999023 -9c2 -1.33301 5 -17.333 9 -48c0.666992 -8.66699 4.66699 -14.667 12 -18c4.66699 -4 9 -13 13 -27s9.66699 -22.667 17 -26c7.33301 -20 31.666 -45 72.999 -75
c2 0 5.5 -0.833008 10.5 -2.5s9.16699 -2.5 12.5 -2.5c12.667 -8.66699 33.667 -17.334 63 -26.001c0.666992 -0.666992 8.66699 -3.33398 24 -8.00098s61.666 -6 138.999 -4c14 1.33301 34 8.16602 60 20.499s47.333 18.833 64 19.5z" />
    <glyph glyph-name="guillemotleft" unicode="&#xab;" horiz-adv-x="600" 
d="M568 69c-17.333 -30 -46.667 -42.9971 -88 -38.9971c-10 2 -19.333 9 -28 21c-14.667 19.333 -22.334 29.333 -23.001 30c-9.33301 21.333 -26.666 42 -51.999 62c-34.667 27.333 -54.667 44 -60 50s-12 11 -20 15l-10 5c-16 8.66699 -23.333 19 -22 31
c17.333 9.33301 41.333 27.666 72 54.999c36.667 16 60.667 27 72 33c25.333 16 43.333 35 54 57c10 8 25.667 19 47 33c16 10 31.667 11 47 3c1.33301 -12.667 -3.66699 -24.334 -15 -35.001l-30 -25l-35 -16c-13.333 -6.66699 -23 -15.334 -29 -26.001
c-9.33301 -2.66699 -19.333 -11 -30 -25c-2.66699 -4 -6 -8 -10 -12c6 -59.333 31.667 -103 77 -131c23.333 -35.333 49.333 -58 78 -68c3.33301 -14 5 -20 5 -18zM325.999 83.0029c-5.33301 -6 -11.333 -16.334 -18 -31.001
c-22.667 -13.333 -49.334 -19.666 -80.001 -18.999l-29 56c-12 21.333 -26.333 37 -43 47c-4 6.66699 -12.667 15 -26 25c-10.667 8 -17.334 17.333 -20.001 28c-18 1.33301 -34.333 10.666 -49 27.999c-6 7.33301 -15.667 17.666 -29 30.999
c0.666992 10.667 6.66699 19.334 18 26.001c10 4.66699 24 14 42 28c66 28.667 115.333 66.334 148 113.001c4.66699 0.666992 10.334 4.33398 17.001 11.001c3.33301 3.33301 8 4 14 2c6 5.33301 13.333 7.66602 22 6.99902c4 0 10.333 -0.333008 19 -1
c0.666992 -2 2.33398 -4 5.00098 -6c-7.33301 -25.333 -18.666 -40.666 -33.999 -45.999c-2 -1.33301 -5 -4.33301 -9 -9l-2 -2c-0.666992 0 -4 1 -10 3c-8 -10.667 -24.333 -23.834 -49 -39.501s-38.334 -34.167 -41.001 -55.5c4.66699 -27.333 30 -68.333 76 -123l1 1
c1.33301 -7.33301 5.33301 -11.333 12 -12c10 -13.333 30.667 -28 62 -44c5.33301 -4.66699 6.33301 -10.667 3 -18z" />
    <glyph glyph-name="minus" unicode="&#xad;" horiz-adv-x="625" 
d="M540 480c0 -40 -5.66602 -64.001 -16.999 -72.001c-24 -4 -51 -3.66699 -81 1c-50.667 2.66699 -111.334 4.33398 -182.001 5.00098c-10 -6.66699 -21.667 -10 -35 -10c-10 0 -22.5 2 -37.5 6s-24.167 6 -27.5 6s-5.66602 -0.333008 -6.99902 -1
c-20.667 1.33301 -38.334 -1 -53.001 -7c-10 15.333 -15 29 -15 41c0 14 7 23.333 21 28c13.333 -6 32.833 -8 58.5 -6s44.5 1 56.5 -3l47 -5c19.333 -2 34.333 -0.333008 45 5c5.33301 0.666992 62.333 1 171 1c8 7.33301 26.667 11 56 11z" />
    <glyph glyph-name="minus" unicode="&#x2212;" horiz-adv-x="625" 
d="M540 480c0 -40 -5.66602 -64.001 -16.999 -72.001c-24 -4 -51 -3.66699 -81 1c-50.667 2.66699 -111.334 4.33398 -182.001 5.00098c-10 -6.66699 -21.667 -10 -35 -10c-10 0 -22.5 2 -37.5 6s-24.167 6 -27.5 6s-5.66602 -0.333008 -6.99902 -1
c-20.667 1.33301 -38.334 -1 -53.001 -7c-10 15.333 -15 29 -15 41c0 14 7 23.333 21 28c13.333 -6 32.833 -8 58.5 -6s44.5 1 56.5 -3l47 -5c19.333 -2 34.333 -0.333008 45 5c5.33301 0.666992 62.333 1 171 1c8 7.33301 26.667 11 56 11z" />
    <glyph glyph-name="registered" unicode="&#xae;" horiz-adv-x="1000" 
d="M935 435c0 -120.667 -42.5 -223.334 -127.5 -308.001s-187.5 -127 -307.5 -127s-222.5 42.333 -307.5 127s-127.5 187.334 -127.5 308.001c0 120 42.5 222.333 127.5 307s187.5 127 307.5 127s222.5 -42.333 307.5 -127s127.5 -187 127.5 -307zM888 435
c0 106.667 -38 197.834 -114 273.501s-167.333 113.5 -274 113.5s-198 -37.833 -274 -113.5s-114 -166.834 -114 -273.501c0 -107.333 38 -198.833 114 -274.5s167.333 -113.5 274 -113.5s198 37.833 274 113.5s114 167.167 114 274.5zM770 190
c-36.667 -14.667 -58.3301 -22.002 -64.9971 -22.002c-8.66699 0 -17 1.66699 -25 5c-12.667 10.667 -25.667 21 -39 31c-14.667 13.333 -23 27.333 -25 42c-6.66699 7.33301 -28 24.666 -64 51.999c-26.667 21.333 -44.334 42 -53.001 62c-6 6.66699 -12.667 9.66699 -20 9
c-8.66699 4 -18.334 12.5 -29.001 25.5s-20.334 21.5 -29.001 25.5c-8.66699 9.33301 -24.667 16.666 -48 21.999c-1.33301 -2.66699 -3.33301 -7.66699 -6 -15c-2 -111.333 -0.666992 -183.666 4 -216.999c-2 -9.33301 -10.333 -16 -25 -20s-24 -8.66699 -28 -14
c-4.66699 -2.66699 -10.667 -4 -18 -4c3.33301 9.33301 5.66602 24 6.99902 44c0 11.333 0.666992 28.333 2 51c1.33301 16 7 26.667 17 32c-5.33301 5.33301 -8.66602 13.666 -9.99902 24.999c-1.33301 14.667 -2.66602 24 -3.99902 28
c1.33301 32 1.66602 68.667 0.999023 110c-0.666992 1.33301 -1 2.66602 -1 3.99902c0 2.66699 1.5 6.5 4.5 11.5s4.5 9.5 4.5 13.5c0 3.33301 -1.33301 6.66602 -4 9.99902c-6 19.333 -8 31 -6 35c-4 6.66699 -4 13.334 0 20.001c0 -0.666992 -1 6.5 -3 21.5
s-4 41.833 -6 80.5c-0.666992 3.33301 -3.66699 7 -9 11s-8 7.66699 -8 11c0 2.66699 1 5.33398 3 8.00098c20.667 10.667 52.334 16.667 95.001 18c6.66699 -5.33301 16.667 -6.66602 30 -3.99902c14.667 3.33301 25.334 3.66602 32.001 0.999023
c34.667 0.666992 83.667 -2.66602 147 -9.99902c33.333 -10 51.666 -16 54.999 -18c20.667 -9.33301 32.334 -23.333 35.001 -42c-2 -7.33301 -5.66699 -18 -11 -32c-4.66699 -2 -8.33398 -8 -11.001 -18s-7.33398 -16.333 -14.001 -19c-3.33301 -8 -12 -17.667 -26 -29
c-0.666992 -1.33301 -1 -3.33301 -1 -6c-9.33301 -2.66699 -23.333 -12 -42 -28c-16 -13.333 -31.667 -19.666 -47 -18.999c-21.333 -4.66699 -36 -12.667 -44 -24c-2 -6.66699 -0.5 -11.667 4.5 -15l13.5 -9c9.33301 -8 21.666 -22.667 36.999 -44
c24.667 -26 60.334 -66 107.001 -120c5.33301 -7.33301 27 -24.666 65 -51.999l23 -12c10 -5.33301 19.667 -6.66602 29 -3.99902c3.33301 -9.33301 5 -13.333 5 -12zM602.004 635.998c-6.66699 9.33301 -18.999 17.333 -36.999 24c-20.667 6.66699 -34 13 -40 19
c-9.33301 -4 -20.666 -5 -33.999 -3c-18 2.66699 -30 4 -36 4c-20.667 -3.33301 -50 -11 -88 -23c-2.66699 -6.66699 -4.33398 -18.667 -5.00098 -36c-3.33301 -14 -5 -36.333 -5 -67c6.66699 -4 10.334 -12.333 11.001 -25v-30c1.33301 -10.667 7 -17 17 -19
c17.333 -3.33301 55.666 1.33398 114.999 14.001l42.5 21c14.333 7.33301 23.833 17.666 28.5 30.999c27.333 20 37.666 50 30.999 90z" />
    <glyph glyph-name="degree" unicode="&#xb0;" horiz-adv-x="425" 
d="M384 937c2 -10.667 2.99902 -20.999 2.99902 -30.999c0 -34 -20.333 -69.333 -61 -106c-30.667 -14 -50 -21 -58 -21c-18 -5.33301 -45.333 -12.333 -82 -21c-24.667 -4.66699 -45 0.333008 -61 15c-47.333 11.333 -75.666 36.666 -84.999 75.999
c-1.33301 9.33301 -2 18.333 -2 27c0 54 36.333 103.333 109 148c38 3.33301 68.333 9.66602 91 18.999l3 1l1 -1l4 -2l7 -4c12 -7.33301 25.333 -9.66602 40 -6.99902c50 -12.667 80.333 -43.667 91 -93zM296.999 917.001c-2 5.33301 -6.66699 20.333 -14 45
c-18 2.66699 -32 6 -42 10c-6.66699 2 -16.667 5.33301 -30 10c-32 8 -60.667 -3 -86 -33c-6 -30 -4.66699 -54 4 -72c6 -12 20.667 -30 44 -54c3.33301 0 14 -5 32 -15c28 -15.333 52 -11.333 72 12c24 28 30.667 60.333 20 97z" />
    <glyph glyph-name="acute" unicode="&#xb4;" horiz-adv-x="180" 
d="M172 902c-2.66699 -25.333 -15.3311 -51.332 -37.998 -77.999l-22 -26c-14 -19.333 -36.667 -46 -68 -80c-2 -4.66699 -6.66699 -7 -14 -7h-24c-4 14 -1.33301 30.667 8 50c2.66699 3.33301 5.66699 10 9 20c1.33301 6 3.33301 9.33301 6 10
c10 8.66699 17.667 21.667 23 39c3.33301 14.667 7 29.667 11 45c1.33301 7.33301 5.66602 14.666 12.999 21.999l5 5c1.33301 -0.666992 3.66602 -1 6.99902 -1c6 0 10.333 1.66699 13 5c-2.66699 0.666992 11.333 1 42 1c14 0 23.667 -1.66699 29 -5z" />
    <glyph glyph-name="periodcentered" unicode="&#xb7;" horiz-adv-x="200" 
d="M179 519c1.33301 -7.33301 1 -13.3311 -1 -17.998c-16.667 -36 -40.667 -54.667 -72 -56c-2 3.33301 -6.66699 5 -14 5c-3.33301 0 -5 0.666992 -5 2c-4 6.66699 -18.667 18.667 -44 36c-18.667 12.667 -26 26.667 -22 42c11.333 13.333 30 30 56 50
c18 1.33301 35 -2.83398 51 -12.501l47 -28.5c0.666992 -4.66699 2 -11.334 4 -20.001z" />
    <glyph glyph-name="periodcentered" unicode="&#x2219;" horiz-adv-x="200" 
d="M179 519c1.33301 -7.33301 1 -13.3311 -1 -17.998c-16.667 -36 -40.667 -54.667 -72 -56c-2 3.33301 -6.66699 5 -14 5c-3.33301 0 -5 0.666992 -5 2c-4 6.66699 -18.667 18.667 -44 36c-18.667 12.667 -26 26.667 -22 42c11.333 13.333 30 30 56 50
c18 1.33301 35 -2.83398 51 -12.501l47 -28.5c0.666992 -4.66699 2 -11.334 4 -20.001z" />
    <glyph glyph-name="cedilla" unicode="&#xb8;" horiz-adv-x="216" 
d="M166 -166c-1.33301 -8 -2.66406 -19.333 -3.99707 -34c-30 -37.333 -62 -56 -96 -56c-6 0 -12 0.333008 -18 1c-7.33301 -3.33301 -14 -4.33301 -20 -3l-7 1c-5.33301 3.33301 -12.333 8 -21 14c4.66699 4 12.667 6.66699 24 8l15 1c39.333 4.66699 60.333 20.667 63 48
c2.66699 8 -0.333008 21 -9 39l-6 15c-9.33301 4 -23.333 10.333 -42 19c-0.666992 1.33301 5.33301 36.333 18 105c1.33301 9.33301 3.66602 13 6.99902 11h3l3 -1c3.33301 -1.33301 5.33301 -2 6 -2c5.33301 -0.666992 6.66602 -3.33398 3.99902 -8.00098
c-1.33301 -19.333 -0.333008 -33.666 3 -42.999l11 -33c41.333 0 60.666 -20.333 57.999 -61c6 -3.33301 8.66699 -10.333 8 -21z" />
    <glyph glyph-name="guillemotright" unicode="&#xbb;" horiz-adv-x="600" 
d="M568 242c-1.33301 -18 -12.002 -34 -32.002 -48l-49 -35c-27.333 -9.33301 -47.666 -25.666 -60.999 -48.999c-8 -4.66699 -17 -17 -27 -37c-3.33301 -7.33301 -10 -13.666 -20 -18.999l1 -2c-5.33301 -1.33301 -8.66602 -4.33301 -9.99902 -9
c-21.333 -18 -42 -25.333 -62 -22c-11.333 7.33301 -10 19 4 35l16 25c4 6 11.667 8.66699 23 8c2 5.33301 3.66699 8.33301 5 9c4 1.33301 9.66699 4.66602 17 9.99902c14 18 27.333 29.667 40 35c18.667 15.333 26.667 35 24 59c-5.33301 16.667 -30 48 -74 94
c-18.667 16 -51 36.333 -97 61c-2 0 -5.33301 4 -10 12c6 21.333 24.667 41 56 59c9.33301 3.33301 23 5.66602 41 6.99902c12 -19.333 30.333 -41 55 -65c-0.666992 -9.33301 5.33301 -14.333 18 -15c17.333 -12 41 -32.667 71 -62c31.333 -14 55 -31 71 -51zM339.998 229
c2 -5.33301 0.333984 -9.83105 -4.99902 -13.498s-13 -10.5 -23 -20.5c-12.667 -13.333 -35 -27.666 -67 -42.999c-18 -9.33301 -41.667 -27.666 -71 -54.999c-7.33301 -14.667 -23 -33.667 -47 -57c-4.66699 -8.66699 -13 -14.334 -25 -17.001
c-7.33301 -1.33301 -18 -3 -32 -5l-9 12l29.5 39c10.333 13.333 22.166 22.666 35.499 27.999c6 7.33301 18.667 17.333 38 30c16.667 11.333 29.334 25 38.001 41c8 5.33301 8.66699 11.666 2 18.999c-3.33301 15.333 -17 38 -41 68
c-6.66699 7.33301 -12.334 15 -17.001 23c-8.66699 3.33301 -22.334 15 -41.001 35c-5.33301 6 -12 12 -20 18c-1.33301 6 -4.33301 9.66699 -9 11l-37 17c-8.66699 4 -11 11.667 -7 23c12.667 19.333 27.334 30.333 44.001 33c2.66699 9.33301 12 14.666 28 15.999
c15.333 1.33301 25 -1.33398 29 -8.00098c4.66699 -14 13.667 -29.667 27 -47c21.333 -27.333 32.333 -41.666 33 -42.999c25.333 -10.667 46.333 -25.667 63 -45l40 -18c12.667 -6 22.667 -15.667 30 -29c2 0.666992 3.33301 1.66699 4 3l1 -2
c1.33301 -6 4.33301 -10.333 9 -13z" />
    <glyph glyph-name="questiondown" unicode="&#xbf;" horiz-adv-x="566" 
d="M324 775l-32.002 -23.998c-12.667 -9.33301 -24.667 -14 -36 -14c-5.33301 0 -10.666 0.666992 -15.999 2c-4 7.33301 -15.333 17.666 -34 30.999c-16 12 -25 24 -27 36c10.667 25.333 30 45.333 58 60l51 -26c2 -6.66699 9.33301 -17.334 22 -32.001
c10.667 -12 15.334 -23 14.001 -33zM546.998 164.002c-68.667 -98.667 -159.001 -149.332 -271.001 -151.999c0 -4.66699 -2.33301 -6.66699 -7 -6c-8 0.666992 -11.667 1 -11 1c0 3.33301 -5 5 -15 5c-70.667 -15.333 -122.667 -5.66602 -156 29.001
c-30.667 0 -59 30.333 -85 91c-1.33301 4.66699 -2 8.66699 -2 12c0 10 6.5 19.833 19.5 29.5s19.833 19.167 20.5 28.5l48 49c18.667 18 37.667 29.667 57 35c8 -0.666992 13.333 4.5 16 15.5s6.33398 17.5 11.001 19.5c3.33301 6.66699 14 19.334 32 38.001
c15.333 15.333 23 29.333 23 42c0 8.66699 -3 18.334 -9 29.001c0 1.33301 -1.33301 12 -4 32c-2.66699 14 -2.33398 25 0.999023 33c43.333 2 60.333 3.33301 51 4c20.667 -1.33301 32 -10.333 34 -27c2 -1.33301 4 -15.333 6 -42l-71 -94
c-28.667 -36.667 -58.667 -62.334 -90 -77.001c-13.333 -4.66699 -22.666 -16.334 -27.999 -35.001c-6 -22 -12 -35.667 -18 -41c-2 -30.667 14.667 -59.334 50 -86.001c5.33301 -3.33301 20.666 -8 45.999 -14c20.667 -4.66699 33.667 -13.667 39 -27
c0.666992 0 42.667 4 126 12c50.667 4 81.334 23 92.001 57c-4 1.33301 -6 5.66602 -6 12.999v17c31.333 36.667 56 55 74 55c5.33301 0 11 -0.666992 17 -2c6 -3.33301 9 -9.5 9 -18.5s0.333008 -17.5 1 -25.5z" />
    <glyph glyph-name="Agrave" unicode="&#xc0;" horiz-adv-x="990" 
d="M930 9c-0.666992 -2.66699 -8.33105 -9.33008 -22.998 -19.9971c-10.667 -1.33301 -17.5 2.83398 -20.5 12.501s-6.33301 19.5 -10 29.5s-28.834 61.333 -75.501 154c-1.33301 5.33301 -5.66602 14.666 -12.999 27.999c-6 11.333 -9 21.666 -9 30.999
c-5.33301 4.66699 -14.666 19.667 -27.999 45c-10.667 19.333 -23.667 30 -39 32c-9.33301 -10 -20.666 -15 -33.999 -15c-6 0 -16.667 2 -32 6s-27.333 6 -36 6c-8 0 -15.333 -1 -22 -3c-34.667 -5.33301 -94.334 -9 -179.001 -11c-78.667 -2 -137.667 -6.66699 -177 -14
c-14.667 -2.66699 -26.334 -13 -35.001 -31c-10 -22 -19 -35.333 -27 -40c0 -8 -1 -11.667 -3 -11c-21.333 -37.333 -49.666 -96.333 -84.999 -177c-20.667 -26 -40.334 -37.333 -59.001 -34c-10 2 -17.667 7 -23 15c0.666992 16 10.167 34.167 28.5 54.5
s29.166 36.5 32.499 48.5c14 3.33301 24.333 14.666 31 33.999c7.33301 22 15 35.333 23 40c5.33301 9.33301 11 25.333 17 48c10 7.33301 19.333 21.666 28 42.999c10 24.667 18 40.667 24 48c18.667 24.667 42.334 64.667 71.001 120c8.66699 6.66699 14.5 20.5 17.5 41.5
s8.83301 35.167 17.5 42.5c8.66699 3.33301 13.834 14.5 15.501 33.5s7.16699 30.167 16.5 33.5c1.33301 18.667 11.666 46 30.999 82c17.333 32.667 25.666 61.667 24.999 87c0.666992 6 7.16699 12.833 19.5 20.5s18.5 14.167 18.5 19.5c0 2.66699 -1.33301 5.66699 -4 9
c1.33301 16.667 11 31.667 29 45c23.333 18 37.333 31 42 39c4 0.666992 7.66699 1 11 1c11.333 0 20.666 -8.33301 27.999 -25c10 -22 17.333 -35 22 -39c28 -46 45 -88 51 -126c8 -4.66699 14.667 -14 20 -28c6 -16 11.333 -26.333 16 -31c8 -24.667 25.667 -59 53 -103
c6 -10 23.667 -43.333 53 -100v-11c22 -37.333 56.667 -92.333 104 -165c-1.33301 -4.66699 -2 -9 -2 -13c0 -12 5.33301 -23.333 16 -34c14.667 -15.333 23 -25 25 -29c3.33301 -15.333 19.333 -38.333 48 -69c26 -28.667 39 -51 39 -67c0 -18 -12.333 -35.667 -37 -53z
M691.003 382.004c2 6 0.999023 11.333 -3.00098 16l-10 11c1.33301 4.66699 2 9 2 13c0 14.667 -9.5 29.667 -28.5 45s-28.5 30.333 -28.5 45c-1.33301 0.666992 -19 28 -53 82c2 16 -3.66699 31.333 -17 46c-20 22.667 -30.333 34.667 -31 36l-23 47
c-10 18 -22.333 29.667 -37 35c-6 -6.66699 -13.667 -17.334 -23 -32.001c-20 -23.333 -39 -56.333 -57 -99c-24.667 -57.333 -40.667 -92.333 -48 -105c-10 -8 -18 -22.667 -24 -44c-7.33301 -24 -13.666 -39.667 -18.999 -47c-5.33301 -3.33301 -9 -11.666 -11 -24.999
s-4.66699 -21.666 -8 -24.999l9 -23c44 -6.66699 110 -7.33398 198 -2.00098c10 -4.66699 25 -5.66699 45 -3c24 4 41 5 51 3c8.66699 6 22.667 9 42 9h45c13.333 2 23 7.66699 29 17zM549.002 1065c-2.66699 -1.33301 -6 -5.66699 -10 -13
c-0.666992 -1.33301 -2 -1.66602 -4 -0.999023c-24.667 11.333 -44.334 34 -59.001 68l-54 51c-20 21.333 -30 43.333 -30 66c6 1.33301 14 4.66602 24 9.99902c16.667 -2.66699 33.334 -5 50.001 -7c21.333 -3.33301 35 -10.666 41 -21.999
c-2 -21.333 4.33301 -47.333 19 -78c15.333 -32.667 23 -57.334 23 -74.001z" />
    </font>
</defs>
</svg>
